{
.appVersion = "3133";
.formatVersion = 3;
axes = (
{
name = wght;
tag = wght;
}
);
customParameters = (
{
name = "Write lastChange";
value = 0;
},
{
name = "Use Typo Metrics";
value = 1;
},
{
name = fsType;
value = (
);
}
);
date = "2022-02-27 10:52:09 +0000";
familyName = "Edu NSW ACT Foundation";
featurePrefixes = (
{
automatic = 1;
code = "languagesystem DFLT dflt;
";
name = Languagesystems;
}
);
fontMaster = (
{
axesValues = (
200
);
customParameters = (
{
name = hheaAscender;
value = 1016;
},
{
name = hheaDescender;
value = -244;
},
{
name = hheaLineGap;
value = 0;
},
{
name = typoAscender;
value = 1016;
},
{
name = typoDescender;
value = -244;
},
{
name = typoLineGap;
value = 0;
},
{
name = winAscent;
value = 1129;
},
{
name = winDescent;
value = 368;
}
);
iconName = SemiBold;
id = m002;
metricValues = (
{
pos = 772;
},
{
over = 5;
pos = 772;
},
{
over = 5;
pos = 676;
},
{
over = 5;
pos = 470;
},
{
over = 5;
pos = 416;
},
{
over = -5;
},
{
over = -5;
pos = -356;
},
{
}
);
name = "Outline Condensed";
stemValues = (
119,
107
);
userData = {
GSExtrudeAngle = 30;
GSExtrudeDontSubtract = 1;
GSExtrudeOffset = 15;
GSOffsetHorizontal = -10;
GSOffsetKeepCompatible = 1;
GSOffsetVertical = -10;
com.defcon.sortDescriptor = (
{
ascending = (
space,
exclam,
quotedbl,
numbersign,
dollar,
percent,
ampersand,
quotesingle,
parenleft,
parenright,
asterisk,
plus,
comma,
hyphen,
period,
slash,
zero,
one,
two,
three,
four,
five,
six,
seven,
eight,
nine,
colon,
semicolon,
less,
equal,
greater,
question,
at,
A,
B,
C,
D,
E,
F,
G,
H,
I,
J,
K,
L,
M,
N,
O,
P,
Q,
R,
S,
T,
U,
V,
W,
X,
Y,
Z,
bracketleft,
backslash,
bracketright,
asciicircum,
underscore,
grave,
a,
b,
c,
d,
e,
f,
g,
h,
i,
j,
k,
l,
m,
n,
o,
p,
q,
r,
s,
t,
u,
v,
w,
x,
y,
z,
braceleft,
bar,
braceright,
asciitilde,
exclamdown,
brokenbar,
degree,
plusminus,
periodcentered,
questiondown,
multiply,
divide,
tilde,
K.ss01,
M.ss01,
Q.ss01,
R.ss01,
U.ss01,
a.ss01,
d.ss01,
f.ss01,
h.ss01,
i.ss01,
k.ss01,
l.ss01,
m.ss01,
n.ss01,

glyphs = (
{
glyphname = A;
layers = (
{
layerId = m002;
shapes = (
{
closed = 1;
nodes = (
(504,7,o),
(523,39,o),
(516,85,cs),
(416,729,ls),
(411,758,o),
(386,772,o),
(349,772,cs),
(306,772,o),
(292,757,o),
(279,728,cs),
(-6,94,ls),
(-24,54,o),
(-4,17,o),
(28,4,cs),
(61,-8,o),
(104,6,o),
(121,47,cs),
(222,286,l),
(357,286,l),
(385,68,ls),
(391,19,o),
(420,-5,o),
(465,2,cs)
);
},
{
closed = 1;
nodes = (
(425,10,o),
(404,26,o),
(399,70,cs),
(371,295,ls),
(371,297,o),
(369,300,o),
(366,300,cs),
(217,300,ls),
(213,300,o),
(211,297,o),
(210,294,cs),
(108,52,ls),
(94,18,o),
(61,8,o),
(33,18,cs),
(6,29,o),
(-7,56,o),
(7,88,cs),
(292,723,ls),
(304,749,o),
(313,760,o),
(349,760,cs),
(381,760,o),
(398,749,o),
(402,726,cs),
(502,83,ls),
(508,43,o),
(495,20,o),
(462,15,cs)
);
},
{
closed = 1;
nodes = (
(326,534,l),
(343,402,l),
(271,402,l)
);
},
{
closed = 1;
nodes = (
(353,388,ls),
(356,388,o),
(357,390,o),
(357,392,cs),
(335,571,ls),
(335,573,o),
(333,574,o),
(330,574,cs),
(327,574,o),
(326,573,o),
(325,571,cs),
(249,392,ls),
(248,389,o),
(250,388,o),
(254,388,cs)
);
}
);
vertWidth = 0;
width = 582;
},
{
layerId = m003;
shapes = (
{
closed = 1;
nodes = (
(504,7,o),
(523,39,o),
(516,85,cs),
(416,729,ls),
(411,758,o),
(386,774,o),
(349,774,cs),
(306,774,o),
(292,757,o),
(279,728,cs),
(-6,94,ls),
(-24,54,o),
(-4,17,o),
(28,4,cs),
(61,-8,o),
(104,6,o),
(121,47,cs),
(222,286,l),
(357,286,l),
(385,68,ls),
(391,19,o),
(420,-5,o),
(465,2,cs)
);
},
{
closed = 1;
nodes = (
(435,32,o),
(428,37,o),
(424,72,cs),
(395,300,ls),
(393,314,o),
(380,320,o),
(367,320,cs),
(216,320,ls),
(202,320,o),
(192,315,o),
(188,305,cs),
(85,60,ls),
(74,34,o),
(60,30,o),
(42,36,cs),
(27,43,o),
(20,57,o),
(30,80,cs),
(315,715,ls),
(323,733,o),
(329,740,o),
(349,740,cs),
(369,740,o),
(375,733,o),
(377,722,cs),
(477,81,ls),
(482,47,o),
(476,38,o),
(459,35,cs)
);
},
{
closed = 1;
nodes = (
(326,534,l),
(343,402,l),
(271,402,l)
);
},
{
closed = 1;
nodes = (
(357,368,ls),
(371,368,o),
(385,375,o),
(383,391,cs),
(360,572,ls),
(358,586,o),
(347,594,o),
(333,594,cs),
(320,594,o),
(307,589,o),
(302,578,cs),
(226,396,ls),
(218,378,o),
(232,368,o),
(250,368,cs)
);
}
);
vertWidth = 0;
width = 582;
},
{
layerId = m004;
shapes = (
{
closed = 1;
nodes = (
(504,7,o),
(523,39,o),
(516,85,cs),
(416,729,ls),
(411,758,o),
(386,773,o),
(349,773,cs),
(306,773,o),
(292,757,o),
(279,728,cs),
(-6,94,ls),
(-24,54,o),
(-4,17,o),
(28,4,cs),
(61,-8,o),
(104,6,o),
(121,47,cs),
(222,286,l),
(357,286,l),
(385,68,ls),
(391,19,o),
(420,-5,o),
(465,2,cs)
);
},
{
closed = 1;
nodes = (
(429,21,o),
(414,33,o),
(409,71,cs),
(380,299,ls),
(379,306,o),
(375,310,o),
(367,310,cs),
(216,310,ls),
(209,310,o),
(204,307,o),
(202,301,cs),
(99,56,ls),
(87,27,o),
(60,19,o),
(37,27,cs),
(15,36,o),
(4,57,o),
(16,84,cs),
(301,719,ls),
(312,743,o),
(318,750,o),
(349,750,cs),
(377,750,o),
(389,742,o),
(392,724,cs),
(492,82,ls),
(498,46,o),
(487,29,o),
(461,25,cs)
);
},
{
closed = 1;
nodes = (
(326,534,l),
(343,402,l),
(271,402,l)
);
},
{
closed = 1;
nodes = (
(357,378,ls),
(365,378,o),
(369,383,o),
(368,391,cs),
(345,572,ls),
(344,579,o),
(341,584,o),
(332,584,cs),
(324,584,o),
(320,583,o),
(317,576,cs),
(240,392,ls),
(236,383,o),
(240,378,o),
(250,378,cs)
);
}
);
vertWidth = 0;
width = 582;
}
);
unicode = 65;
},
{
glyphname = B;
kernLeft = H_left;
layers = (
{
layerId = m002;
shapes = (
{
closed = 1;
nodes = (
(404,0,o),
(585,83,o),
(601,222,cs),
(610,302,o),
(569,363,o),
(490,401,c),
(573,441,o),
(592,501,o),
(602,570,cs),
(622,708,o),
(471,772,o),
(201,772,cs),
(158,772,o),
(132,763,o),
(126,708,cs),
(58,76,ls),
(53,34,o),
(82,0,o),
(125,0,cs)
);
},
{
closed = 1;
nodes = (
(372,131,o),
(464,174,o),
(472,238,cs),
(481,306,o),
(385,343,o),
(212,343,cs),
(210,343,o),
(208,341,o),
(208,340,cs),
(185,126,ls),
(185,124,o),
(185,124,o),
(188,124,cs)
);
},
{
closed = 1;
nodes = (
(221,328,l),
(384,331,o),
(465,294,o),
(458,240,cs),
(451,187,o),
(370,147,o),
(201,139,c)
);
},
{
closed = 1;
nodes = (
(89,15,o),
(68,39,o),
(72,74,cs),
(140,707,ls),
(145,753,o),
(162,758,o),
(201,758,cs),
(464,758,o),
(606,700,o),
(588,572,cs),
(578,500,o),
(559,444,o),
(468,407,cs),
(464,405,o),
(464,403,o),
(464,401,cs),
(464,398,o),
(464,396,o),
(468,394,cs),
(554,360,o),
(595,303,o),
(587,223,cs),
(571,92,o),
(398,15,o),
(125,15,cs)
);
},
{
closed = 1;
nodes = (
(227,429,ls),
(433,429,o),
(467,486,o),
(476,547,cs),
(483,609,o),
(411,660,o),
(244,662,cs),
(241,662,o),
(241,662,o),
(241,659,cs),
(218,434,ls),
(218,432,o),
(219,429,o),
(222,429,cs)
);
},
{
closed = 1;
nodes = (
(254,647,l),
(403,644,o),
(468,599,o),
(462,549,cs),
(455,496,o),
(414,444,o),
(233,444,c)
);
}
);
vertWidth = 0;
width = 651;
},
{
layerId = m003;
shapes = (
{
closed = 1;
nodes = (
(404,1,o),
(585,83,o),
(601,222,cs),
(610,302,o),
(569,363,o),
(490,401,c),
(573,441,o),
(592,501,o),
(602,570,cs),
(622,708,o),
(471,774,o),
(201,774,cs),
(158,774,o),
(132,763,o),
(126,708,cs),
(58,76,ls),
(53,34,o),
(82,1,o),
(125,1,cs)
);
},
{
closed = 1;
nodes = (
(380,111,o),
(487,161,o),
(497,236,cs),
(508,319,o),
(393,363,o),
(210,363,cs),
(195,363,o),
(184,355,o),
(183,342,cs),
(160,128,ls),
(158,111,o),
(173,104,o),
(188,104,cs)
);
},
{
closed = 1;
nodes = (
(221,328,l),
(384,328,o),
(465,294,o),
(458,240,cs),
(451,187,o),
(370,147,o),
(201,139,c)
);
},
{
closed = 1;
nodes = (
(103,36,o),
(94,46,o),
(97,72,cs),
(165,705,ls),
(168,732,o),
(173,740,o),
(201,740,cs),
(459,740,o),
(579,688,o),
(563,574,cs),
(553,504,o),
(538,457,o),
(458,425,cs),
(447,421,o),
(439,415,o),
(439,401,cs),
(439,386,o),
(447,380,o),
(458,376,cs),
(536,345,o),
(570,297,o),
(562,225,cs),
(548,106,o),
(392,36,o),
(125,36,cs)
);
},
{
closed = 1;
nodes = (
(223,409,ls),
(450,409,o),
(492,480,o),
(501,545,cs),
(510,619,o),
(422,682,o),
(244,682,cs),
(231,682,o),
(218,676,o),
(216,661,cs),
(193,433,ls),
(191,414,o),
(204,409,o),
(211,409,cs)
);
},
{
closed = 1;
nodes = (
(254,647,l),
(406,647,o),
(468,599,o),
(462,549,cs),
(455,496,o),
(425,444,o),
(233,444,c)
);
}
);
vertWidth = 0;
width = 651;
},
{
layerId = m004;
shapes = (
{
closed = 1;
nodes = (
(404,0,o),
(585,83,o),
(601,222,cs),
(610,302,o),
(569,363,o),
(490,401,c),
(573,441,o),
(592,501,o),
(602,570,cs),
(622,708,o),
(471,774,o),
(201,774,cs),
(158,774,o),
(132,763,o),
(126,708,cs),
(58,76,ls),
(53,34,o),
(82,0,o),
(125,0,cs)
);
},
{
closed = 1;
nodes = (
(374,121,o),
(473,167,o),
(482,237,cs),
(492,312,o),
(387,356,o),
(211,353,cs),
(203,352,o),
(199,348,o),
(198,341,cs),
(175,127,ls),
(174,118,o),
(179,114,o),
(188,114,cs)
);
},
{
closed = 1;
nodes = (
(221,328,l),
(384,331,o),
(465,294,o),
(458,240,cs),
(451,187,o),
(370,147,o),
(201,139,c)
);
},
{
closed = 1;
nodes = (
(95,25,o),
(79,44,o),
(82,73,cs),
(150,706,ls),
(154,745,o),
(165,750,o),
(201,750,cs),
(463,750,o),
(595,693,o),
(578,573,cs),
(568,503,o),
(551,451,o),
(464,416,cs),
(457,413,o),
(454,409,o),
(454,401,cs),
(454,392,o),
(457,388,o),
(464,385,cs),
(547,352,o),
(585,299,o),
(577,224,cs),
(562,101,o),
(396,25,o),
(125,25,cs)
);
},
{
closed = 1;
nodes = (
(223,419,ls),
(439,419,o),
(477,483,o),
(486,546,cs),
(494,614,o),
(414,670,o),
(244,672,cs),
(236,672,o),
(232,668,o),
(231,660,cs),
(208,432,ls),
(207,424,o),
(209,419,o),
(215,419,cs)
);
},
{
closed = 1;
nodes = (
(254,647,l),
(406,644,o),
(468,599,o),
(462,549,cs),
(455,496,o),
(425,456,o),
(233,444,c)
);
}
);
vertWidth = 0;
width = 651;
}
);
unicode = 66;
},
{
glyphname = C;
kernLeft = O_left;
layers = (
{
layerId = m002;
shapes = (
{
closed = 1;
nodes = (
(405,-5,o),
(505,65,o),
(546,140,cs),
(575,195,o),
(554,240,o),
(521,257,cs),
(485,276,o),
(452,261,o),
(436,225,cs),
(409,171,o),
(359,121,o),
(276,121,cs),
(198,121,o),
(167,201,o),
(191,391,cs),
(211,557,o),
(276,644,o),
(394,644,cs),
(436,644,o),
(477,623,o),
(503,607,cs),
(529,591,o),
(572,585,o),
(594,624,cs),
(616,665,o),
(600,706,o),
(574,724,cs),
(544,747,o),
(458,772,o),
(386,772,cs),
(200,772,o),
(86,649,o),
(50,408,cs),
(14,159,o),
(89,-5,o),
(274,-5,cs)
);
},
{
closed = 1;
nodes = (
(99,9,o),
(28,161,o),
(64,406,cs),
(100,642,o),
(205,758,o),
(386,758,cs),
(457,758,o),
(537,734,o),
(566,713,cs),
(587,697,o),
(601,666,o),
(582,631,cs),
(562,600,o),
(533,606,o),
(511,619,cs),
(486,634,o),
(439,659,o),
(394,659,cs),
(267,659,o),
(198,564,o),
(177,393,cs),
(152,197,o),
(186,106,o),
(276,106,cs),
(366,106,o),
(421,162,o),
(449,219,cs),
(462,250,o),
(485,260,o),
(515,245,cs),
(544,229,o),
(559,194,o),
(533,146,cs),
(494,75,o),
(400,9,o),
(274,9,cs)
);
}
);
vertWidth = 0;
width = 613;
},
{
layerId = m003;
shapes = (
{
closed = 1;
nodes = (
(405,-5,o),
(505,65,o),
(546,140,cs),
(575,195,o),
(554,240,o),
(521,257,cs),
(485,276,o),
(452,261,o),
(436,225,cs),
(409,171,o),
(359,121,o),
(276,121,cs),
(198,121,o),
(167,201,o),
(191,391,cs),
(211,557,o),
(276,644,o),
(394,644,cs),
(436,644,o),
(481,622,o),
(504,606,cs),
(521,594,o),
(569,589,o),
(591,628,cs),
(613,669,o),
(600,706,o),
(574,724,cs),
(544,747,o),
(458,772,o),
(386,772,cs),
(200,772,o),
(86,649,o),
(50,408,cs),
(14,159,o),
(89,-5,o),
(274,-5,cs)
);
},
{
closed = 1;
nodes = (
(117,29,o),
(54,167,o),
(89,404,cs),
(124,633,o),
(219,738,o),
(386,738,cs),
(452,738,o),
(524,717,o),
(551,697,cs),
(565,686,o),
(574,669,o),
(564,649,cs),
(554,629,o),
(536,627,o),
(519,637,cs),
(501,648,o),
(447,679,o),
(394,679,cs),
(252,679,o),
(174,573,o),
(152,395,cs),
(127,193,o),
(165,86,o),
(276,86,cs),
(378,86,o),
(443,150,o),
(472,211,cs),
(483,234,o),
(497,232,o),
(511,224,cs),
(527,215,o),
(532,194,o),
(511,156,cs),
(474,88,o),
(390,29,o),
(274,29,cs)
);
}
);
vertWidth = 0;
width = 613;
},
{
layerId = m004;
shapes = (
{
closed = 1;
nodes = (
(405,-5,o),
(505,65,o),
(546,140,cs),
(575,195,o),
(554,240,o),
(521,257,cs),
(485,276,o),
(452,261,o),
(436,225,cs),
(409,171,o),
(359,121,o),
(276,121,cs),
(198,121,o),
(167,201,o),
(191,391,cs),
(211,557,o),
(276,644,o),
(394,644,cs),
(436,644,o),
(480,619,o),
(504,602,cs),
(534,581,o),
(572,585,o),
(594,624,cs),
(616,665,o),
(600,706,o),
(574,724,cs),
(544,747,o),
(458,772,o),
(386,772,cs),
(200,772,o),
(86,649,o),
(50,408,cs),
(14,159,o),
(89,-5,o),
(274,-5,cs)
);
},
{
closed = 1;
nodes = (
(106,19,o),
(39,166,o),
(74,405,cs),
(109,636,o),
(211,748,o),
(386,748,cs),
(455,748,o),
(533,725,o),
(560,705,cs),
(579,691,o),
(589,666,o),
(573,636,cs),
(557,610,o),
(534,611,o),
(518,622,cs),
(491,641,o),
(442,669,o),
(394,669,cs),
(262,669,o),
(188,568,o),
(167,394,cs),
(142,196,o),
(179,96,o),
(276,96,cs),
(370,96,o),
(429,156,o),
(458,215,cs),
(469,241,o),
(486,248,o),
(510,236,cs),
(534,223,o),
(548,194,o),
(524,151,cs),
(487,83,o),
(396,19,o),
(274,19,cs)
);
}
);
vertWidth = 0;
width = 613;
}
);
unicode = 67;
},
{
glyphname = D;
kernLeft = H_left;
kernRight = O_right;
layers = (
{
layerId = m002;
shapes = (
{
closed = 1;
nodes = (
(215,0,ls),
(444,0,o),
(594,154,o),
(620,398,cs),
(642,621,o),
(505,772,o),
(277,772,cs),
(195,772,ls),
(153,772,o),
(131,752,o),
(127,715,cs),
(59,70,ls),
(55,31,o),
(85,0,o),
(126,0,cs)
);
},
{
closed = 1;
nodes = (
(92,15,o),
(70,37,o),
(73,69,cs),
(141,713,ls),
(144,745,o),
(159,758,o),
(196,758,cs),
(277,758,ls),
(499,758,o),
(627,616,o),
(606,400,cs),
(580,160,o),
(437,15,o),
(215,15,cs),
(127,15,ls)
);
},
{
closed = 1;
nodes = (
(208,113,ls),
(374,113,o),
(480,210,o),
(498,403,cs),
(514,579,o),
(421,663,o),
(264,663,cs),
(249,663,o),
(246,660,o),
(246,657,cs),
(191,120,ls),
(190,115,o),
(192,113,o),
(197,113,cs)
);
},
{
closed = 1;
nodes = (
(261,648,l),
(411,648,o),
(499,571,o),
(484,405,cs),
(467,218,o),
(354,127,o),
(225,127,cs),
(206,127,l)
);
}
);
vertWidth = 0;
width = 667;
},
{
layerId = m003;
shapes = (
{
closed = 1;
nodes = (
(215,0,ls),
(444,0,o),
(594,154,o),
(620,398,cs),
(642,621,o),
(505,772,o),
(277,772,cs),
(195,772,ls),
(153,772,o),
(131,752,o),
(127,715,cs),
(59,70,ls),
(55,31,o),
(85,0,o),
(126,0,cs)
);
},
{
closed = 1;
nodes = (
(105,35,o),
(96,45,o),
(98,67,cs),
(166,711,ls),
(168,734,o),
(174,738,o),
(196,738,cs),
(277,738,ls),
(485,738,o),
(601,609,o),
(581,402,cs),
(556,169,o),
(424,35,o),
(215,35,cs),
(127,35,ls)
);
},
{
closed = 1;
nodes = (
(208,93,ls),
(387,93,o),
(505,200,o),
(523,401,cs),
(540,593,o),
(428,683,o),
(264,683,cs),
(228,683,o),
(223,676,o),
(222,662,cs),
(165,117,ls),
(163,101,o),
(178,93,o),
(192,93,cs)
);
},
{
closed = 1;
nodes = (
(261,648,l),
(411,648,o),
(499,571,o),
(484,405,cs),
(467,218,o),
(354,127,o),
(225,127,cs),
(206,127,l)
);
}
);
vertWidth = 0;
width = 667;
},
{
layerId = m004;
shapes = (
{
closed = 1;
nodes = (
(215,0,ls),
(444,0,o),
(594,154,o),
(620,398,cs),
(642,621,o),
(505,772,o),
(277,772,cs),
(195,772,ls),
(153,772,o),
(131,752,o),
(127,715,cs),
(59,70,ls),
(55,31,o),
(85,0,o),
(126,0,cs)
);
},
{
closed = 1;
nodes = (
(98,25,o),
(80,42,o),
(83,68,cs),
(151,712,ls),
(154,739,o),
(164,748,o),
(196,748,cs),
(277,748,ls),
(493,748,o),
(616,611,o),
(596,401,cs),
(571,166,o),
(432,25,o),
(215,25,cs),
(127,25,ls)
);
},
{
closed = 1;
nodes = (
(208,103,ls),
(378,103,o),
(490,205,o),
(508,402,cs),
(524,583,o),
(425,673,o),
(264,673,cs),
(243,672,o),
(238,669,o),
(237,661,cs),
(180,116,ls),
(179,108,o),
(184,103,o),
(192,103,cs)
);
},
{
closed = 1;
nodes = (
(261,648,l),
(411,648,o),
(499,571,o),
(484,405,cs),
(467,218,o),
(354,127,o),
(225,127,cs),
(206,127,l)
);
}
);
vertWidth = 0;
width = 667;
}
);
unicode = 68;
},
{
glyphname = E;
kernLeft = H_left;
layers = (
{
layerId = m002;
shapes = (
{
closed = 1;
nodes = (
(500,0,ls),
(543,0,o),
(566,37,o),
(566,73,cs),
(566,106,o),
(540,134,o),
(496,134,cs),
(206,134,l),
(227,332,l),
(504,332,ls),
(548,332,o),
(574,360,o),
(574,394,cs),
(574,432,o),
(543,454,o),
(503,454,cs),
(240,454,l),
(260,640,l),
(568,640,ls),
(611,640,o),
(635,675,o),
(635,711,cs),
(635,747,o),
(606,772,o),
(564,772,cs),
(198,772,ls),
(156,772,o),
(131,756,o),
(127,718,cs),
(59,71,ls),
(55,33,o),
(74,0,o),
(124,0,cs)
);
},
{
closed = 1;
nodes = (
(83,15,o),
(69,36,o),
(73,70,cs),
(141,716,ls),
(144,749,o),
(162,758,o),
(198,758,cs),
(564,758,ls),
(600,758,o),
(621,741,o),
(621,711,cs),
(621,681,o),
(597,654,o),
(568,654,cs),
(260,654,ls),
(250,654,o),
(246,649,o),
(245,640,cs),
(226,455,ls),
(225,445,o),
(229,440,o),
(240,440,cs),
(503,440,ls),
(537,440,o),
(560,424,o),
(560,394,cs),
(560,366,o),
(542,346,o),
(504,346,cs),
(227,346,ls),
(219,346,o),
(213,339,o),
(212,332,cs),
(191,134,ls),
(190,125,o),
(195,120,o),
(206,120,cs),
(496,120,ls),
(533,120,o),
(552,101,o),
(552,73,cs),
(552,42,o),
(535,15,o),
(500,15,cs),
(124,15,ls)
);
}
);
vertWidth = 0;
width = 638;
},
{
layerId = m003;
shapes = (
{
closed = 1;
nodes = (
(500,1,ls),
(543,1,o),
(566,38,o),
(566,74,cs),
(566,107,o),
(540,135,o),
(496,135,cs),
(206,135,l),
(227,333,l),
(504,333,ls),
(548,333,o),
(574,361,o),
(574,395,cs),
(574,433,o),
(543,455,o),
(503,455,cs),
(240,455,l),
(260,641,l),
(568,641,ls),
(611,641,o),
(635,676,o),
(635,712,cs),
(635,748,o),
(606,772,o),
(564,772,cs),
(198,772,ls),
(156,772,o),
(131,757,o),
(127,719,cs),
(59,72,ls),
(55,34,o),
(74,1,o),
(124,1,cs)
);
},
{
closed = 1;
nodes = (
(102,36,o),
(95,44,o),
(98,69,cs),
(166,715,ls),
(168,731,o),
(175,738,o),
(198,738,cs),
(564,738,ls),
(588,738,o),
(596,730,o),
(596,712,cs),
(596,688,o),
(587,675,o),
(568,675,cs),
(249,675,ls),
(236,675,o),
(224,668,o),
(222,654,cs),
(199,444,ls),
(197,428,o),
(212,421,o),
(226,421,cs),
(503,421,ls),
(527,421,o),
(535,415,o),
(535,395,cs),
(535,375,o),
(528,367,o),
(504,367,cs),
(216,367,ls),
(203,367,o),
(191,360,o),
(189,346,cs),
(165,125,ls),
(163,108,o),
(178,101,o),
(192,101,cs),
(496,101,ls),
(520,101,o),
(527,93,o),
(527,74,cs),
(527,49,o),
(518,36,o),
(500,36,cs),
(124,36,ls)
);
}
);
vertWidth = 0;
width = 638;
},
{
layerId = m004;
shapes = (
{
closed = 1;
nodes = (
(500,0,ls),
(543,0,o),
(566,37,o),
(566,73,cs),
(566,106,o),
(540,134,o),
(496,134,cs),
(206,134,l),
(227,332,l),
(504,332,ls),
(548,332,o),
(574,360,o),
(574,394,cs),
(574,432,o),
(543,454,o),
(503,454,cs),
(240,454,l),
(260,640,l),
(568,640,ls),
(611,640,o),
(635,675,o),
(635,711,cs),
(635,747,o),
(606,772,o),
(564,772,cs),
(198,772,ls),
(156,772,o),
(131,756,o),
(127,718,cs),
(59,71,ls),
(55,33,o),
(74,0,o),
(124,0,cs)
);
},
{
closed = 1;
nodes = (
(90,25,o),
(80,40,o),
(83,69,cs),
(151,715,ls),
(154,742,o),
(166,749,o),
(198,749,cs),
(564,749,ls),
(595,749,o),
(611,735,o),
(611,711,cs),
(611,685,o),
(596,664,o),
(568,664,cs),
(249,664,ls),
(242,664,o),
(238,660,o),
(237,653,cs),
(214,443,ls),
(213,435,o),
(218,430,o),
(226,430,cs),
(503,430,ls),
(533,430,o),
(550,418,o),
(550,394,cs),
(550,371,o),
(536,356,o),
(504,356,cs),
(216,356,ls),
(209,356,o),
(205,352,o),
(204,345,cs),
(180,123,ls),
(179,114,o),
(184,110,o),
(192,110,cs),
(496,110,ls),
(528,110,o),
(542,95,o),
(542,73,cs),
(542,46,o),
(528,25,o),
(500,25,cs),
(124,25,ls)
);
}
);
vertWidth = 0;
width = 638;
}
);
unicode = 69;
},
{
glyphname = F;
kernLeft = H_left;
layers = (
{
layerId = m002;
shapes = (
{
closed = 1;
nodes = (
(171,0,o),
(195,30,o),
(199,71,cs),
(227,335,l),
(518,335,ls),
(563,335,o),
(584,363,o),
(584,397,cs),
(584,433,o),
(553,457,o),
(513,457,cs),
(240,457,l),
(260,640,l),
(580,640,ls),
(622,640,o),
(652,668,o),
(652,709,cs),
(652,748,o),
(622,772,o),
(579,772,cs),
(201,772,l),
(156,774,o),
(131,758,o),
(127,717,cs),
(59,76,ls),
(55,39,o),
(75,0,o),
(117,0,cs)
);
},
{
closed = 1;
nodes = (
(83,15,o),
(70,43,o),
(73,74,cs),
(141,715,ls),
(144,746,o),
(159,758,o),
(191,758,cs),
(579,758,ls),
(616,758,o),
(638,741,o),
(638,709,cs),
(638,674,o),
(616,654,o),
(580,654,cs),
(260,654,ls),
(252,654,o),
(246,649,o),
(245,640,cs),
(225,457,ls),
(224,448,o),
(230,443,o),
(240,443,cs),
(513,443,ls),
(548,443,o),
(570,426,o),
(570,397,cs),
(570,368,o),
(555,349,o),
(518,349,cs),
(227,349,ls),
(219,349,o),
(214,344,o),
(213,335,cs),
(185,72,ls),
(181,37,o),
(164,15,o),
(117,15,cs)
);
}
);
vertWidth = 0;
width = 654;
},
{
layerId = m003;
shapes = (
{
closed = 1;
nodes = (
(171,1,o),
(195,31,o),
(199,72,cs),
(227,336,l),
(518,336,ls),
(563,336,o),
(584,364,o),
(584,398,cs),
(584,434,o),
(553,458,o),
(513,458,cs),
(240,458,l),
(260,641,l),
(580,641,ls),
(622,641,o),
(652,669,o),
(652,710,cs),
(652,749,o),
(622,772,o),
(579,772,cs),
(201,772,ls),
(156,772,o),
(131,759,o),
(127,718,cs),
(59,77,ls),
(55,40,o),
(75,1,o),
(117,1,cs)
);
},
{
closed = 1;
nodes = (
(102,36,o),
(95,48,o),
(98,73,cs),
(166,714,ls),
(168,734,o),
(175,738,o),
(191,738,cs),
(579,738,ls),
(604,738,o),
(613,733,o),
(613,710,cs),
(613,684,o),
(604,675,o),
(580,675,cs),
(249,675,ls),
(236,675,o),
(224,668,o),
(222,654,cs),
(199,447,ls),
(197,431,o),
(212,424,o),
(226,424,cs),
(513,424,ls),
(537,424,o),
(545,418,o),
(545,398,cs),
(545,376,o),
(540,370,o),
(518,370,cs),
(216,370,ls),
(203,370,o),
(190,363,o),
(189,349,cs),
(160,75,ls),
(157,45,o),
(149,36,o),
(117,36,cs)
);
}
);
vertWidth = 0;
width = 654;
},
{
layerId = m004;
shapes = (
{
closed = 1;
nodes = (
(171,0,o),
(195,30,o),
(199,71,cs),
(227,335,l),
(518,335,ls),
(563,335,o),
(584,363,o),
(584,397,cs),
(584,433,o),
(553,457,o),
(513,457,cs),
(240,457,l),
(260,640,l),
(580,640,ls),
(622,640,o),
(652,668,o),
(652,709,cs),
(652,748,o),
(622,772,o),
(579,772,cs),
(201,772,ls),
(156,774,o),
(131,758,o),
(127,717,cs),
(59,76,ls),
(55,39,o),
(75,0,o),
(117,0,cs)
);
},
{
closed = 1;
nodes = (
(91,25,o),
(80,46,o),
(83,73,cs),
(151,714,ls),
(154,740,o),
(164,748,o),
(191,748,cs),
(579,748,ls),
(611,748,o),
(628,735,o),
(628,709,cs),
(628,680,o),
(611,664,o),
(580,664,cs),
(249,664,ls),
(242,664,o),
(238,660,o),
(237,653,cs),
(214,446,ls),
(213,438,o),
(218,433,o),
(226,433,cs),
(513,433,ls),
(543,433,o),
(560,420,o),
(560,397,cs),
(560,373,o),
(549,359,o),
(518,359,cs),
(216,359,ls),
(209,359,o),
(205,355,o),
(204,348,cs),
(175,73,ls),
(172,42,o),
(158,25,o),
(117,25,cs)
);
}
);
vertWidth = 0;
width = 654;
}
);
unicode = 70;
},
{
glyphname = G;
kernLeft = O_left;
layers = (
{
layerId = m002;
shapes = (
{
closed = 1;
nodes = (
(300,-4,o),
(361,56,o),
(411,133,c),
(404,70,ls),
(399,26,o),
(431,0,o),
(477,0,cs),
(525,0,o),
(541,28,o),
(544,60,cs),
(578,380,ls),
(583,424,o),
(552,451,o),
(510,451,cs),
(458,451,o),
(450,434,o),
(390,331,cs),
(356,269,o),
(269,123,o),
(231,123,cs),
(183,123,o),
(166,210,o),
(188,390,cs),
(206,542,o),
(241,644,o),
(363,644,cs),
(416,644,o),
(444,630,o),
(454,604,cs),
(471,564,o),
(502,547,o),
(546,559,cs),
(586,569,o),
(595,611,o),
(586,643,cs),
(563,732,o),
(472,773,o),
(363,773,cs),
(171,773,o),
(80,630,o),
(48,408,cs),
(12,170,o),
(47,-4,o),
(223,-4,cs)
);
},
{
closed = 1;
nodes = (
(59,10,o),
(27,172,o),
(62,406,cs),
(94,625,o),
(179,759,o),
(363,759,cs),
(468,759,o),
(551,722,o),
(573,640,cs),
(581,611,o),
(575,581,o),
(542,573,cs),
(504,563,o),
(482,575,o),
(467,610,cs),
(455,641,o),
(421,659,o),
(363,659,cs),
(230,659,o),
(193,546,o),
(174,392,cs),
(151,206,o),
(169,108,o),
(231,108,cs),
(279,108,o),
(368,262,o),
(403,324,cs),
(463,428,o),
(468,437,o),
(510,437,cs),
(547,437,o),
(568,418,o),
(564,381,cs),
(530,61,ls),
(527,32,o),
(515,15,o),
(477,15,cs),
(436,15,o),
(415,32,o),
(419,69,cs),
(429,174,ls),
(429,177,o),
(428,179,o),
(426,179,cs),
(424,179,o),
(422,178,o),
(421,176,cs),
(368,85,o),
(305,10,o),
(223,10,cs)
);
}
);
vertWidth = 0;
width = 643;
},
{
layerId = m003;
shapes = (
{
closed = 1;
nodes = (
(300,-3,o),
(361,57,o),
(411,134,c),
(404,71,ls),
(399,27,o),
(431,1,o),
(477,1,cs),
(525,1,o),
(541,29,o),
(544,61,cs),
(578,381,ls),
(583,425,o),
(552,452,o),
(510,452,cs),
(458,452,o),
(450,435,o),
(390,332,cs),
(356,270,o),
(269,124,o),
(231,124,cs),
(183,124,o),
(166,211,o),
(188,391,cs),
(206,543,o),
(241,645,o),
(363,645,cs),
(416,645,o),
(444,631,o),
(454,605,cs),
(471,565,o),
(502,548,o),
(546,560,cs),
(586,570,o),
(595,612,o),
(586,644,cs),
(563,733,o),
(472,774,o),
(363,774,cs),
(171,774,o),
(80,631,o),
(48,409,cs),
(12,171,o),
(47,-3,o),
(223,-3,cs)
);
},
{
closed = 1;
nodes = (
(81,31,o),
(52,174,o),
(87,405,cs),
(118,619,o),
(195,740,o),
(363,740,cs),
(461,740,o),
(529,709,o),
(549,635,cs),
(555,613,o),
(551,597,o),
(536,594,cs),
(508,586,o),
(502,590,o),
(490,619,cs),
(476,656,o),
(430,680,o),
(363,680,cs),
(210,680,o),
(168,551,o),
(149,395,cs),
(126,204,o),
(145,89,o),
(231,89,cs),
(299,89,o),
(391,255,o),
(425,315,cs),
(486,421,o),
(485,418,o),
(510,418,cs),
(534,418,o),
(542,410,o),
(539,384,cs),
(505,64,ls),
(502,40,o),
(499,36,o),
(477,36,cs),
(448,36,o),
(441,42,o),
(444,68,cs),
(454,173,ls),
(456,187,o),
(446,194,o),
(434,198,cs),
(422,202,o),
(406,199,o),
(399,187,cs),
(346,96,o),
(292,31,o),
(223,31,cs)
);
}
);
vertWidth = 0;
width = 643;
},
{
layerId = m004;
shapes = (
{
closed = 1;
nodes = (
(300,-3,o),
(361,57,o),
(411,134,c),
(404,71,ls),
(399,27,o),
(431,1,o),
(477,1,cs),
(525,1,o),
(541,29,o),
(544,61,cs),
(578,381,ls),
(583,425,o),
(552,452,o),
(510,452,cs),
(458,452,o),
(450,435,o),
(390,332,cs),
(356,270,o),
(269,124,o),
(231,124,cs),
(183,124,o),
(166,211,o),
(188,391,cs),
(206,543,o),
(241,645,o),
(363,645,cs),
(416,645,o),
(444,631,o),
(454,605,cs),
(471,565,o),
(502,548,o),
(546,560,cs),
(586,570,o),
(595,612,o),
(586,644,cs),
(563,733,o),
(472,774,o),
(363,774,cs),
(171,774,o),
(80,631,o),
(48,409,cs),
(12,171,o),
(47,-3,o),
(223,-3,cs)
);
},
{
closed = 1;
nodes = (
(68,21,o),
(37,174,o),
(72,406,cs),
(103,621,o),
(185,750,o),
(363,750,cs),
(465,750,o),
(543,715,o),
(563,638,cs),
(570,613,o),
(565,590,o),
(540,584,cs),
(506,575,o),
(489,584,o),
(476,615,cs),
(463,649,o),
(424,670,o),
(363,670,cs),
(223,670,o),
(183,549,o),
(164,394,cs),
(141,207,o),
(161,99,o),
(231,99,cs),
(285,99,o),
(377,258,o),
(412,320,cs),
(472,424,o),
(474,428,o),
(510,428,cs),
(541,428,o),
(557,413,o),
(554,383,cs),
(520,63,ls),
(517,38,o),
(509,26,o),
(477,26,cs),
(441,26,o),
(426,39,o),
(429,69,cs),
(439,174,ls),
(440,181,o),
(437,186,o),
(430,188,cs),
(421,191,o),
(416,189,o),
(412,182,cs),
(360,92,o),
(300,21,o),
(223,21,cs)
);
}
);
vertWidth = 0;
width = 643;
}
);
unicode = 71;
},
{
glyphname = H;
kernLeft = H_left;
kernRight = H_right;
layers = (
{
layerId = m002;
shapes = (
{
closed = 1;
nodes = (
(175,0,o),
(196,29,o),
(199,58,cs),
(228,337,l),
(473,337,l),
(445,70,ls),
(441,30,o),
(467,0,o),
(513,0,cs),
(553,0,o),
(581,24,o),
(584,54,cs),
(652,702,ls),
(657,747,o),
(626,772,o),
(583,772,cs),
(546,772,o),
(516,752,o),
(513,720,cs),
(485,453,l),
(240,453,l),
(265,699,ls),
(270,747,o),
(243,772,o),
(203,772,cs),
(168,772,o),
(130,756,o),
(126,715,cs),
(59,70,ls),
(55,30,o),
(86,0,o),
(129,0,cs)
);
},
{
closed = 1;
nodes = (
(92,15,o),
(69,35,o),
(73,69,cs),
(140,713,ls),
(144,747,o),
(172,759,o),
(203,759,cs),
(237,759,o),
(255,741,o),
(251,701,cs),
(225,453,ls),
(224,444,o),
(229,439,o),
(240,439,cs),
(485,439,ls),
(493,439,o),
(498,444,o),
(499,453,cs),
(527,718,ls),
(530,744,o),
(550,759,o),
(583,759,cs),
(620,759,o),
(642,741,o),
(638,703,cs),
(570,55,ls),
(568,32,o),
(547,15,o),
(513,15,cs),
(474,15,o),
(455,35,o),
(459,69,cs),
(487,337,ls),
(488,346,o),
(483,351,o),
(473,351,cs),
(228,351,ls),
(219,351,o),
(214,346,o),
(213,337,cs),
(185,59,ls),
(183,35,o),
(168,15,o),
(129,15,cs)
);
}
);
vertWidth = 0;
width = 714;
},
{
layerId = m003;
shapes = (
{
closed = 1;
nodes = (
(175,0,o),
(196,29,o),
(199,58,cs),
(228,337,l),
(473,337,l),
(445,70,ls),
(441,30,o),
(467,0,o),
(513,0,cs),
(553,0,o),
(581,24,o),
(584,54,cs),
(652,702,ls),
(657,747,o),
(626,772,o),
(583,772,cs),
(546,772,o),
(516,752,o),
(513,720,cs),
(485,453,l),
(240,453,l),
(265,699,ls),
(270,747,o),
(243,772,o),
(203,772,cs),
(168,772,o),
(130,756,o),
(126,715,cs),
(59,70,ls),
(55,30,o),
(86,0,o),
(129,0,cs)
);
},
{
closed = 1;
nodes = (
(105,35,o),
(96,44,o),
(98,67,cs),
(165,711,ls),
(167,734,o),
(179,739,o),
(203,739,cs),
(224,739,o),
(229,733,o),
(226,703,cs),
(199,443,ls),
(197,427,o),
(212,419,o),
(226,419,cs),
(496,419,ls),
(508,419,o),
(523,425,o),
(523,441,c),
(552,716,ls),
(554,733,o),
(562,739,o),
(583,739,cs),
(608,739,o),
(616,732,o),
(613,705,cs),
(545,57,ls),
(543,42,o),
(535,35,o),
(513,35,cs),
(488,35,o),
(481,42,o),
(484,67,cs),
(513,348,ls),
(515,364,o),
(501,371,o),
(487,371,cs),
(217,371,ls),
(206,371,o),
(190,365,o),
(189,351,cs),
(160,61,ls),
(158,42,o),
(153,35,o),
(129,35,cs)
);
}
);
vertWidth = 0;
width = 714;
},
{
layerId = m004;
shapes = (
{
closed = 1;
nodes = (
(175,0,o),
(196,29,o),
(199,58,cs),
(228,337,l),
(473,337,l),
(445,70,ls),
(441,30,o),
(467,0,o),
(513,0,cs),
(553,0,o),
(581,24,o),
(584,54,cs),
(652,702,ls),
(657,747,o),
(626,772,o),
(583,772,cs),
(546,772,o),
(516,752,o),
(513,720,cs),
(485,453,l),
(240,453,l),
(265,699,ls),
(270,747,o),
(243,772,o),
(203,772,cs),
(168,772,o),
(130,756,o),
(126,715,cs),
(59,70,ls),
(55,30,o),
(86,0,o),
(129,0,cs)
);
},
{
closed = 1;
nodes = (
(98,25,o),
(80,41,o),
(83,68,cs),
(150,712,ls),
(153,739,o),
(175,749,o),
(203,749,cs),
(231,749,o),
(245,736,o),
(241,702,cs),
(214,442,ls),
(213,434,o),
(218,429,o),
(226,429,cs),
(496,429,ls),
(503,429,o),
(507,433,o),
(508,441,cs),
(537,717,ls),
(539,737,o),
(555,749,o),
(583,749,cs),
(615,749,o),
(631,735,o),
(628,704,cs),
(560,56,ls),
(558,38,o),
(542,25,o),
(513,25,cs),
(480,25,o),
(466,40,o),
(469,68,cs),
(498,349,ls),
(499,357,o),
(495,361,o),
(487,361,cs),
(217,361,ls),
(210,361,o),
(205,357,o),
(204,350,cs),
(175,60,ls),
(173,40,o),
(162,25,o),
(129,25,cs)
);
}
);
vertWidth = 0;
width = 714;
}
);
unicode = 72;
},
{
glyphname = I;
layers = (
{
layerId = m002;
shapes = (
{
closed = 1;
nodes = (
(187,0,o),
(215,25,o),
(218,56,cs),
(286,698,ls),
(292,756,o),
(256,772,o),
(222,772,cs),
(182,772,o),
(152,755,o),
(148,715,cs),
(81,70,ls),
(77,31,o),
(99,0,o),
(142,0,cs)
);
},
{
closed = 1;
nodes = (
(107,15,o),
(92,36,o),
(95,68,cs),
(163,714,ls),
(166,747,o),
(187,759,o),
(222,759,cs),
(251,759,o),
(277,748,o),
(272,700,cs),
(204,57,ls),
(201,33,o),
(181,15,o),
(142,15,cs)
);
}
);
vertWidth = 0;
width = 373;
},
{
layerId = m003;
shapes = (
{
closed = 1;
nodes = (
(187,0,o),
(215,25,o),
(218,56,cs),
(286,698,ls),
(292,756,o),
(256,772,o),
(222,772,cs),
(182,772,o),
(152,755,o),
(148,715,cs),
(81,70,ls),
(77,31,o),
(99,0,o),
(142,0,cs)
);
},
{
closed = 1;
nodes = (
(122,35,o),
(117,42,o),
(120,66,cs),
(188,712,ls),
(190,735,o),
(196,739,o),
(222,739,cs),
(244,739,o),
(251,736,o),
(247,702,cs),
(179,59,ls),
(177,42,o),
(169,35,o),
(142,35,cs)
);
}
);
vertWidth = 0;
width = 373;
},
{
layerId = m004;
shapes = (
{
closed = 1;
nodes = (
(187,0,o),
(215,25,o),
(218,56,cs),
(286,698,ls),
(292,756,o),
(256,772,o),
(222,772,cs),
(182,772,o),
(152,755,o),
(148,715,cs),
(81,70,ls),
(77,31,o),
(99,0,o),
(142,0,cs)
);
},
{
closed = 1;
nodes = (
(113,25,o),
(102,40,o),
(105,67,cs),
(173,713,ls),
(176,740,o),
(191,749,o),
(222,749,cs),
(248,749,o),
(266,741,o),
(262,701,cs),
(194,58,ls),
(192,39,o),
(176,25,o),
(142,25,cs)
);
}
);
vertWidth = 0;
width = 373;
}
);
unicode = 73;
},
{
glyphname = J;
kernRight = H_right;
layers = (
{
layerId = m002;
shapes = (
{
closed = 1;
nodes = (
(298,-5,o),
(389,65,o),
(406,232,cs),
(457,698,l),
(461,756,o),
(426,772,o),
(392,772,cs),
(355,772,o),
(324,754,o),
(319,714,cs),
(272,263,ls),
(259,141,o),
(233,122,o),
(176,122,cs),
(146,122,o),
(118,155,o),
(100,173,cs),
(72,201,o),
(19,196,o),
(-3,166,cs),
(-24,137,o),
(-18,97,o),
(2,76,cs),
(22,54,o),
(71,-5,o),
(180,-5,cs)
);
},
{
closed = 1;
nodes = (
(78,9,o),
(34,63,o),
(13,85,cs),
(-4,103,o),
(-9,134,o),
(9,158,cs),
(27,183,o),
(68,185,o),
(90,163,cs),
(107,146,o),
(139,107,o),
(176,107,cs),
(240,107,o),
(273,131,o),
(286,262,cs),
(333,712,ls),
(337,745,o),
(359,758,o),
(392,758,cs),
(422,758,o),
(447,747,o),
(443,699,cs),
(392,234,ls),
(375,74,o),
(293,9,o),
(180,9,cs)
);
}
);
vertWidth = 0;
width = 506;
},
{
layerId = m003;
shapes = (
{
closed = 1;
nodes = (
(298,-5,o),
(389,65,o),
(406,232,cs),
(457,698,ls),
(463,756,o),
(426,772,o),
(392,772,cs),
(355,772,o),
(324,754,o),
(319,714,cs),
(272,263,ls),
(259,141,o),
(233,122,o),
(176,122,cs),
(146,122,o),
(118,155,o),
(100,173,cs),
(72,201,o),
(19,196,o),
(-3,166,cs),
(-24,137,o),
(-18,97,o),
(2,76,cs),
(22,54,o),
(71,-5,o),
(180,-5,cs)
);
},
{
closed = 1;
nodes = (
(92,29,o),
(54,75,o),
(31,99,cs),
(21,110,o),
(17,130,o),
(29,146,cs),
(41,163,o),
(58,164,o),
(72,149,cs),
(87,134,o),
(125,87,o),
(176,87,cs),
(251,87,o),
(296,120,o),
(311,260,cs),
(358,710,ls),
(361,733,o),
(368,738,o),
(392,738,cs),
(415,738,o),
(421,735,o),
(418,701,cs),
(367,236,ls),
(351,84,o),
(281,29,o),
(180,29,cs)
);
}
);
vertWidth = 0;
width = 506;
},
{
layerId = m004;
shapes = (
{
closed = 1;
nodes = (
(298,-5,o),
(389,65,o),
(406,232,cs),
(457,698,ls),
(461,756,o),
(426,772,o),
(392,772,cs),
(355,772,o),
(324,754,o),
(319,714,cs),
(272,263,ls),
(259,141,o),
(233,122,o),
(176,122,cs),
(146,122,o),
(118,155,o),
(100,173,cs),
(72,201,o),
(19,196,o),
(-3,166,cs),
(-24,137,o),
(-18,97,o),
(2,76,cs),
(22,54,o),
(71,-5,o),
(180,-5,cs)
);
},
{
closed = 1;
nodes = (
(83,19,o),
(41,70,o),
(20,92,cs),
(6,107,o),
(2,132,o),
(17,152,cs),
(31,172,o),
(65,174,o),
(83,156,cs),
(100,139,o),
(134,97,o),
(176,97,cs),
(243,97,o),
(282,126,o),
(296,261,cs),
(343,711,ls),
(346,738,o),
(363,748,o),
(392,748,cs),
(419,748,o),
(436,740,o),
(433,700,cs),
(382,235,ls),
(366,80,o),
(288,19,o),
(180,19,cs)
);
}
);
vertWidth = 0;
width = 506;
}
);
unicode = 74;
},
{
glyphname = K;
kernLeft = H_left;
layers = (
{
layerId = m002;
shapes = (
{
closed = 1;
nodes = (
(174,0,o),
(194,29,o),
(198,62,cs),
(226,324,l),
(448,34,ls),
(464,14,o),
(490,0,o),
(516,0,cs),
(542,0,o),
(574,15,o),
(579,47,cs),
(581,63,o),
(579,86,o),
(564,105,cs),
(334,403,l),
(620,651,ls),
(637,665,o),
(652,682,o),
(653,704,cs),
(654,738,o),
(628,772,o),
(586,772,cs),
(565,772,o),
(546,765,o),
(527,749,cs),
(245,499,l),
(266,698,ls),
(272,753,o),
(233,772,o),
(200,772,cs),
(166,772,o),
(131,756,o),
(127,715,cs),
(58,76,ls),
(53,34,o),
(86,0,o),
(130,0,cs)
);
},
{
closed = 1;
nodes = (
(93,15,o),
(68,40,o),
(72,74,cs),
(141,713,ls),
(145,746,o),
(170,758,o),
(200,758,cs),
(228,758,o),
(257,745,o),
(252,700,cs),
(228,479,ls),
(227,468,o),
(231,467,o),
(242,476,cs),
(537,739,ls),
(553,754,o),
(568,758,o),
(586,758,cs),
(620,758,o),
(639,733,o),
(639,706,cs),
(638,688,o),
(625,676,o),
(611,663,cs),
(325,413,ls),
(319,408,o),
(320,400,o),
(324,395,cs),
(553,96,ls),
(565,81,o),
(567,63,o),
(565,48,cs),
(561,24,o),
(538,15,o),
(516,15,cs),
(493,15,o),
(473,25,o),
(459,43,cs),
(228,348,ls),
(221,357,o),
(216,356,o),
(215,348,cs),
(184,64,ls),
(181,34,o),
(166,15,o),
(130,15,cs)
);
}
);
vertWidth = 0;
width = 635;
},
{
layerId = m003;
shapes = (
{
closed = 1;
nodes = (
(174,0,o),
(194,29,o),
(198,62,cs),
(226,324,l),
(448,34,ls),
(464,14,o),
(490,0,o),
(516,0,cs),
(542,0,o),
(574,15,o),
(579,47,cs),
(581,63,o),
(579,86,o),
(564,105,cs),
(334,403,l),
(620,651,ls),
(637,665,o),
(652,683,o),
(653,705,cs),
(654,739,o),
(628,772,o),
(586,772,cs),
(565,772,o),
(546,765,o),
(527,749,cs),
(245,499,l),
(266,699,ls),
(272,754,o),
(233,772,o),
(200,772,cs),
(166,772,o),
(131,756,o),
(127,715,cs),
(58,76,ls),
(53,34,o),
(86,0,o),
(130,0,cs)
);
},
{
closed = 1;
nodes = (
(104,35,o),
(94,47,o),
(97,72,cs),
(166,711,ls),
(168,734,o),
(178,739,o),
(200,739,cs),
(221,739,o),
(230,734,o),
(227,703,cs),
(201,463,ls),
(198,439,o),
(228,435,o),
(241,446,cs),
(553,723,ls),
(569,737,o),
(574,739,o),
(586,739,cs),
(603,739,o),
(614,725,o),
(614,707,cs),
(614,696,o),
(606,688,o),
(594,677,cs),
(300,422,ls),
(288,411,o),
(286,403,o),
(296,391,cs),
(533,84,ls),
(540,75,o),
(542,63,o),
(540,52,cs),
(538,40,o),
(528,35,o),
(516,35,cs),
(500,35,o),
(491,40,o),
(479,55,cs),
(233,376,ls),
(222,391,o),
(193,389,o),
(191,367,cs),
(159,66,ls),
(156,41,o),
(148,35,o),
(127,35,cs)
);
}
);
vertWidth = 0;
width = 635;
},
{
layerId = m004;
shapes = (
{
closed = 1;
nodes = (
(174,0,o),
(194,29,o),
(198,62,cs),
(226,324,l),
(448,34,ls),
(464,14,o),
(490,0,o),
(516,0,cs),
(542,0,o),
(574,15,o),
(579,47,cs),
(581,63,o),
(579,86,o),
(564,105,cs),
(334,403,l),
(620,651,ls),
(637,665,o),
(652,683,o),
(653,705,cs),
(654,739,o),
(628,772,o),
(586,772,cs),
(565,772,o),
(546,765,o),
(527,749,cs),
(245,499,l),
(266,699,ls),
(272,754,o),
(233,772,o),
(200,772,cs),
(166,772,o),
(131,756,o),
(127,715,cs),
(58,76,ls),
(53,34,o),
(86,0,o),
(130,0,cs)
);
},
{
closed = 1;
nodes = (
(99,25,o),
(79,45,o),
(82,73,cs),
(151,712,ls),
(154,739,o),
(173,749,o),
(200,749,cs),
(225,749,o),
(246,739,o),
(242,702,cs),
(216,462,ls),
(215,451,o),
(222,446,o),
(231,454,cs),
(543,731,ls),
(558,745,o),
(570,749,o),
(586,749,cs),
(614,749,o),
(629,729,o),
(629,707,cs),
(628,693,o),
(618,683,o),
(604,670,cs),
(310,414,ls),
(304,409,o),
(303,403,o),
(308,397,cs),
(545,90,ls),
(555,77,o),
(557,63,o),
(555,50,cs),
(552,32,o),
(535,25,o),
(516,25,cs),
(496,25,o),
(479,33,o),
(467,49,cs),
(221,370,ls),
(214,379,o),
(207,377,o),
(206,366,cs),
(174,65,ls),
(171,39,o),
(160,25,o),
(130,25,cs)
);
}
);
vertWidth = 0;
width = 635;
}
);
unicode = 75;
},
{
glyphname = L;
kernLeft = H_left;
layers = (
{
layerId = m002;
shapes = (
{
closed = 1;
nodes = (
(482,0,ls),
(524,0,o),
(548,32,o),
(548,66,cs),
(548,100,o),
(516,129,o),
(475,129,cs),
(203,129,l),
(263,699,ls),
(269,757,o),
(231,772,o),
(197,772,cs),
(160,772,o),
(128,755,o),
(124,715,cs),
(56,70,ls),
(52,31,o),
(75,0,o),
(118,0,cs)
);
},
{
closed = 1;
nodes = (
(83,15,o),
(67,35,o),
(70,68,cs),
(138,713,ls),
(141,746,o),
(164,759,o),
(197,759,cs),
(227,759,o),
(254,748,o),
(249,700,cs),
(188,129,ls),
(187,120,o),
(192,115,o),
(203,115,cs),
(475,115,ls),
(509,115,o),
(534,95,o),
(534,66,cs),
(534,37,o),
(516,15,o),
(482,15,cs),
(118,15,ls)
);
}
);
vertWidth = 0;
width = 579;
},
{
layerId = m003;
shapes = (
{
closed = 1;
nodes = (
(482,0,ls),
(524,0,o),
(548,32,o),
(548,66,cs),
(548,100,o),
(516,129,o),
(475,129,cs),
(203,129,l),
(263,699,ls),
(269,757,o),
(231,772,o),
(197,772,cs),
(160,772,o),
(128,755,o),
(124,715,cs),
(56,70,ls),
(52,31,o),
(75,0,o),
(118,0,cs)
);
},
{
closed = 1;
nodes = (
(98,35,o),
(92,42,o),
(95,66,cs),
(163,711,ls),
(165,734,o),
(173,739,o),
(197,739,cs),
(220,739,o),
(228,736,o),
(224,702,cs),
(162,119,ls),
(160,103,o),
(175,95,o),
(189,95,cs),
(475,95,ls),
(498,95,o),
(509,85,o),
(509,66,cs),
(509,44,o),
(501,35,o),
(482,35,cs),
(118,35,ls)
);
}
);
vertWidth = 0;
width = 579;
},
{
layerId = m004;
shapes = (
{
closed = 1;
nodes = (
(482,0,ls),
(524,0,o),
(548,32,o),
(548,66,cs),
(548,100,o),
(516,129,o),
(475,129,cs),
(203,129,l),
(263,699,ls),
(269,757,o),
(231,772,o),
(197,772,cs),
(160,772,o),
(128,755,o),
(124,715,cs),
(56,70,ls),
(52,31,o),
(75,0,o),
(118,0,cs)
);
},
{
closed = 1;
nodes = (
(89,25,o),
(77,40,o),
(80,67,cs),
(148,712,ls),
(151,739,o),
(168,749,o),
(197,749,cs),
(224,749,o),
(243,741,o),
(239,701,cs),
(177,118,ls),
(176,110,o),
(181,105,o),
(189,105,cs),
(475,105,ls),
(505,105,o),
(524,88,o),
(524,66,cs),
(524,42,o),
(510,25,o),
(482,25,cs),
(118,25,ls)
);
}
);
vertWidth = 0;
width = 579;
}
);
unicode = 76;
},
{
glyphname = M;
kernLeft = H_left;
kernRight = H_right;
layers = (
{
layerId = m002;
shapes = (
{
closed = 1;
nodes = (
(169,0,o),
(196,28,o),
(199,60,cs),
(239,447,l),
(383,62,ls),
(399,18,o),
(428,0,o),
(474,0,cs),
(522,0,o),
(542,30,o),
(557,56,cs),
(779,437,l),
(739,65,ls),
(735,28,o),
(766,0,o),
(809,0,cs),
(856,0,o),
(876,29,o),
(879,58,cs),
(946,699,ls),
(951,743,o),
(927,772,o),
(880,772,cs),
(837,772,o),
(816,761,o),
(796,726,cs),
(477,181,l),
(278,724,ls),
(265,759,o),
(236,772,o),
(197,772,cs),
(154,772,o),
(130,754,o),
(126,715,cs),
(59,70,ls),
(55,30,o),
(84,0,o),
(125,0,cs)
);
},
{
closed = 1;
nodes = (
(91,15,o),
(70,36,o),
(73,69,cs),
(140,713,ls),
(144,747,o),
(160,758,o),
(197,758,cs),
(232,758,o),
(253,749,o),
(264,719,cs),
(468,167,ls),
(473,155,o),
(478,155,o),
(485,167,cs),
(808,719,ls),
(827,751,o),
(842,758,o),
(880,758,cs),
(920,758,o),
(935,738,o),
(931,700,cs),
(865,59,ls),
(862,34,o),
(848,15,o),
(809,15,cs),
(771,15,o),
(750,34,o),
(753,64,cs),
(798,477,ls),
(798,481,o),
(799,484,o),
(795,485,cs),
(791,486,o),
(790,483,o),
(787,478,cs),
(545,63,ls),
(530,37,o),
(515,15,o),
(474,15,cs),
(431,15,o),
(412,27,o),
(397,67,cs),
(242,482,ls),
(240,487,o),
(237,492,o),
(233,492,cs),
(229,492,o),
(229,487,o),
(228,482,cs),
(185,61,ls),
(182,34,o),
(162,15,o),
(125,15,cs)
);
}
);
vertWidth = 0;
width = 1008;
},
{
layerId = m003;
shapes = (
{
closed = 1;
nodes = (
(169,0,o),
(196,28,o),
(199,60,cs),
(239,447,l),
(383,62,ls),
(399,18,o),
(428,0,o),
(474,0,cs),
(522,0,o),
(542,30,o),
(557,56,cs),
(779,437,l),
(739,65,ls),
(735,28,o),
(766,0,o),
(809,0,cs),
(856,0,o),
(876,29,o),
(879,58,cs),
(946,699,ls),
(951,743,o),
(927,772,o),
(880,772,cs),
(837,772,o),
(816,761,o),
(796,726,cs),
(477,181,l),
(278,724,ls),
(265,759,o),
(236,772,o),
(197,772,cs),
(154,772,o),
(130,754,o),
(126,715,cs),
(59,70,ls),
(55,30,o),
(84,0,o),
(125,0,cs)
);
},
{
closed = 1;
nodes = (
(104,35,o),
(96,44,o),
(98,67,cs),
(165,711,ls),
(167,731,o),
(171,738,o),
(197,738,cs),
(225,738,o),
(234,731,o),
(241,713,cs),
(452,139,ls),
(458,122,o),
(486,121,o),
(495,137,cs),
(830,709,ls),
(844,732,o),
(852,738,o),
(880,738,cs),
(904,738,o),
(909,732,o),
(906,702,cs),
(840,61,ls),
(838,41,o),
(833,35,o),
(809,35,cs),
(784,35,o),
(776,43,o),
(778,62,cs),
(823,479,ls),
(825,494,o),
(815,502,o),
(801,505,cs),
(790,508,o),
(774,504,o),
(768,493,cs),
(523,73,ls),
(507,46,o),
(499,35,o),
(474,35,cs),
(441,35,o),
(432,40,o),
(420,73,cs),
(261,497,ls),
(257,507,o),
(244,512,o),
(233,512,cs),
(219,512,o),
(205,505,o),
(204,491,cs),
(160,63,ls),
(158,43,o),
(150,35,o),
(125,35,cs)
);
}
);
vertWidth = 0;
width = 1008;
},
{
layerId = m004;
shapes = (
{
closed = 1;
nodes = (
(169,0,o),
(196,28,o),
(199,60,cs),
(239,447,l),
(383,62,ls),
(399,18,o),
(428,0,o),
(474,0,cs),
(522,0,o),
(542,30,o),
(557,56,cs),
(779,437,l),
(739,65,ls),
(735,28,o),
(766,0,o),
(809,0,cs),
(856,0,o),
(876,29,o),
(879,58,cs),
(946,699,ls),
(951,743,o),
(927,772,o),
(880,772,cs),
(837,772,o),
(816,761,o),
(796,726,cs),
(477,181,l),
(278,724,ls),
(265,759,o),
(236,772,o),
(197,772,cs),
(154,772,o),
(130,754,o),
(126,715,cs),
(59,70,ls),
(55,30,o),
(84,0,o),
(125,0,cs)
);
},
{
closed = 1;
nodes = (
(97,25,o),
(80,41,o),
(83,68,cs),
(150,712,ls),
(153,740,o),
(165,748,o),
(197,748,cs),
(229,748,o),
(246,741,o),
(255,716,cs),
(466,143,ls),
(470,133,o),
(477,133,o),
(482,142,cs),
(817,714,ls),
(834,743,o),
(845,748,o),
(880,748,cs),
(913,748,o),
(924,734,o),
(921,701,cs),
(855,60,ls),
(853,39,o),
(842,25,o),
(809,25,cs),
(777,25,o),
(761,40,o),
(763,63,cs),
(808,480,ls),
(809,487,o),
(806,493,o),
(797,495,cs),
(790,497,o),
(785,495,o),
(781,488,cs),
(536,68,ls),
(521,43,o),
(509,25,o),
(474,25,cs),
(435,25,o),
(419,35,o),
(406,70,cs),
(247,494,ls),
(245,500,o),
(240,502,o),
(233,502,cs),
(224,502,o),
(220,497,o),
(219,490,cs),
(175,62,ls),
(173,40,o),
(157,25,o),
(125,25,cs)
);
}
);
vertWidth = 0;
width = 1008;
}
);
unicode = 77;
},
{
glyphname = N;
kernLeft = H_left;
kernRight = H_right;
layers = (
{
layerId = m002;
shapes = (
{
closed = 1;
nodes = (
(168,0,o),
(195,28,o),
(198,60,cs),
(244,502,l),
(500,39,ls),
(513,15,o),
(535,0,o),
(568,0,cs),
(616,0,o),
(629,30,o),
(632,58,cs),
(699,699,ls),
(703,742,o),
(679,772,o),
(633,772,cs),
(595,772,o),
(565,755,o),
(561,715,cs),
(516,289,l),
(269,734,ls),
(253,763,o),
(227,772,o),
(197,772,cs),
(154,772,o),
(129,754,o),
(125,715,cs),
(58,70,ls),
(54,31,o),
(82,0,o),
(124,0,cs)
);
},
{
closed = 1;
nodes = (
(89,15,o),
(69,36,o),
(72,69,cs),
(139,713,ls),
(142,746,o),
(160,758,o),
(197,758,cs),
(224,758,o),
(243,752,o),
(257,727,cs),
(516,262,ls),
(518,259,o),
(520,256,o),
(523,256,cs),
(526,256,o),
(528,259,o),
(528,262,cs),
(575,713,ls),
(579,747,o),
(600,758,o),
(633,758,cs),
(671,758,o),
(689,738,o),
(685,700,cs),
(618,59,ls),
(615,35,o),
(607,15,o),
(568,15,cs),
(539,15,o),
(523,25,o),
(512,45,cs),
(246,528,ls),
(244,532,o),
(242,535,o),
(238,535,cs),
(234,535,o),
(233,532,o),
(233,528,cs),
(184,61,ls),
(181,34,o),
(161,15,o),
(124,15,cs)
);
}
);
vertWidth = 0;
width = 762;
},
{
layerId = m003;
shapes = (
{
closed = 1;
nodes = (
(168,0,o),
(195,28,o),
(198,60,cs),
(244,502,l),
(500,39,ls),
(513,15,o),
(535,0,o),
(568,0,cs),
(616,0,o),
(629,30,o),
(632,58,cs),
(699,699,ls),
(703,742,o),
(679,772,o),
(633,772,cs),
(595,772,o),
(565,755,o),
(561,715,cs),
(516,289,l),
(269,734,ls),
(253,763,o),
(227,772,o),
(197,772,cs),
(154,772,o),
(129,754,o),
(125,715,cs),
(58,70,ls),
(54,31,o),
(82,0,o),
(124,0,cs)
);
},
{
closed = 1;
nodes = (
(103,35,o),
(94,43,o),
(97,67,cs),
(164,711,ls),
(167,735,o),
(171,739,o),
(197,739,cs),
(217,739,o),
(224,736,o),
(235,717,cs),
(496,248,ls),
(501,239,o),
(514,234,o),
(528,236,cs),
(539,238,o),
(551,244,o),
(552,257,cs),
(600,711,ls),
(603,736,o),
(611,738,o),
(633,738,cs),
(655,738,o),
(663,732,o),
(660,702,cs),
(593,61,ls),
(591,39,o),
(589,35,o),
(568,35,cs),
(549,35,o),
(544,38,o),
(534,55,cs),
(265,543,ls),
(261,551,o),
(248,555,o),
(236,555,cs),
(221,555,o),
(209,547,o),
(208,533,cs),
(159,63,ls),
(157,43,o),
(149,35,o),
(124,35,cs)
);
}
);
vertWidth = 0;
width = 762;
},
{
layerId = m004;
shapes = (
{
closed = 1;
nodes = (
(168,0,o),
(195,28,o),
(198,60,cs),
(244,502,l),
(500,39,ls),
(513,15,o),
(535,0,o),
(568,0,cs),
(616,0,o),
(629,30,o),
(632,58,cs),
(699,699,ls),
(703,742,o),
(679,772,o),
(633,772,cs),
(595,772,o),
(565,755,o),
(561,715,cs),
(516,289,l),
(269,734,ls),
(253,763,o),
(227,772,o),
(197,772,cs),
(154,772,o),
(129,754,o),
(125,715,cs),
(58,70,ls),
(54,31,o),
(82,0,o),
(124,0,cs)
);
},
{
closed = 1;
nodes = (
(95,25,o),
(79,41,o),
(82,68,cs),
(149,712,ls),
(152,739,o),
(165,748,o),
(197,748,cs),
(221,748,o),
(236,743,o),
(248,722,cs),
(509,253,ls),
(513,246,o),
(518,245,o),
(526,246,cs),
(532,247,o),
(536,251,o),
(537,258,cs),
(585,712,ls),
(588,740,o),
(605,748,o),
(633,748,cs),
(664,748,o),
(678,734,o),
(675,701,cs),
(608,60,ls),
(606,38,o),
(600,25,o),
(568,25,cs),
(543,25,o),
(531,33,o),
(521,50,cs),
(252,538,ls),
(249,544,o),
(243,545,o),
(236,545,cs),
(227,545,o),
(224,539,o),
(223,532,cs),
(174,62,ls),
(172,40,o),
(156,25,o),
(124,25,cs)
);
}
);
vertWidth = 0;
width = 762;
}
);
unicode = 78;
},
{
glyphname = O;
kernLeft = O_left;
kernRight = O_right;
layers = (
{
layerId = m002;
shapes = (
{
closed = 1;
nodes = (
(416,-5,o),
(581,250,o),
(607,505,cs),
(621,648,o),
(528,772,o),
(358,772,cs),
(185,772,o),
(64,618,o),
(64,328,cs),
(64,148,o),
(97,-5,o),
(246,-5,cs)
);
},
{
closed = 1;
nodes = (
(109,9,o),
(78,150,o),
(78,328,cs),
(78,613,o),
(191,758,o),
(358,758,cs),
(521,758,o),
(606,644,o),
(593,506,cs),
(568,256,o),
(408,9,o),
(246,9,cs)
);
},
{
closed = 1;
nodes = (
(339,108,o),
(464,334,o),
(481,503,cs),
(490,598,o),
(458,662,o),
(361,662,cs),
(251,662,o),
(189,518,o),
(189,330,cs),
(189,226,o),
(195,108,o),
(257,108,cs)
);
},
{
closed = 1;
nodes = (
(210,123,o),
(204,227,o),
(204,330,cs),
(204,513,o),
(262,647,o),
(361,647,cs),
(448,647,o),
(475,593,o),
(467,504,cs),
(450,339,o),
(328,123,o),
(257,123,cs)
);
}
);
vertWidth = 0;
width = 659;
},
{
layerId = m003;
shapes = (
{
closed = 1;
nodes = (
(416,-5,o),
(581,250,o),
(607,505,cs),
(621,648,o),
(528,772,o),
(358,772,cs),
(185,772,o),
(64,618,o),
(64,328,cs),
(64,148,o),
(97,-5,o),
(246,-5,cs)
);
},
{
closed = 1;
nodes = (
(131,29,o),
(103,153,o),
(103,328,cs),
(103,606,o),
(207,738,o),
(358,738,cs),
(505,738,o),
(581,638,o),
(568,508,cs),
(543,262,o),
(391,29,o),
(246,29,cs)
);
},
{
closed = 1;
nodes = (
(359,88,o),
(489,327,o),
(506,501,cs),
(515,603,o),
(475,682,o),
(361,682,cs),
(231,682,o),
(164,523,o),
(164,330,cs),
(164,227,o),
(167,88,o),
(257,88,cs)
);
},
{
closed = 1;
nodes = (
(210,123,o),
(204,227,o),
(204,330,cs),
(204,513,o),
(262,647,o),
(361,647,cs),
(448,647,o),
(475,593,o),
(467,504,cs),
(450,339,o),
(328,123,o),
(257,123,cs)
);
}
);
vertWidth = 0;
width = 659;
},
{
layerId = m004;
shapes = (
{
closed = 1;
nodes = (
(416,-5,o),
(581,250,o),
(607,505,cs),
(621,648,o),
(528,772,o),
(358,772,cs),
(185,772,o),
(64,618,o),
(64,328,cs),
(64,148,o),
(97,-5,o),
(246,-5,cs)
);
},
{
closed = 1;
nodes = (
(118,19,o),
(88,152,o),
(88,328,cs),
(88,608,o),
(198,748,o),
(358,748,cs),
(514,748,o),
(596,640,o),
(583,507,cs),
(558,260,o),
(401,19,o),
(246,19,cs)
);
},
{
closed = 1;
nodes = (
(345,98,o),
(474,331,o),
(491,502,cs),
(500,600,o),
(464,672,o),
(361,672,cs),
(244,672,o),
(179,520,o),
(179,330,cs),
(179,226,o),
(185,98,o),
(257,98,cs)
);
},
{
closed = 1;
nodes = (
(210,123,o),
(204,227,o),
(204,330,cs),
(204,513,o),
(262,647,o),
(361,647,cs),
(448,647,o),
(475,593,o),
(467,504,cs),
(450,339,o),
(328,123,o),
(257,123,cs)
);
}
);
vertWidth = 0;
width = 659;
}
);
unicode = 79;
},
{
glyphname = P;
kernLeft = H_left;
layers = (
{
layerId = m002;
shapes = (
{
closed = 1;
nodes = (
(174,0,o),
(194,33,o),
(197,64,cs),
(223,305,l),
(386,313,o),
(571,352,o),
(591,546,cs),
(609,711,o),
(438,772,o),
(190,772,cs),
(154,772,o),
(129,750,o),
(125,711,cs),
(58,77,ls),
(54,37,o),
(81,0,o),
(127,0,cs)
);
},
{
closed = 1;
nodes = (
(88,14,o),
(69,42,o),
(72,75,cs),
(139,709,ls),
(143,743,o),
(160,758,o),
(191,758,cs),
(435,758,o),
(594,701,o),
(576,547,cs),
(557,360,o),
(371,328,o),
(223,320,cs),
(215,320,o),
(210,314,o),
(209,305,cs),
(184,65,ls),
(181,38,o),
(166,14,o),
(127,14,cs)
);
},
{
closed = 1;
nodes = (
(354,432,o),
(454,459,o),
(465,552,cs),
(473,623,o),
(420,656,o),
(254,656,cs),
(250,656,o),
(246,652,o),
(245,647,cs),
(222,435,ls),
(221,424,o),
(222,420,o),
(232,421,cs)
);
},
{
closed = 1;
nodes = (
(259,642,l),
(416,642,o),
(458,612,o),
(451,554,cs),
(441,471,o),
(344,444,o),
(237,435,c)
);
}
);
vertWidth = 0;
width = 592;
},
{
layerId = m003;
shapes = (
{
closed = 1;
nodes = (
(174,0,o),
(194,33,o),
(197,62,cs),
(223,305,l),
(386,313,o),
(571,352,o),
(591,546,cs),
(609,711,o),
(438,772,o),
(190,772,cs),
(154,772,o),
(129,750,o),
(125,711,cs),
(58,75,ls),
(54,37,o),
(81,0,o),
(127,0,cs)
);
},
{
closed = 1;
nodes = (
(104,34,o),
(94,48,o),
(96,71,cs),
(164,707,ls),
(167,734,o),
(172,738,o),
(191,738,cs),
(428,738,o),
(567,689,o),
(551,549,cs),
(534,377,o),
(373,346,o),
(212,339,cs),
(200,339,o),
(187,333,o),
(185,318,cs),
(158,65,ls),
(156,44,o),
(149,34,o),
(127,34,cs)
);
},
{
closed = 1;
nodes = (
(343,407,o),
(477,443,o),
(490,550,cs),
(500,633,o),
(431,674,o),
(250,676,cs),
(238,677,o),
(221,671,o),
(221,655,c),
(196,423,ls),
(194,406,o),
(210,398,o),
(224,400,c)
);
},
{
closed = 1;
nodes = (
(259,642,l),
(416,639,o),
(458,612,o),
(451,554,cs),
(442,475,o),
(344,444,o),
(237,435,c)
);
}
);
vertWidth = 0;
width = 592;
},
{
layerId = m004;
shapes = (
{
closed = 1;
nodes = (
(174,0,o),
(194,33,o),
(197,62,cs),
(223,305,l),
(386,313,o),
(571,352,o),
(591,546,cs),
(609,711,o),
(438,772,o),
(190,772,cs),
(154,772,o),
(129,750,o),
(125,711,cs),
(58,75,ls),
(54,37,o),
(81,0,o),
(127,0,cs)
);
},
{
closed = 1;
nodes = (
(95,24,o),
(79,46,o),
(82,72,cs),
(149,708,ls),
(152,737,o),
(165,748,o),
(191,748,cs),
(431,748,o),
(583,694,o),
(566,548,cs),
(548,369,o),
(375,336,o),
(212,329,cs),
(205,329,o),
(201,325,o),
(200,317,cs),
(173,64,ls),
(171,42,o),
(159,24,o),
(127,24,cs)
);
},
{
closed = 1;
nodes = (
(339,417,o),
(463,451,o),
(475,551,cs),
(484,628,o),
(423,664,o),
(249,666,cs),
(241,667,o),
(237,663,o),
(236,655,cs),
(211,422,ls),
(210,414,o),
(215,409,o),
(223,410,cs)
);
},
{
closed = 1;
nodes = (
(259,642,l),
(416,639,o),
(458,612,o),
(451,554,cs),
(442,475,o),
(344,444,o),
(237,435,c)
);
}
);
vertWidth = 0;
width = 592;
}
);
unicode = 80;
},
{
glyphname = Q;
kernLeft = O_left;
kernRight = O_right;
layers = (
{
layerId = m002;
shapes = (
{
closed = 1;
nodes = (
(536,-11,o),
(534,27,o),
(505,55,cs),
(447,110,l),
(530,208,o),
(592,357,o),
(607,505,cs),
(621,649,o),
(513,772,o),
(358,772,cs),
(185,772,o),
(64,618,o),
(64,328,cs),
(64,148,o),
(97,-5,o),
(246,-5,cs),
(280,-5,o),
(315,5,o),
(348,24,c),
(406,-32,ls),
(437,-62,o),
(484,-72,o),
(511,-40,cs)
);
},
{
closed = 1;
nodes = (
(479,-56,o),
(444,-48,o),
(416,-22,cs),
(359,32,ls),
(351,40,o),
(348,41,o),
(337,34,cs),
(314,20,o),
(280,9,o),
(246,9,cs),
(109,9,o),
(78,150,o),
(78,328,cs),
(78,613,o),
(191,758,o),
(358,758,cs),
(506,758,o),
(607,644,o),
(593,506,cs),
(578,356,o),
(514,207,o),
(436,118,cs),
(429,110,o),
(429,108,o),
(437,101,cs),
(495,45,ls),
(520,20,o),
(521,-7,o),
(501,-30,cs)
);
},
{
closed = 1;
nodes = (
(262,108,o),
(268,110,o),
(270,113,cs),
(271,116,o),
(267,120,o),
(265,124,cs),
(245,155,o),
(241,177,o),
(261,200,cs),
(280,220,o),
(309,219,o),
(341,193,cs),
(353,184,o),
(355,183,o),
(360,190,cs),
(417,271,o),
(470,398,o),
(481,503,cs),
(490,598,o),
(465,662,o),
(361,662,cs),
(251,662,o),
(189,518,o),
(189,330,cs),
(189,226,o),
(195,108,o),
(254,108,cs)
);
},
{
closed = 1;
nodes = (
(208,145,o),
(204,238,o),
(204,330,cs),
(204,513,o),
(262,647,o),
(361,647,cs),
(455,647,o),
(475,594,o),
(467,504,cs),
(457,404,o),
(406,283,o),
(351,203,c),
(313,232,o),
(274,236,o),
(249,209,cs),
(230,188,o),
(225,165,o),
(243,126,c)
);
}
);
vertWidth = 0;
width = 659;
},
{
layerId = m003;
shapes = (
{
closed = 1;
nodes = (
(536,-11,o),
(534,27,o),
(505,55,cs),
(447,110,l),
(530,208,o),
(592,357,o),
(607,505,cs),
(621,649,o),
(513,772,o),
(358,772,cs),
(185,772,o),
(64,618,o),
(64,328,cs),
(64,148,o),
(97,-5,o),
(246,-5,cs),
(280,-5,o),
(315,5,o),
(348,24,c),
(406,-32,ls),
(437,-62,o),
(484,-72,o),
(511,-40,cs)
);
},
{
closed = 1;
nodes = (
(469,-32,o),
(456,-30,o),
(433,-8,cs),
(369,53,ls),
(361,61,o),
(343,63,o),
(334,56,c),
(302,37,o),
(275,29,o),
(246,29,cs),
(131,29,o),
(103,153,o),
(103,328,cs),
(103,606,o),
(207,738,o),
(358,738,cs),
(492,738,o),
(581,637,o),
(568,508,cs),
(553,360,o),
(491,216,o),
(410,125,cs),
(399,112,o),
(401,105,o),
(412,94,cs),
(478,31,ls),
(495,15,o),
(495,-2,o),
(482,-18,cs)
);
},
{
closed = 1;
nodes = (
(271,88,o),
(288,95,o),
(293,108,cs),
(298,122,o),
(291,126,o),
(286,134,cs),
(266,166,o),
(263,171,o),
(279,186,cs),
(292,199,o),
(299,198,o),
(326,177,cs),
(346,162,o),
(368,163,o),
(380,178,cs),
(440,263,o),
(495,394,o),
(506,501,cs),
(515,602,o),
(484,682,o),
(361,682,cs),
(231,682,o),
(164,523,o),
(164,330,cs),
(164,227,o),
(167,88,o),
(257,88,cs)
);
},
{
closed = 1;
nodes = (
(208,145,o),
(204,238,o),
(204,330,cs),
(204,513,o),
(262,647,o),
(361,647,cs),
(455,647,o),
(475,594,o),
(467,504,cs),
(457,404,o),
(406,283,o),
(351,203,c),
(313,232,o),
(274,236,o),
(249,209,cs),
(230,188,o),
(230,159,o),
(243,126,c)
);
}
);
vertWidth = 0;
width = 659;
},
{
layerId = m004;
shapes = (
{
closed = 1;
nodes = (
(536,-11,o),
(534,27,o),
(505,55,cs),
(447,110,l),
(530,208,o),
(592,357,o),
(607,505,cs),
(621,649,o),
(513,772,o),
(358,772,cs),
(185,772,o),
(64,618,o),
(64,328,cs),
(64,148,o),
(97,-5,o),
(246,-5,cs),
(280,-5,o),
(315,5,o),
(348,24,c),
(406,-32,ls),
(437,-62,o),
(484,-72,o),
(511,-40,cs)
);
},
{
closed = 1;
nodes = (
(476,-44,o),
(448,-38,o),
(423,-15,cs),
(359,46,ls),
(354,51,o),
(348,52,o),
(342,48,cs),
(310,29,o),
(278,19,o),
(246,19,cs),
(118,19,o),
(88,152,o),
(88,328,cs),
(88,608,o),
(198,748,o),
(358,748,cs),
(500,748,o),
(596,639,o),
(583,507,cs),
(568,359,o),
(505,212,o),
(421,118,cs),
(416,112,o),
(416,106,o),
(422,101,cs),
(488,38,ls),
(509,17,o),
(510,-4,o),
(493,-24,cs)
);
},
{
closed = 1;
nodes = (
(268,98,o),
(274,105,o),
(279,111,cs),
(283,116,o),
(277,123,o),
(273,129,cs),
(255,158,o),
(252,175,o),
(268,193,cs),
(283,209,o),
(306,208,o),
(335,185,cs),
(348,175,o),
(358,171,o),
(368,184,cs),
(426,266,o),
(480,396,o),
(491,502,cs),
(500,599,o),
(472,672,o),
(361,672,cs),
(244,672,o),
(179,520,o),
(179,330,cs),
(179,226,o),
(185,98,o),
(257,98,cs)
);
},
{
closed = 1;
nodes = (
(208,145,o),
(204,238,o),
(204,330,cs),
(204,513,o),
(262,647,o),
(361,647,cs),
(455,647,o),
(475,594,o),
(467,504,cs),
(457,404,o),
(406,283,o),
(351,203,c),
(313,232,o),
(274,236,o),
(249,209,cs),
(230,188,o),
(230,159,o),
(243,126,c)
);
}
);
vertWidth = 0;
width = 659;
}
);
unicode = 81;
},
{
glyphname = R;
kernLeft = H_left;
layers = (
{
layerId = m002;
shapes = (
{
closed = 1;
nodes = (
(167,0,o),
(193,26,o),
(198,72,cs),
(221,291,l),
(421,31,ls),
(442,3,o),
(468,0,o),
(484,0,cs),
(510,0,o),
(537,13,o),
(548,38,cs),
(556,54,o),
(559,82,o),
(545,101,cs),
(368,339,l),
(504,373,o),
(605,438,o),
(614,555,cs),
(627,739,o),
(467,784,o),
(199,772,cs),
(158,770,o),
(130,755,o),
(126,715,cs),
(59,82,ls),
(54,39,o),
(73,0,o),
(120,0,cs)
);
},
{
closed = 1;
nodes = (
(83,15,o),
(69,42,o),
(73,81,cs),
(140,713,ls),
(144,747,o),
(163,757,o),
(200,758,cs),
(455,768,o),
(613,729,o),
(600,556,cs),
(590,441,o),
(489,380,o),
(358,351,cs),
(343,348,o),
(342,347,o),
(348,339,cs),
(533,93,ls),
(544,78,o),
(542,59,o),
(535,44,cs),
(526,24,o),
(506,15,o),
(484,15,cs),
(469,15,o),
(450,16,o),
(432,40,cs),
(230,302,ls),
(215,321,o),
(210,320,o),
(207,291,cs),
(184,74,ls),
(180,32,o),
(160,15,o),
(120,15,cs)
);
},
{
closed = 1;
nodes = (
(381,430,o),
(480,491,o),
(488,564,cs),
(496,646,o),
(444,673,o),
(261,666,cs),
(252,666,o),
(247,661,o),
(246,653,cs),
(222,432,ls),
(221,423,o),
(227,418,o),
(235,418,cs)
);
},
{
closed = 1;
nodes = (
(260,653,l),
(434,659,o),
(481,635,o),
(474,566,cs),
(467,504,o),
(381,448,o),
(236,432,c)
);
}
);
vertWidth = 0;
width = 637;
},
{
layerId = m003;
shapes = (
{
closed = 1;
nodes = (
(167,0,o),
(193,26,o),
(198,72,cs),
(221,291,l),
(421,31,ls),
(442,3,o),
(468,0,o),
(484,0,cs),
(510,0,o),
(537,13,o),
(548,38,cs),
(556,54,o),
(559,82,o),
(545,101,cs),
(368,339,l),
(504,373,o),
(605,438,o),
(614,555,cs),
(627,739,o),
(467,786,o),
(199,772,c),
(158,772,o),
(130,755,o),
(126,715,cs),
(59,82,ls),
(54,39,o),
(73,0,o),
(120,0,cs)
);
},
{
closed = 1;
nodes = (
(100,35,o),
(95,47,o),
(98,79,cs),
(165,711,ls),
(168,735,o),
(172,738,o),
(201,739,cs),
(451,749,o),
(586,714,o),
(575,558,cs),
(566,452,o),
(477,398,o),
(338,368,cs),
(321,364,o),
(309,355,o),
(323,336,cs),
(513,81,ls),
(518,74,o),
(519,61,o),
(514,51,cs),
(508,37,o),
(496,33,o),
(484,33,cs),
(474,33,o),
(465,36,o),
(452,52,cs),
(228,342,ls),
(217,357,o),
(188,355,o),
(186,333,cs),
(159,76,ls),
(155,41,o),
(148,35,o),
(120,35,cs)
);
},
{
closed = 1;
nodes = (
(392,411,o),
(503,480,o),
(513,562,cs),
(523,658,o),
(453,693,o),
(250,686,cs),
(229,685,o),
(224,680,o),
(222,666,cs),
(195,420,ls),
(193,403,o),
(197,395,o),
(224,397,cs)
);
},
{
closed = 1;
nodes = (
(260,653,l),
(434,659,o),
(481,635,o),
(474,566,cs),
(467,504,o),
(381,448,o),
(236,432,c)
);
}
);
vertWidth = 0;
width = 637;
},
{
layerId = m004;
shapes = (
{
closed = 1;
nodes = (
(167,0,o),
(193,26,o),
(198,72,cs),
(221,291,l),
(421,31,ls),
(442,3,o),
(468,0,o),
(484,0,cs),
(510,0,o),
(537,13,o),
(548,38,cs),
(556,54,o),
(559,82,o),
(545,101,cs),
(368,339,l),
(504,373,o),
(605,438,o),
(614,555,cs),
(627,739,o),
(467,786,o),
(199,772,c),
(158,772,o),
(130,755,o),
(126,715,cs),
(59,82,ls),
(54,39,o),
(73,0,o),
(120,0,cs)
);
},
{
closed = 1;
nodes = (
(90,25,o),
(79,46,o),
(83,80,cs),
(150,712,ls),
(153,740,o),
(167,748,o),
(200,749,cs),
(453,759,o),
(602,721,o),
(590,557,cs),
(581,448,o),
(484,389,o),
(341,358,cs),
(332,356,o),
(329,350,o),
(335,342,cs),
(525,87,ls),
(533,76,o),
(532,61,o),
(526,48,cs),
(519,32,o),
(503,25,o),
(484,25,cs),
(470,25,o),
(455,26,o),
(440,46,cs),
(216,336,ls),
(209,345,o),
(202,343,o),
(201,332,cs),
(174,75,ls),
(170,38,o),
(155,25,o),
(120,25,cs)
);
},
{
closed = 1;
nodes = (
(384,420,o),
(489,485,o),
(498,563,cs),
(507,652,o),
(446,683,o),
(250,676,cs),
(242,676,o),
(238,672,o),
(237,665,cs),
(210,419,ls),
(209,410,o),
(214,406,o),
(223,407,cs)
);
},
{
closed = 1;
nodes = (
(260,653,l),
(434,659,o),
(481,635,o),
(474,566,cs),
(467,504,o),
(381,448,o),
(236,432,c)
);
}
);
vertWidth = 0;
width = 637;
}
);
unicode = 82;
},
{
glyphname = S;
layers = (
{
layerId = m002;
shapes = (
{
closed = 1;
nodes = (
(356,-5,o),
(492,59,o),
(507,202,cs),
(522,344,o),
(430,420,o),
(350,467,cs),
(279,509,o),
(204,554,o),
(209,594,cs),
(214,631,o),
(253,649,o),
(320,649,cs),
(377,649,o),
(404,635,o),
(414,617,cs),
(435,579,o),
(466,562,o),
(506,574,cs),
(541,586,o),
(554,616,o),
(545,650,cs),
(520,739,o),
(457,777,o),
(338,777,cs),
(173,777,o),
(79,715,o),
(67,600,cs),
(54,481,o),
(188,400,o),
(263,357,cs),
(343,312,o),
(379,268,o),
(373,209,cs),
(368,158,o),
(316,130,o),
(238,130,cs),
(176,130,o),
(155,142,o),
(147,157,cs),
(125,198,o),
(84,211,o),
(51,200,cs),
(21,190,o),
(-3,159,o),
(6,124,cs),
(29,39,o),
(105,-5,o),
(239,-5,cs)
);
},
{
closed = 1;
nodes = (
(109,10,o),
(40,48,o),
(20,127,cs),
(12,155,o),
(30,178,o),
(55,186,cs),
(84,196,o),
(116,186,o),
(134,151,cs),
(145,130,o),
(171,116,o),
(238,116,cs),
(322,116,o),
(382,147,o),
(388,207,cs),
(394,273,o),
(352,323,o),
(270,369,cs),
(196,412,o),
(69,489,o),
(81,598,cs),
(93,706,o),
(178,763,o),
(338,763,cs),
(453,763,o),
(507,729,o),
(531,647,cs),
(539,618,o),
(529,597,o),
(501,588,cs),
(467,577,o),
(445,589,o),
(428,621,cs),
(416,646,o),
(382,663,o),
(320,663,cs),
(250,663,o),
(201,642,o),
(195,596,cs),
(189,546,o),
(271,497,o),
(343,455,cs),
(421,408,o),
(508,338,o),
(493,204,cs),
(478,69,o),
(353,10,o),
(239,10,cs)
);
}
);
vertWidth = 0;
width = 566;
},
{
layerId = m003;
shapes = (
{
closed = 1;
nodes = (
(356,-5,o),
(492,59,o),
(507,202,cs),
(522,344,o),
(430,420,o),
(350,467,cs),
(279,509,o),
(204,554,o),
(209,594,cs),
(214,631,o),
(253,649,o),
(320,649,cs),
(377,649,o),
(404,635,o),
(414,617,cs),
(435,579,o),
(466,562,o),
(506,574,cs),
(541,586,o),
(554,616,o),
(545,650,cs),
(520,739,o),
(457,777,o),
(338,777,cs),
(173,777,o),
(79,715,o),
(67,600,cs),
(54,481,o),
(188,400,o),
(263,357,cs),
(343,312,o),
(379,268,o),
(373,209,cs),
(368,158,o),
(316,130,o),
(238,130,cs),
(176,130,o),
(155,142,o),
(147,157,cs),
(125,198,o),
(84,211,o),
(51,200,cs),
(21,190,o),
(-3,159,o),
(6,124,cs),
(29,39,o),
(105,-5,o),
(239,-5,cs)
);
},
{
closed = 1;
nodes = (
(118,30,o),
(62,61,o),
(44,133,cs),
(39,151,o),
(48,162,o),
(63,166,cs),
(84,174,o),
(98,170,o),
(112,143,cs),
(125,116,o),
(163,96,o),
(238,96,cs),
(330,96,o),
(405,135,o),
(413,205,cs),
(419,279,o),
(372,337,o),
(282,387,cs),
(211,428,o),
(95,498,o),
(106,596,cs),
(117,695,o),
(188,743,o),
(338,743,cs),
(444,743,o),
(485,717,o),
(507,641,cs),
(513,620,o),
(509,612,o),
(493,606,cs),
(471,600,o),
(465,603,o),
(450,631,cs),
(435,661,o),
(390,683,o),
(320,683,cs),
(243,683,o),
(178,656,o),
(170,598,cs),
(162,537,o),
(256,481,o),
(330,437,cs),
(404,393,o),
(482,330,o),
(468,206,cs),
(455,82,o),
(346,30,o),
(239,30,cs)
);
}
);
vertWidth = 0;
width = 566;
},
{
layerId = m004;
shapes = (
{
closed = 1;
nodes = (
(356,-5,o),
(492,59,o),
(507,202,cs),
(522,344,o),
(430,420,o),
(350,467,cs),
(279,509,o),
(204,554,o),
(209,594,cs),
(214,631,o),
(253,649,o),
(320,649,cs),
(377,649,o),
(404,635,o),
(414,617,cs),
(435,579,o),
(466,562,o),
(506,574,cs),
(541,586,o),
(554,616,o),
(545,650,cs),
(520,739,o),
(457,776,o),
(338,776,cs),
(173,776,o),
(79,715,o),
(67,600,cs),
(54,481,o),
(188,400,o),
(263,357,cs),
(343,312,o),
(379,268,o),
(373,209,cs),
(368,158,o),
(316,130,o),
(238,130,cs),
(176,130,o),
(155,142,o),
(147,157,cs),
(125,198,o),
(84,211,o),
(51,200,cs),
(21,190,o),
(-5,159,o),
(6,124,cs),
(27,39,o),
(105,-5,o),
(239,-5,cs)
);
},
{
closed = 1;
nodes = (
(113,20,o),
(48,56,o),
(30,130,cs),
(23,152,o),
(37,170,o),
(58,176,cs),
(83,185,o),
(110,177,o),
(125,147,cs),
(137,123,o),
(169,106,o),
(238,106,cs),
(324,106,o),
(391,141,o),
(398,206,cs),
(404,276,o),
(359,331,o),
(275,378,cs),
(201,421,o),
(80,494,o),
(91,597,cs),
(102,699,o),
(182,752,o),
(338,752,cs),
(449,752,o),
(499,722,o),
(521,644,cs),
(528,620,o),
(521,605,o),
(498,597,cs),
(469,588,o),
(452,597,o),
(437,626,cs),
(423,654,o),
(384,673,o),
(320,673,cs),
(248,673,o),
(192,649,o),
(185,597,cs),
(178,541,o),
(266,488,o),
(338,446,cs),
(415,400,o),
(497,333,o),
(483,205,cs),
(469,77,o),
(350,20,o),
(239,20,cs)
);
}
);
vertWidth = 0;
width = 566;
}
);
unicode = 83;
},
{
glyphname = T;
layers = (
{
layerId = m002;
shapes = (
{
closed = 1;
nodes = (
(271,0,o),
(294,33,o),
(297,63,cs),
(359,651,l),
(492,651,ls),
(537,651,o),
(559,678,o),
(559,711,cs),
(559,748,o),
(526,772,o),
(484,772,cs),
(98,772,ls),
(56,772,o),
(34,747,o),
(33,711,cs),
(32,677,o),
(63,651,o),
(106,651,cs),
(218,651,l),
(158,72,ls),
(154,33,o),
(183,0,o),
(226,0,cs)
);
},
{
closed = 1;
nodes = (
(190,15,o),
(169,38,o),
(172,70,cs),
(233,664,ls),
(233,666,o),
(233,666,o),
(232,666,cs),
(106,666,ls),
(69,666,o),
(46,683,o),
(47,710,cs),
(48,742,o),
(63,758,o),
(98,758,cs),
(484,758,ls),
(520,758,o),
(544,741,o),
(544,711,cs),
(544,684,o),
(529,666,o),
(492,666,cs),
(348,666,ls),
(345,666,o),
(345,666,o),
(345,663,cs),
(283,64,ls),
(280,39,o),
(264,15,o),
(226,15,cs)
);
}
);
vertWidth = 0;
width = 538;
},
{
layerId = m003;
shapes = (
{
closed = 1;
nodes = (
(271,0,o),
(294,33,o),
(297,63,cs),
(359,651,l),
(492,651,ls),
(537,651,o),
(559,678,o),
(559,711,cs),
(559,748,o),
(526,772,o),
(484,772,cs),
(98,772,ls),
(56,772,o),
(34,747,o),
(33,711,cs),
(32,677,o),
(63,651,o),
(106,651,cs),
(218,651,l),
(158,72,ls),
(154,33,o),
(183,0,o),
(226,0,cs)
);
},
{
closed = 1;
nodes = (
(204,35,o),
(195,45,o),
(197,68,cs),
(258,662,ls),
(260,679,o),
(246,686,o),
(232,686,cs),
(106,686,ls),
(81,686,o),
(71,692,o),
(72,710,cs),
(73,735,o),
(78,738,o),
(98,738,cs),
(484,738,ls),
(508,738,o),
(519,732,o),
(519,711,cs),
(519,690,o),
(514,686,o),
(492,686,cs),
(348,686,ls),
(335,686,o),
(322,680,o),
(320,665,cs),
(258,66,ls),
(256,46,o),
(249,35,o),
(226,35,cs)
);
}
);
vertWidth = 0;
width = 538;
},
{
layerId = m004;
shapes = (
{
closed = 1;
nodes = (
(271,0,o),
(294,33,o),
(297,63,cs),
(359,651,l),
(492,651,ls),
(537,651,o),
(559,680,o),
(559,713,cs),
(559,750,o),
(526,772,o),
(484,772,cs),
(98,772,ls),
(56,772,o),
(34,749,o),
(33,713,cs),
(32,679,o),
(63,651,o),
(106,651,cs),
(218,651,l),
(158,72,ls),
(154,33,o),
(183,0,o),
(226,0,cs)
);
},
{
closed = 1;
nodes = (
(196,25,o),
(179,43,o),
(182,69,cs),
(243,663,ls),
(244,671,o),
(240,676,o),
(232,676,cs),
(106,676,ls),
(74,676,o),
(56,691,o),
(57,712,cs),
(58,739,o),
(69,748,o),
(98,748,cs),
(484,748,ls),
(515,748,o),
(534,737,o),
(534,713,cs),
(534,690,o),
(523,676,o),
(492,676,cs),
(348,676,ls),
(340,676,o),
(336,672,o),
(335,664,cs),
(273,65,ls),
(271,44,o),
(258,25,o),
(226,25,cs)
);
}
);
vertWidth = 0;
width = 538;
}
);
unicode = 84;
},
{
glyphname = U;
kernLeft = H_left;
kernRight = H_right;
layers = (
{
layerId = m002;
shapes = (
{
closed = 1;
nodes = (
(294,-5,o),
(379,83,o),
(461,220,c),
(445,69,ls),
(440,22,o),
(476,0,o),
(515,0,cs),
(547,0,o),
(579,16,o),
(584,61,cs),
(653,704,ls),
(657,743,o),
(629,772,o),
(583,772,cs),
(546,772,o),
(516,751,o),
(513,718,cs),
(502,613,l),
(465,385,o),
(265,123,o),
(224,123,cs),
(209,123,o),
(207,156,o),
(216,235,cs),
(268,702,ls),
(273,743,o),
(241,772,o),
(200,772,cs),
(155,774,o),
(132,736,o),
(129,711,cs),
(76,238,ls),
(58,73,o),
(101,-5,o),
(208,-5,cs)
);
},
{
closed = 1;
nodes = (
(111,9,o),
(72,74,o),
(90,236,cs),
(143,710,ls),
(145,730,o),
(162,759,o),
(200,758,cs),
(234,758,o),
(257,737,o),
(253,703,cs),
(202,237,ls),
(192,146,o),
(196,108,o),
(224,108,cs),
(276,108,o),
(479,378,o),
(517,610,c),
(527,716,ls),
(530,743,o),
(550,758,o),
(583,758,cs),
(623,758,o),
(643,738,o),
(639,705,cs),
(570,62,ls),
(566,26,o),
(544,14,o),
(515,14,cs),
(481,14,o),
(455,30,o),
(459,68,cs),
(480,264,ls),
(480,267,o),
(480,268,o),
(477,269,cs),
(474,270,o),
(473,269,o),
(471,266,cs),
(384,108,o),
(295,9,o),
(208,9,cs)
);
}
);
vertWidth = 0;
width = 715;
},
{
layerId = m003;
shapes = (
{
closed = 1;
nodes = (
(294,-5,o),
(379,83,o),
(461,220,c),
(445,69,ls),
(440,22,o),
(476,0,o),
(515,0,cs),
(547,0,o),
(579,16,o),
(584,61,cs),
(653,704,ls),
(657,743,o),
(629,772,o),
(583,772,cs),
(546,772,o),
(516,751,o),
(513,718,cs),
(502,613,l),
(465,385,o),
(265,123,o),
(224,123,cs),
(209,123,o),
(207,156,o),
(216,235,cs),
(268,702,ls),
(273,743,o),
(241,772,o),
(200,772,cs),
(155,774,o),
(132,736,o),
(129,711,cs),
(76,238,ls),
(58,73,o),
(101,-5,o),
(208,-5,cs)
);
},
{
closed = 1;
nodes = (
(127,29,o),
(98,81,o),
(115,234,cs),
(168,708,ls),
(170,724,o),
(179,739,o),
(200,738,cs),
(222,738,o),
(231,729,o),
(228,705,cs),
(177,239,ls),
(167,144,o),
(171,88,o),
(224,88,cs),
(297,88,o),
(503,373,o),
(542,608,c),
(552,714,ls),
(554,732,o),
(562,738,o),
(583,738,cs),
(609,738,o),
(617,731,o),
(614,707,cs),
(545,64,ls),
(542,38,o),
(535,34,o),
(515,34,cs),
(491,34,o),
(481,40,o),
(484,66,cs),
(505,263,ls),
(507,278,o),
(496,283,o),
(484,287,cs),
(472,291,o),
(456,288,o),
(449,276,cs),
(362,119,o),
(282,29,o),
(208,29,cs)
);
}
);
vertWidth = 0;
width = 715;
},
{
layerId = m004;
shapes = (
{
closed = 1;
nodes = (
(294,-5,o),
(379,83,o),
(461,220,c),
(445,69,ls),
(440,22,o),
(476,0,o),
(515,0,cs),
(547,0,o),
(579,16,o),
(584,61,cs),
(653,704,ls),
(657,743,o),
(629,772,o),
(583,772,cs),
(546,772,o),
(516,751,o),
(513,718,cs),
(502,613,l),
(465,385,o),
(265,123,o),
(224,123,cs),
(209,123,o),
(207,156,o),
(216,235,cs),
(268,702,ls),
(273,743,o),
(241,772,o),
(200,772,cs),
(155,774,o),
(132,736,o),
(129,711,cs),
(76,238,ls),
(58,73,o),
(101,-5,o),
(208,-5,cs)
);
},
{
closed = 1;
nodes = (
(117,19,o),
(83,80,o),
(100,235,cs),
(153,709,ls),
(155,726,o),
(169,749,o),
(200,748,cs),
(229,748,o),
(246,732,o),
(243,704,cs),
(192,238,ls),
(182,146,o),
(187,98,o),
(224,98,cs),
(281,98,o),
(488,374,o),
(527,609,c),
(537,715,ls),
(539,736,o),
(555,748,o),
(583,748,cs),
(617,748,o),
(632,733,o),
(629,706,cs),
(560,63,ls),
(557,33,o),
(540,24,o),
(515,24,cs),
(485,24,o),
(466,36,o),
(469,67,cs),
(490,263,ls),
(491,271,o),
(487,275,o),
(480,277,cs),
(471,280,o),
(466,278,o),
(462,271,cs),
(376,115,o),
(290,19,o),
(208,19,cs)
);
}
);
vertWidth = 0;
width = 715;
}
);
unicode = 85;
},
{
glyphname = V;
kernLeft = V_left;
kernRight = V_right;
layers = (
{
layerId = m002;
shapes = (
{
closed = 1;
nodes = (
(271,0,o),
(294,24,o),
(304,49,cs),
(568,691,ls),
(588,740,o),
(555,772,o),
(511,772,cs),
(473,772,o),
(445,759,o),
(433,731,cs),
(281,369,l),
(263,317,l),
(257,366,l),
(200,720,ls),
(195,752,o),
(165,772,o),
(123,772,cs),
(82,772,o),
(54,752,o),
(61,709,cs),
(163,63,ls),
(168,31,o),
(190,2,o),
(232,0,cs)
);
},
{
closed = 1;
nodes = (
(198,15,o),
(181,37,o),
(177,65,cs),
(75,711,ls),
(70,745,o),
(88,758,o),
(123,758,cs),
(160,758,o),
(182,744,o),
(186,718,cs),
(243,364,l),
(254,275,ls),
(254,273,o),
(255,270,o),
(257,270,cs),
(260,270,o),
(261,271,o),
(262,274,cs),
(295,364,l),
(447,726,ls),
(457,749,o),
(477,758,o),
(511,758,cs),
(548,758,o),
(572,737,o),
(555,696,cs),
(290,54,ls),
(281,33,o),
(265,15,o),
(232,15,cs)
);
}
);
vertWidth = 0;
width = 559;
},
{
layerId = m003;
shapes = (
{
closed = 1;
nodes = (
(271,0,o),
(294,24,o),
(304,49,cs),
(568,691,ls),
(588,740,o),
(555,772,o),
(511,772,cs),
(473,772,o),
(445,759,o),
(433,731,cs),
(281,369,l),
(263,317,l),
(257,366,l),
(200,720,ls),
(195,752,o),
(165,772,o),
(123,772,cs),
(82,772,o),
(54,752,o),
(61,709,cs),
(163,63,ls),
(168,31,o),
(190,2,o),
(232,0,cs)
);
},
{
closed = 1;
nodes = (
(213,35,o),
(206,44,o),
(202,69,cs),
(100,715,ls),
(97,737,o),
(104,738,o),
(123,738,cs),
(148,738,o),
(158,733,o),
(161,714,cs),
(218,362,l),
(229,273,ls),
(231,260,o),
(243,250,o),
(254,248,cs),
(267,247,o),
(281,255,o),
(286,268,cs),
(318,356,l),
(470,718,ls),
(477,736,o),
(486,738,o),
(511,738,cs),
(534,738,o),
(543,732,o),
(532,704,cs),
(267,62,ls),
(259,43,o),
(252,35,o),
(232,35,cs)
);
}
);
vertWidth = 0;
width = 559;
},
{
layerId = m004;
shapes = (
{
closed = 1;
nodes = (
(271,0,o),
(294,24,o),
(304,49,cs),
(568,691,ls),
(588,740,o),
(555,772,o),
(511,772,cs),
(473,772,o),
(445,759,o),
(433,731,cs),
(281,369,l),
(263,317,l),
(257,366,l),
(200,720,ls),
(195,752,o),
(165,772,o),
(123,772,cs),
(82,772,o),
(54,752,o),
(61,709,cs),
(163,63,ls),
(168,31,o),
(190,2,o),
(232,0,cs)
);
},
{
closed = 1;
nodes = (
(204,25,o),
(191,42,o),
(187,67,cs),
(85,713,ls),
(81,740,o),
(93,748,o),
(123,748,cs),
(155,748,o),
(173,737,o),
(176,716,cs),
(233,363,l),
(244,274,ls),
(245,267,o),
(249,263,o),
(256,262,cs),
(265,261,o),
(270,264,o),
(272,271,cs),
(304,360,l),
(456,722,ls),
(464,741,o),
(481,748,o),
(511,748,cs),
(542,748,o),
(560,733,o),
(546,700,cs),
(281,58,ls),
(273,39,o),
(260,25,o),
(232,25,cs)
);
}
);
vertWidth = 0;
width = 559;
}
);
unicode = 86;
},
{
glyphname = W;
kernLeft = V_left;
kernRight = V_right;
layers = (
{
layerId = m002;
shapes = (
{
closed = 1;
nodes = (
(276,0,o),
(309,20,o),
(323,58,cs),
(486,488,l),
(552,48,ls),
(556,22,o),
(582,0,o),
(622,0,cs),
(664,0,o),
(683,18,o),
(695,46,cs),
(958,689,ls),
(972,724,o),
(951,772,o),
(898,772,cs),
(854,772,o),
(830,745,o),
(823,727,cs),
(667,335,l),
(649,286,l),
(644,332,l),
(589,718,ls),
(584,753,o),
(553,772,o),
(509,772,cs),
(466,772,o),
(444,750,o),
(433,722,cs),
(285,336,l),
(261,271,l),
(253,337,l),
(200,717,ls),
(195,750,o),
(166,772,o),
(124,772,cs),
(83,772,o),
(54,750,o),
(61,707,cs),
(159,61,ls),
(165,22,o),
(192,0,o),
(236,0,cs)
);
},
{
closed = 1;
nodes = (
(197,15,o),
(178,30,o),
(173,64,cs),
(75,710,ls),
(70,744,o),
(89,758,o),
(124,758,cs),
(161,758,o),
(182,743,o),
(186,715,cs),
(239,335,l),
(251,233,ls),
(251,230,o),
(253,227,o),
(257,227,cs),
(261,227,o),
(262,230,o),
(263,233,cs),
(299,331,l),
(447,717,ls),
(457,742,o),
(472,758,o),
(509,758,cs),
(548,758,o),
(571,744,o),
(575,715,cs),
(630,330,l),
(638,249,ls),
(638,245,o),
(640,242,o),
(644,242,cs),
(648,242,o),
(649,245,o),
(651,249,cs),
(681,330,l),
(837,722,ls),
(843,738,o),
(861,758,o),
(898,758,cs),
(941,758,o),
(957,723,o),
(945,694,cs),
(681,51,ls),
(671,26,o),
(659,15,o),
(622,15,cs),
(589,15,o),
(569,29,o),
(566,50,cs),
(500,487,l),
(496,531,ls),
(496,535,o),
(495,539,o),
(491,539,cs),
(487,539,o),
(486,535,o),
(485,531,cs),
(470,488,l),
(309,62,ls),
(297,29,o),
(273,15,o),
(236,15,cs)
);
}
);
vertWidth = 0;
width = 948;
},
{
layerId = m003;
shapes = (
{
closed = 1;
nodes = (
(276,0,o),
(309,20,o),
(323,58,cs),
(486,488,l),
(552,48,ls),
(556,22,o),
(582,0,o),
(622,0,cs),
(664,0,o),
(683,18,o),
(695,46,cs),
(958,689,ls),
(972,724,o),
(951,772,o),
(898,772,cs),
(854,772,o),
(830,745,o),
(823,727,cs),
(667,335,l),
(649,286,l),
(644,332,l),
(589,718,ls),
(584,753,o),
(553,772,o),
(509,772,cs),
(466,772,o),
(444,750,o),
(433,722,cs),
(285,336,l),
(261,271,l),
(253,337,l),
(200,717,ls),
(195,750,o),
(166,772,o),
(124,772,cs),
(83,772,o),
(54,750,o),
(61,707,cs),
(159,61,ls),
(165,22,o),
(192,0,o),
(236,0,cs)
);
},
{
closed = 1;
nodes = (
(209,35,o),
(202,41,o),
(198,66,cs),
(100,712,ls),
(96,735,o),
(101,738,o),
(124,738,cs),
(150,738,o),
(158,732,o),
(161,713,cs),
(214,333,l),
(227,228,ls),
(229,215,o),
(241,207,o),
(255,207,cs),
(265,207,o),
(281,210,o),
(285,222,cs),
(322,323,l),
(470,709,ls),
(479,732,o),
(485,738,o),
(509,738,cs),
(538,738,o),
(547,733,o),
(550,713,cs),
(605,328,l),
(614,243,ls),
(615,229,o),
(629,222,o),
(643,222,cs),
(652,222,o),
(667,225,o),
(672,237,cs),
(704,322,l),
(860,714,ls),
(866,729,o),
(875,738,o),
(898,738,cs),
(922,738,o),
(930,721,o),
(922,702,cs),
(658,59,ls),
(649,37,o),
(647,35,o),
(622,35,cs),
(599,35,o),
(593,40,o),
(591,52,cs),
(525,489,l),
(520,537,ls),
(519,551,o),
(507,557,o),
(493,559,c),
(482,559,o),
(466,555,o),
(463,542,c),
(447,494,l),
(286,70,ls),
(275,42,o),
(264,35,o),
(236,35,cs)
);
}
);
vertWidth = 0;
width = 948;
},
{
layerId = m004;
shapes = (
{
closed = 1;
nodes = (
(276,0,o),
(309,20,o),
(323,58,cs),
(486,488,l),
(552,48,ls),
(556,22,o),
(582,0,o),
(622,0,cs),
(664,0,o),
(683,18,o),
(695,46,cs),
(958,689,ls),
(972,724,o),
(951,772,o),
(898,772,cs),
(854,772,o),
(830,745,o),
(823,727,cs),
(667,335,l),
(649,286,l),
(644,332,l),
(589,718,ls),
(584,753,o),
(553,772,o),
(509,772,cs),
(466,772,o),
(444,750,o),
(433,722,cs),
(285,336,l),
(261,271,l),
(253,337,l),
(200,717,ls),
(195,750,o),
(166,772,o),
(124,772,cs),
(83,772,o),
(54,750,o),
(61,707,cs),
(159,61,ls),
(165,22,o),
(192,0,o),
(236,0,cs)
);
},
{
closed = 1;
nodes = (
(202,25,o),
(187,37,o),
(183,65,cs),
(85,711,ls),
(81,738,o),
(94,748,o),
(124,748,cs),
(156,748,o),
(173,736,o),
(176,714,cs),
(229,334,l),
(242,229,ls),
(243,222,o),
(247,217,o),
(255,217,cs),
(263,217,o),
(268,219,o),
(271,226,cs),
(308,327,l),
(456,713,ls),
(465,736,o),
(477,748,o),
(509,748,cs),
(544,748,o),
(562,737,o),
(565,714,cs),
(620,329,l),
(629,244,ls),
(630,237,o),
(634,232,o),
(643,232,cs),
(650,232,o),
(655,234,o),
(658,241,cs),
(690,326,l),
(846,718,ls),
(852,732,o),
(866,748,o),
(898,748,cs),
(933,748,o),
(946,721,o),
(936,698,cs),
(672,55,ls),
(663,33,o),
(654,25,o),
(622,25,cs),
(593,25,o),
(578,36,o),
(576,51,cs),
(510,488,l),
(505,536,ls),
(504,544,o),
(501,548,o),
(492,549,cs),
(484,549,o),
(479,546,o),
(477,539,cs),
(461,491,l),
(300,66,ls),
(289,37,o),
(269,25,o),
(236,25,cs)
);
}
);
vertWidth = 0;
width = 948;
}
);
unicode = 87;
},
{
glyphname = X;
layers = (
{
layerId = m002;
shapes = (
{
closed = 1;
nodes = (
(502,24,o),
(514,53,o),
(499,87,cs),
(366,384,l),
(561,672,ls),
(583,705,o),
(573,735,o),
(546,757,cs),
(520,779,o),
(465,782,o),
(443,747,cs),
(303,525,l),
(209,735,ls),
(191,775,o),
(144,778,o),
(115,769,cs),
(78,755,o),
(61,726,o),
(80,683,cs),
(211,392,l),
(12,99,ls),
(-9,69,o),
(-2,40,o),
(24,18,cs),
(51,-4,o),
(106,-11,o),
(129,25,cs),
(273,251,l),
(368,40,ls),
(386,-1,o),
(442,-8,o),
(474,9,cs)
);
},
{
closed = 1;
nodes = (
(440,7,o),
(395,13,o),
(381,45,cs),
(281,269,ls),
(276,281,o),
(275,281,o),
(267,269,cs),
(117,32,ls),
(100,5,o),
(57,10,o),
(33,28,cs),
(11,47,o),
(7,66,o),
(24,91,cs),
(224,385,ls),
(227,389,o),
(227,391,o),
(223,399,cs),
(94,689,ls),
(78,725,o),
(88,743,o),
(120,755,cs),
(145,763,o),
(182,761,o),
(196,729,cs),
(294,511,ls),
(301,496,o),
(302,496,o),
(311,511,cs),
(456,738,ls),
(474,767,o),
(516,765,o),
(537,746,cs),
(561,727,o),
(567,707,o),
(549,680,cs),
(356,394,ls),
(351,387,o),
(351,384,o),
(354,377,cs),
(486,81,ls),
(499,52,o),
(491,34,o),
(467,21,cs)
);
}
);
vertWidth = 0;
width = 548;
},
{
layerId = m003;
shapes = (
{
closed = 1;
nodes = (
(502,24,o),
(514,53,o),
(499,87,cs),
(366,384,l),
(561,672,ls),
(583,705,o),
(574,735,o),
(547,757,cs),
(521,779,o),
(465,782,o),
(443,747,cs),
(303,525,l),
(209,735,ls),
(191,775,o),
(143,778,o),
(114,769,cs),
(77,755,o),
(61,726,o),
(80,683,cs),
(211,392,l),
(12,99,ls),
(-9,69,o),
(-2,40,o),
(24,18,cs),
(51,-4,o),
(108,-12,o),
(129,25,c),
(273,251,l),
(368,40,ls),
(386,-1,o),
(442,-8,o),
(474,9,cs)
);
},
{
closed = 1;
nodes = (
(435,29,o),
(413,32,o),
(404,53,cs),
(298,290,ls),
(291,306,o),
(263,307,o),
(254,292,cs),
(95,42,l),
(87,27,o),
(67,29,o),
(49,44,cs),
(35,56,o),
(34,64,o),
(44,79,cs),
(245,376,ls),
(252,387,o),
(253,392,o),
(248,402,cs),
(117,697,ls),
(105,723,o),
(108,729,o),
(127,737,cs),
(146,743,o),
(164,742,o),
(173,721,cs),
(278,486,ls),
(285,470,o),
(312,468,o),
(322,484,cs),
(477,728,ls),
(488,746,o),
(507,744,o),
(522,730,cs),
(538,718,o),
(541,709,o),
(529,692,cs),
(332,400,ls),
(326,391,o),
(323,386,o),
(329,373,cs),
(463,73,ls),
(472,54,o),
(469,47,o),
(455,39,cs)
);
}
);
vertWidth = 0;
width = 548;
},
{
layerId = m004;
shapes = (
{
closed = 1;
nodes = (
(502,24,o),
(514,53,o),
(499,87,cs),
(366,384,l),
(561,672,ls),
(583,705,o),
(574,735,o),
(547,757,cs),
(521,779,o),
(465,782,o),
(443,747,cs),
(303,525,l),
(209,735,ls),
(191,775,o),
(143,778,o),
(114,769,cs),
(77,755,o),
(61,726,o),
(80,683,cs),
(211,392,l),
(12,99,ls),
(-9,69,o),
(-2,40,o),
(24,18,cs),
(51,-4,o),
(106,-11,o),
(129,25,cs),
(273,251,l),
(368,40,ls),
(386,-1,o),
(442,-8,o),
(474,9,cs)
);
},
{
closed = 1;
nodes = (
(439,18,o),
(402,23,o),
(390,49,cs),
(284,286,ls),
(280,295,o),
(272,295,o),
(267,287,cs),
(108,37,ls),
(95,17,o),
(60,20,o),
(39,36,cs),
(21,52,o),
(18,65,o),
(32,85,cs),
(233,382,ls),
(237,387,o),
(237,392,o),
(234,398,cs),
(103,693,ls),
(90,723,o),
(96,736,o),
(122,746,cs),
(144,753,o),
(175,751,o),
(187,725,cs),
(292,490,ls),
(296,481,o),
(303,480,o),
(309,489,cs),
(464,733,ls),
(478,756,o),
(514,754,o),
(532,738,cs),
(552,722,o),
(556,708,o),
(541,686,cs),
(344,394,ls),
(340,389,o),
(340,384,o),
(343,377,cs),
(477,77,ls),
(487,54,o),
(482,41,o),
(462,30,cs)
);
}
);
vertWidth = 0;
width = 548;
}
);
unicode = 88;
},
{
glyphname = Y;
layers = (
{
layerId = m002;
shapes = (
{
closed = 1;
nodes = (
(134,-10,o),
(191,-3,o),
(211,31,cs),
(594,672,ls),
(614,705,o),
(603,744,o),
(567,765,cs),
(537,781,o),
(492,773,o),
(470,737,cs),
(311,473,l),
(196,731,ls),
(182,763,o),
(144,781,o),
(101,767,cs),
(58,752,o),
(51,711,o),
(66,679,cs),
(229,335,l),
(90,104,ls),
(72,75,o),
(79,35,o),
(105,13,cs)
);
},
{
closed = 1;
nodes = (
(93,42,o),
(87,72,o),
(102,97,cs),
(239,324,ls),
(244,333,o),
(244,336,o),
(240,344,cs),
(79,685,ls),
(66,713,o),
(72,741,o),
(106,753,cs),
(143,765,o),
(171,752,o),
(183,725,cs),
(302,459,ls),
(308,444,o),
(310,444,o),
(319,459,cs),
(482,729,ls),
(500,759,o),
(535,765,o),
(560,753,cs),
(591,735,o),
(598,707,o),
(582,679,cs),
(199,38,ls),
(182,10,o),
(138,4,o),
(115,24,cs)
);
}
);
vertWidth = 0;
width = 591;
},
{
layerId = m003;
shapes = (
{
closed = 1;
nodes = (
(134,-8,o),
(191,-1,o),
(211,33,cs),
(594,674,ls),
(614,707,o),
(603,746,o),
(567,767,cs),
(537,783,o),
(492,775,o),
(470,739,cs),
(311,475,l),
(196,733,ls),
(182,765,o),
(144,783,o),
(101,769,cs),
(58,754,o),
(51,713,o),
(66,681,cs),
(229,337,l),
(90,106,ls),
(72,77,o),
(79,37,o),
(105,15,cs)
);
},
{
closed = 1;
nodes = (
(117,53,o),
(113,72,o),
(124,89,cs),
(265,323,ls),
(271,332,o),
(271,338,o),
(265,348,c),
(102,695,ls),
(92,716,o),
(94,730,o),
(114,737,cs),
(139,746,o),
(151,740,o),
(160,719,cs),
(287,435,ls),
(294,419,o),
(321,418,o),
(330,433,cs),
(504,721,ls),
(517,743,o),
(532,745,o),
(548,737,cs),
(567,726,o),
(572,710,o),
(560,691,cs),
(177,50,ls),
(166,32,o),
(146,29,o),
(131,42,cs)
);
}
);
vertWidth = 0;
width = 591;
},
{
layerId = m004;
shapes = (
{
closed = 1;
nodes = (
(134,-10,o),
(191,-3,o),
(211,31,cs),
(594,672,ls),
(614,705,o),
(603,744,o),
(567,765,cs),
(537,781,o),
(492,773,o),
(470,737,cs),
(311,473,l),
(196,731,ls),
(182,763,o),
(143,783,o),
(101,767,cs),
(57,754,o),
(51,711,o),
(66,679,cs),
(229,335,l),
(90,104,ls),
(72,75,o),
(79,35,o),
(105,13,cs)
);
},
{
closed = 1;
nodes = (
(103,47,o),
(98,71,o),
(111,92,cs),
(252,326,ls),
(255,331,o),
(255,336,o),
(252,342,cs),
(88,689,ls),
(77,713,o),
(80,735,o),
(109,744,cs),
(140,756,o),
(164,744,o),
(174,721,cs),
(301,437,ls),
(305,428,o),
(312,428,o),
(317,436,cs),
(491,724,ls),
(506,749,o),
(535,754,o),
(555,744,cs),
(581,729,o),
(587,707,o),
(573,684,cs),
(190,43,ls),
(177,21,o),
(140,16,o),
(121,32,cs)
);
}
);
vertWidth = 0;
width = 591;
}
);
unicode = 89;
},
{
glyphname = Z;
layers = (
{
layerId = m002;
shapes = (
{
closed = 1;
nodes = (
(431,0,ls),
(476,0,o),
(497,29,o),
(497,62,cs),
(497,100,o),
(470,128,o),
(428,128,cs),
(183,128,l),
(555,670,ls),
(584,713,o),
(562,772,o),
(502,772,cs),
(127,772,ls),
(85,772,o),
(60,746,o),
(62,709,cs),
(63,676,o),
(92,649,o),
(135,649,cs),
(377,649,l),
(3,100,ls),
(-24,61,o),
(0,0,o),
(61,0,cs)
);
},
{
closed = 1;
nodes = (
(10,15,o),
(-7,60,o),
(15,92,cs),
(395,649,ls),
(404,663,o),
(404,664,o),
(387,664,cs),
(135,664,ls),
(98,664,o),
(77,682,o),
(76,710,cs),
(75,742,o),
(93,758,o),
(127,758,cs),
(502,758,ls),
(552,758,o),
(567,715,o),
(542,678,cs),
(165,129,ls),
(157,117,o),
(158,114,o),
(175,114,cs),
(428,114,ls),
(464,114,o),
(483,93,o),
(483,62,cs),
(483,34,o),
(468,15,o),
(431,15,cs),
(61,15,ls)
);
}
);
vertWidth = 0;
width = 554;
},
{
layerId = m003;
shapes = (
{
closed = 1;
nodes = (
(431,0,ls),
(476,0,o),
(497,29,o),
(497,62,cs),
(497,100,o),
(470,128,o),
(428,128,cs),
(183,128,l),
(555,670,ls),
(584,713,o),
(562,772,o),
(502,772,cs),
(127,772,ls),
(85,772,o),
(60,746,o),
(62,709,cs),
(63,676,o),
(92,649,o),
(135,649,cs),
(377,649,l),
(3,100,ls),
(-24,61,o),
(0,0,o),
(61,0,cs)
);
},
{
closed = 1;
nodes = (
(30,35,o),
(21,59,o),
(35,80,cs),
(426,654,ls),
(439,673,o),
(423,684,o),
(405,684,cs),
(135,684,ls),
(111,684,o),
(102,691,o),
(101,710,cs),
(100,731,o),
(106,738,o),
(127,738,cs),
(502,738,ls),
(531,738,o),
(540,716,o),
(522,690,cs),
(134,124,ls),
(121,105,o),
(137,94,o),
(155,94,cs),
(428,94,ls),
(450,94,o),
(458,85,o),
(458,65,cs),
(458,44,o),
(453,35,o),
(431,35,cs),
(61,35,ls)
);
}
);
vertWidth = 0;
width = 554;
},
{
layerId = m004;
shapes = (
{
closed = 1;
nodes = (
(431,0,ls),
(476,0,o),
(497,29,o),
(497,62,cs),
(497,100,o),
(470,128,o),
(428,128,cs),
(183,128,l),
(555,670,ls),
(584,713,o),
(562,772,o),
(502,772,cs),
(127,772,ls),
(85,772,o),
(60,743,o),
(62,706,cs),
(63,673,o),
(92,649,o),
(135,649,cs),
(377,649,l),
(3,100,ls),
(-24,61,o),
(0,0,o),
(61,0,cs)
);
},
{
closed = 1;
nodes = (
(19,25,o),
(5,60,o),
(23,86,cs),
(413,659,ls),
(418,667,o),
(415,674,o),
(405,674,cs),
(135,674,ls),
(103,674,o),
(87,685,o),
(86,707,cs),
(85,733,o),
(98,748,o),
(127,748,cs),
(502,748,ls),
(543,748,o),
(555,715,o),
(534,684,cs),
(147,119,ls),
(142,111,o),
(145,104,o),
(155,104,cs),
(428,104,ls),
(458,104,o),
(473,88,o),
(473,62,cs),
(473,39,o),
(462,25,o),
(431,25,cs),
(61,25,ls)
);
}
);
vertWidth = 0;
width = 554;
}
);
unicode = 90;
},
{
glyphname = a;
kernLeft = o_left;
kernRight = n_right;
layers = (
{
layerId = m002;
shapes = (
{
closed = 1;
nodes = (
(150,-5,o),
(181,11,o),
(206,32,c),
(216,13,o),
(237,0,o),
(266,0,cs),
(314,0,o),
(330,32,o),
(332,51,cs),
(362,341,ls),
(366,382,o),
(340,416,o),
(304,416,cs),
(230,416,ls),
(45,416,o),
(-5,273,o),
(-5,147,cs),
(-5,59,o),
(47,-5,o),
(113,-5,cs)
);
},
{
closed = 1;
nodes = (
(166,103,o),
(193,124,o),
(224,167,cs),
(227,171,o),
(227,172,o),
(228,177,cs),
(242,302,ls),
(243,309,o),
(242,313,o),
(239,313,cs),
(234,313,ls),
(129,313,o),
(105,220,o),
(105,157,cs),
(105,122,o),
(112,103,o),
(135,103,cs)
);
},
{
closed = 1;
nodes = (
(122,117,o),
(118,127,o),
(118,157,cs),
(118,216,o),
(139,296,o),
(228,299,c),
(214,176,l),
(184,134,o),
(161,117,o),
(135,117,cs)
);
},
{
closed = 1;
nodes = (
(53,9,o),
(8,66,o),
(8,147,cs),
(8,271,o),
(55,403,o),
(230,403,cs),
(304,403,ls),
(333,403,o),
(353,378,o),
(349,342,cs),
(318,54,ls),
(316,36,o),
(305,13,o),
(266,13,cs),
(239,13,o),
(222,25,o),
(218,38,cs),
(216,45,o),
(215,48,o),
(210,50,cs),
(206,51,o),
(204,48,o),
(200,44,cs),
(180,27,o),
(150,9,o),
(113,9,cs)
);
}
);
vertWidth = 0;
width = 441;
},
{
background = {
shapes = (
{
closed = 1;
nodes = (
(151,-5,o),
(186,18,o),
(214,45,c),
(214,21,o),
(235,0,o),
(270,0,cs),
(312,0,o),
(324,26,o),
(327,44,cs),
(359,350,ls),
(362,386,o),
(340,416,o),
(310,416,cs),
(232,416,ls),
(46,416,o),
(-5,274,o),
(-5,143,cs),
(-5,57,o),
(46,-5,o),
(108,-5,cs)
);
},
{
closed = 1;
nodes = (
(101,219,o),
(127,317,o),
(236,317,cs),
(244,317,l),
(227,170,l),
(193,122,o),
(163,99,o),
(131,99,cs),
(109,99,o),
(101,120,o),
(101,154,cs)
);
}
);
};
layerId = m003;
shapes = (
{
closed = 1;
nodes = (
(150,-5,o),
(181,11,o),
(206,32,c),
(216,13,o),
(237,0,o),
(266,0,cs),
(314,0,o),
(330,32,o),
(332,51,cs),
(362,341,ls),
(365,382,o),
(340,416,o),
(304,416,cs),
(230,416,ls),
(45,416,o),
(-5,273,o),
(-5,147,cs),
(-5,59,o),
(47,-5,o),
(113,-5,cs)
);
},
{
closed = 1;
nodes = (
(176,83,o),
(212,111,o),
(244,155,cs),
(250,162,o),
(252,166,o),
(253,175,cs),
(268,309,ls),
(270,326,o),
(256,333,o),
(242,333,cs),
(234,333,ls),
(108,333,o),
(80,223,o),
(80,157,cs),
(80,117,o),
(93,83,o),
(135,83,cs)
);
},
{
closed = 1;
nodes = (
(122,117,o),
(118,127,o),
(118,157,cs),
(118,216,o),
(139,296,o),
(228,299,c),
(214,176,l),
(184,134,o),
(161,117,o),
(135,117,cs)
);
},
{
closed = 1;
nodes = (
(69,29,o),
(33,72,o),
(33,147,cs),
(33,267,o),
(75,383,o),
(230,383,cs),
(304,383,ls),
(317,383,o),
(326,371,o),
(324,344,cs),
(293,56,ls),
(291,42,o),
(287,33,o),
(266,33,cs),
(249,33,o),
(244,37,o),
(240,48,cs),
(237,57,o),
(234,62,o),
(223,67,cs),
(210,71,o),
(196,71,o),
(188,64,cs),
(162,43,o),
(142,29,o),
(113,29,cs)
);
}
);
vertWidth = 0;
width = 441;
},
{
background = {
shapes = (
{
closed = 1;
nodes = (
(151,-5,o),
(186,18,o),
(214,45,c),
(214,21,o),
(235,0,o),
(270,0,cs),
(312,0,o),
(324,26,o),
(327,44,cs),
(359,350,ls),
(362,386,o),
(340,416,o),
(310,416,cs),
(232,416,ls),
(46,416,o),
(-5,274,o),
(-5,143,cs),
(-5,57,o),
(46,-5,o),
(108,-5,cs)
);
},
{
closed = 1;
nodes = (
(101,219,o),
(127,317,o),
(236,317,cs),
(244,317,l),
(227,170,l),
(193,122,o),
(163,99,o),
(131,99,cs),
(109,99,o),
(101,120,o),
(101,154,cs)
);
}
);
};
layerId = m004;
shapes = (
{
closed = 1;
nodes = (
(150,-5,o),
(181,11,o),
(206,32,c),
(216,13,o),
(237,0,o),
(266,0,cs),
(314,0,o),
(328,32,o),
(332,51,cs),
(362,341,ls),
(365,382,o),
(340,416,o),
(304,416,cs),
(230,416,ls),
(45,416,o),
(-5,273,o),
(-5,147,cs),
(-5,59,o),
(47,-5,o),
(113,-5,cs)
);
},
{
closed = 1;
nodes = (
(169,93,o),
(200,117,o),
(232,161,cs),
(236,166,o),
(237,170,o),
(238,176,cs),
(253,310,ls),
(254,318,o),
(250,323,o),
(242,323,cs),
(234,323,ls),
(121,323,o),
(95,221,o),
(95,157,cs),
(95,120,o),
(105,93,o),
(135,93,cs)
);
},
{
closed = 1;
nodes = (
(122,117,o),
(118,127,o),
(118,157,cs),
(118,216,o),
(139,296,o),
(228,299,c),
(214,176,l),
(184,134,o),
(161,117,o),
(135,117,cs)
);
},
{
closed = 1;
nodes = (
(60,19,o),
(18,70,o),
(18,147,cs),
(18,268,o),
(63,393,o),
(230,393,cs),
(304,393,ls),
(326,393,o),
(341,373,o),
(339,343,cs),
(308,55,ls),
(306,40,o),
(298,23,o),
(266,23,cs),
(243,23,o),
(230,32,o),
(226,45,cs),
(224,51,o),
(222,55,o),
(216,58,cs),
(208,61,o),
(203,60,o),
(198,56,cs),
(174,35,o),
(147,19,o),
(113,19,cs)
);
}
);
vertWidth = 0;
width = 441;
}
);
unicode = 97;
},
{
glyphname = b;
kernLeft = h_left;
kernRight = o_right;
layers = (
{
layerId = m002;
shapes = (
{
closed = 1;
nodes = (
(146,0,ls),
(316,0,o),
(388,137,o),
(388,286,cs),
(388,369,o),
(337,421,o),
(269,421,cs),
(239,421,o),
(205,404,o),
(176,383,c),
(209,683,ls),
(214,728,o),
(186,753,o),
(150,753,cs),
(124,753,o),
(85,739,o),
(80,694,cs),
(13,62,ls),
(9,25,o),
(36,0,o),
(73,0,cs)
);
},
{
closed = 1;
nodes = (
(147,101,ls),
(272,101,o),
(282,203,o),
(282,260,cs),
(282,293,o),
(271,313,o),
(248,313,cs),
(229,313,o),
(192,295,o),
(149,238,cs),
(147,235,o),
(147,234,o),
(146,229,cs),
(133,111,ls),
(132,103,o),
(133,101,o),
(135,101,cs)
);
},
{
closed = 1;
nodes = (
(159,229,l),
(199,282,o),
(234,299,o),
(248,299,cs),
(262,299,o),
(268,288,o),
(268,260,cs),
(268,205,o),
(259,117,o),
(147,115,c)
);
},
{
closed = 1;
nodes = (
(41,13,o),
(24,31,o),
(27,60,cs),
(94,692,ls),
(98,729,o),
(126,739,o),
(150,739,cs),
(181,739,o),
(199,723,o),
(195,685,cs),
(161,365,ls),
(159,351,o),
(160,351,o),
(174,365,cs),
(187,378,o),
(231,407,o),
(269,407,cs),
(330,407,o),
(375,362,o),
(375,286,cs),
(375,141,o),
(308,13,o),
(146,13,cs),
(73,13,ls)
);
}
);
vertWidth = 0;
width = 459;
},
{
layerId = m003;
shapes = (
{
closed = 1;
nodes = (
(146,0,ls),
(316,0,o),
(388,137,o),
(388,286,cs),
(388,369,o),
(337,421,o),
(269,421,cs),
(239,421,o),
(205,404,o),
(176,383,c),
(209,683,ls),
(213,728,o),
(186,753,o),
(150,753,cs),
(124,753,o),
(86,739,o),
(80,694,cs),
(13,62,ls),
(8,25,o),
(36,0,o),
(73,0,cs)
);
},
{
closed = 1;
nodes = (
(143,81,ls),
(295,81,o),
(307,203,o),
(307,260,cs),
(307,301,o),
(287,333,o),
(248,333,cs),
(221,333,o),
(174,311,o),
(129,250,cs),
(125,245,o),
(121,239,o),
(121,230,c),
(107,105,ls),
(105,88,o),
(119,81,o),
(132,81,cs)
);
},
{
closed = 1;
nodes = (
(159,229,l),
(199,282,o),
(234,299,o),
(248,299,cs),
(262,299,o),
(268,288,o),
(268,260,cs),
(268,205,o),
(259,117,o),
(147,115,c)
);
},
{
closed = 1;
nodes = (
(55,33,o),
(49,38,o),
(52,58,cs),
(119,690,ls),
(121,715,o),
(132,719,o),
(150,719,cs),
(168,719,o),
(173,714,o),
(170,687,cs),
(133,345,ls),
(131,320,o),
(161,319,o),
(172,331,cs),
(204,364,o),
(240,387,o),
(269,387,cs),
(317,387,o),
(350,354,o),
(350,286,cs),
(350,146,o),
(291,33,o),
(146,33,cs),
(73,33,ls)
);
}
);
vertWidth = 0;
width = 459;
},
{
layerId = m004;
shapes = (
{
closed = 1;
nodes = (
(146,0,ls),
(316,0,o),
(388,137,o),
(388,286,cs),
(388,369,o),
(337,421,o),
(269,421,cs),
(239,421,o),
(205,404,o),
(176,383,c),
(209,683,ls),
(213,728,o),
(186,753,o),
(150,753,cs),
(124,753,o),
(86,739,o),
(80,694,cs),
(13,62,ls),
(8,25,o),
(36,0,o),
(73,0,cs)
);
},
{
closed = 1;
nodes = (
(143,91,ls),
(281,91,o),
(292,203,o),
(292,260,cs),
(292,296,o),
(277,323,o),
(248,323,cs),
(227,323,o),
(185,303,o),
(141,244,cs),
(138,240,o),
(136,236,o),
(136,230,cs),
(122,104,ls),
(121,96,o),
(125,91,o),
(132,91,cs)
);
},
{
closed = 1;
nodes = (
(159,229,l),
(199,282,o),
(234,299,o),
(248,299,cs),
(262,299,o),
(268,288,o),
(268,260,cs),
(268,205,o),
(259,117,o),
(147,115,c)
);
},
{
closed = 1;
nodes = (
(47,23,o),
(34,36,o),
(37,59,cs),
(104,691,ls),
(107,721,o),
(129,729,o),
(150,729,cs),
(175,729,o),
(188,717,o),
(185,686,cs),
(148,344,ls),
(147,333,o),
(154,330,o),
(161,338,cs),
(193,370,o),
(234,397,o),
(269,397,cs),
(325,397,o),
(365,357,o),
(365,286,cs),
(365,145,o),
(301,23,o),
(146,23,cs),
(73,23,ls)
);
}
);
vertWidth = 0;
width = 459;
}
);
unicode = 98;
},
{
glyphname = c;
kernLeft = o_left;
layers = (
{
layerId = m002;
shapes = (
{
closed = 1;
nodes = (
(191,-5,o),
(258,67,o),
(299,142,cs),
(308,158,o),
(307,197,o),
(270,215,cs),
(236,233,o),
(200,225,o),
(187,201,cs),
(163,155,o),
(134,117,o),
(120,117,cs),
(111,117,o),
(106,126,o),
(108,143,cs),
(113,194,o),
(124,296,o),
(179,296,cs),
(191,296,o),
(223,294,o),
(248,291,cs),
(271,287,o),
(301,286,o),
(315,326,cs),
(330,368,o),
(311,396,o),
(288,404,cs),
(271,410,o),
(223,416,o),
(188,416,cs),
(31,416,o),
(-2,276,o),
(-15,148,cs),
(-28,31,o),
(49,-5,o),
(109,-5,cs)
);
},
{
closed = 1;
nodes = (
(53,9,o),
(-14,39,o),
(-1,146,cs),
(12,273,o),
(43,403,o),
(188,403,cs),
(223,403,o),
(267,397,o),
(283,391,cs),
(303,385,o),
(314,365,o),
(302,331,cs),
(291,301,o),
(273,301,o),
(250,304,cs),
(225,307,o),
(192,310,o),
(179,310,cs),
(111,310,o),
(100,197,o),
(94,144,cs),
(92,118,o),
(104,103,o),
(120,103,cs),
(142,103,o),
(174,147,o),
(199,195,cs),
(208,212,o),
(234,218,o),
(264,203,cs),
(293,189,o),
(295,162,o),
(287,148,cs),
(248,76,o),
(185,9,o),
(109,9,cs)
);
}
);
vertWidth = 0;
width = 370;
},
{
layerId = m003;
shapes = (
{
closed = 1;
nodes = (
(191,-5,o),
(258,67,o),
(299,142,cs),
(308,158,o),
(307,197,o),
(270,215,cs),
(236,233,o),
(200,225,o),
(187,201,cs),
(163,155,o),
(134,117,o),
(120,117,cs),
(111,117,o),
(106,126,o),
(108,143,cs),
(113,194,o),
(124,296,o),
(179,296,cs),
(191,296,o),
(223,294,o),
(248,291,cs),
(271,287,o),
(301,286,o),
(315,326,cs),
(330,368,o),
(311,396,o),
(288,404,cs),
(271,410,o),
(223,416,o),
(188,416,cs),
(31,416,o),
(-2,276,o),
(-15,148,cs),
(-28,31,o),
(49,-5,o),
(109,-5,cs)
);
},
{
closed = 1;
nodes = (
(60,29,o),
(13,51,o),
(24,144,cs),
(37,270,o),
(64,383,o),
(188,383,cs),
(221,383,o),
(260,377,o),
(275,373,c),
(282,370,o),
(287,362,o),
(279,337,cs),
(273,321,o),
(273,321,o),
(253,324,cs),
(228,327,o),
(193,330,o),
(179,330,cs),
(86,330,o),
(75,199,o),
(69,146,cs),
(66,107,o),
(92,83,o),
(120,83,cs),
(159,83,o),
(197,139,o),
(221,185,cs),
(226,194,o),
(232,196,o),
(253,185,cs),
(268,178,o),
(269,164,o),
(265,158,cs),
(226,86,o),
(172,29,o),
(109,29,cs)
);
}
);
vertWidth = 0;
width = 370;
},
{
layerId = m004;
shapes = (
{
closed = 1;
nodes = (
(191,-5,o),
(258,67,o),
(299,142,cs),
(308,158,o),
(307,197,o),
(270,215,cs),
(236,233,o),
(200,225,o),
(187,201,cs),
(163,155,o),
(134,117,o),
(120,117,cs),
(111,117,o),
(106,126,o),
(108,143,cs),
(113,194,o),
(124,296,o),
(179,296,cs),
(191,296,o),
(223,294,o),
(248,291,cs),
(271,287,o),
(301,286,o),
(315,326,cs),
(330,368,o),
(311,396,o),
(288,404,cs),
(271,410,o),
(223,416,o),
(188,416,cs),
(31,416,o),
(-2,276,o),
(-15,148,cs),
(-28,31,o),
(49,-5,o),
(109,-5,cs)
);
},
{
closed = 1;
nodes = (
(56,19,o),
(-3,46,o),
(9,145,cs),
(22,271,o),
(51,393,o),
(188,393,cs),
(222,393,o),
(265,387,o),
(280,382,cs),
(294,377,o),
(303,363,o),
(293,334,cs),
(284,311,o),
(273,311,o),
(251,314,cs),
(226,317,o),
(192,320,o),
(179,320,cs),
(102,320,o),
(90,198,o),
(84,145,cs),
(82,115,o),
(99,93,o),
(120,93,cs),
(147,93,o),
(183,142,o),
(208,190,cs),
(214,202,o),
(234,207,o),
(260,194,cs),
(283,183,o),
(284,163,o),
(278,153,cs),
(240,82,o),
(180,19,o),
(109,19,cs)
);
}
);
vertWidth = 0;
width = 370;
}
);
unicode = 99;
},
{
glyphname = d;
kernLeft = o_left;
layers = (
{
layerId = m002;
shapes = (
{
closed = 1;
nodes = (
(147,-5,o),
(180,11,o),
(208,33,c),
(218,10,o),
(241,0,o),
(263,0,cs),
(293,0,o),
(327,21,o),
(331,59,cs),
(397,683,ls),
(402,727,o),
(370,753,o),
(333,753,cs),
(304,753,o),
(272,739,o),
(268,700,cs),
(239,416,l),
(228,416,ls),
(43,416,o),
(-10,260,o),
(-10,129,cs),
(-10,27,o),
(57,-5,o),
(114,-5,cs)
);
},
{
closed = 1;
nodes = (
(154,103,o),
(183,116,o),
(222,170,cs),
(227,177,o),
(228,180,o),
(229,186,cs),
(241,299,ls),
(242,306,o),
(240,308,o),
(237,308,cs),
(232,308,ls),
(117,308,o),
(101,208,o),
(101,148,cs),
(101,123,o),
(110,103,o),
(132,103,cs)
);
},
{
closed = 1;
nodes = (
(120,117,o),
(115,128,o),
(115,148,cs),
(115,206,o),
(129,291,o),
(227,294,c),
(215,183,l),
(176,128,o),
(150,117,o),
(132,117,cs)
);
},
{
closed = 1;
nodes = (
(61,9,o),
(4,36,o),
(4,129,cs),
(4,257,o),
(53,403,o),
(228,403,cs),
(243,403,ls),
(249,403,o),
(251,405,o),
(252,411,cs),
(281,698,ls),
(284,730,o),
(308,739,o),
(333,739,cs),
(365,739,o),
(386,720,o),
(384,684,c),
(318,61,ls),
(315,29,o),
(288,13,o),
(263,13,cs),
(243,13,o),
(224,21,o),
(218,44,cs),
(217,48,o),
(217,49,o),
(214,51,cs),
(211,53,o),
(209,52,o),
(207,50,cs),
(179,26,o),
(147,9,o),
(114,9,cs)
);
}
);
vertWidth = 0;
width = 447;
},
{
layerId = m003;
shapes = (
{
closed = 1;
nodes = (
(147,-5,o),
(180,11,o),
(208,33,c),
(218,10,o),
(241,0,o),
(263,0,cs),
(293,0,o),
(327,21,o),
(331,59,cs),
(397,683,ls),
(401,727,o),
(370,753,o),
(333,753,cs),
(304,753,o),
(271,739,o),
(268,700,cs),
(239,416,l),
(228,416,ls),
(43,416,o),
(-10,260,o),
(-10,129,cs),
(-10,27,o),
(57,-5,o),
(114,-5,cs)
);
},
{
closed = 1;
nodes = (
(162,83,o),
(201,100,o),
(245,162,cs),
(250,169,o),
(253,172,o),
(254,181,cs),
(267,305,ls),
(269,321,o),
(255,328,o),
(241,328,cs),
(232,328,ls),
(95,328,o),
(76,210,o),
(76,148,cs),
(76,117,o),
(92,83,o),
(132,83,cs)
);
},
{
closed = 1;
nodes = (
(120,117,o),
(115,128,o),
(115,148,cs),
(115,206,o),
(129,291,o),
(227,294,c),
(215,183,l),
(176,128,o),
(150,117,o),
(132,117,cs)
);
},
{
closed = 1;
nodes = (
(68,29,o),
(29,48,o),
(29,129,cs),
(29,254,o),
(73,383,o),
(228,383,cs),
(249,383,ls),
(261,383,o),
(274,389,o),
(276,403,cs),
(306,696,ls),
(308,716,o),
(315,719,o),
(333,719,cs),
(352,719,o),
(361,712,o),
(359,686,cs),
(293,63,ls),
(290,40,o),
(279,33,o),
(263,33,cs),
(250,33,o),
(246,35,o),
(243,48,cs),
(241,57,o),
(235,62,o),
(227,67,cs),
(214,73,o),
(198,71,o),
(190,64,cs),
(165,40,o),
(139,29,o),
(114,29,cs)
);
}
);
vertWidth = 0;
width = 447;
},
{
layerId = m004;
shapes = (
{
closed = 1;
nodes = (
(147,-5,o),
(180,11,o),
(208,33,c),
(218,10,o),
(241,0,o),
(263,0,cs),
(293,0,o),
(327,21,o),
(331,59,cs),
(397,683,ls),
(401,727,o),
(370,753,o),
(333,753,cs),
(304,753,o),
(271,739,o),
(268,700,cs),
(239,416,l),
(228,416,ls),
(43,416,o),
(-10,260,o),
(-10,129,cs),
(-10,27,o),
(57,-5,o),
(114,-5,cs)
);
},
{
closed = 1;
nodes = (
(156,93,o),
(190,108,o),
(233,168,cs),
(237,173,o),
(238,176,o),
(239,182,cs),
(252,306,ls),
(253,314,o),
(249,318,o),
(241,318,cs),
(232,318,ls),
(109,318,o),
(91,209,o),
(91,148,cs),
(91,121,o),
(103,93,o),
(132,93,cs)
);
},
{
closed = 1;
nodes = (
(120,117,o),
(115,128,o),
(115,148,cs),
(115,206,o),
(129,291,o),
(227,294,c),
(215,183,l),
(176,128,o),
(150,117,o),
(132,117,cs)
);
},
{
closed = 1;
nodes = (
(64,19,o),
(14,43,o),
(14,129,cs),
(14,255,o),
(61,393,o),
(228,393,cs),
(249,393,ls),
(256,393,o),
(260,397,o),
(261,404,cs),
(291,697,ls),
(294,722,o),
(311,729,o),
(333,729,cs),
(359,729,o),
(376,715,o),
(374,685,cs),
(308,62,ls),
(305,36,o),
(284,23,o),
(263,23,cs),
(246,23,o),
(232,29,o),
(228,46,cs),
(227,52,o),
(224,56,o),
(218,59,cs),
(210,62,o),
(205,62,o),
(200,57,cs),
(174,34,o),
(144,19,o),
(114,19,cs)
);
}
);
vertWidth = 0;
width = 447;
}
);
unicode = 100;
},
{
glyphname = e;
kernLeft = o_left;
layers = (
{
layerId = m002;
shapes = (
{
closed = 1;
nodes = (
(216,-5,o),
(266,54,o),
(289,84,cs),
(319,126,o),
(303,160,o),
(283,173,cs),
(257,190,o),
(220,175,o),
(195,150,cs),
(180,135,o),
(160,114,o),
(123,114,cs),
(118,114,o),
(120,151,o),
(121,156,c),
(220,168,o),
(301,216,o),
(332,289,cs),
(358,355,o),
(318,415,o),
(215,416,cs),
(61,417,o),
(2,293,o),
(0,143,cs),
(-1,24,o),
(57,-5,o),
(111,-5,cs)
);
},
{
closed = 1;
nodes = (
(61,9,o),
(13,33,o),
(13,143,cs),
(15,289,o),
(70,405,o),
(215,404,cs),
(310,403,o),
(343,353,o),
(319,294,cs),
(290,224,o),
(211,177,o),
(121,169,cs),
(110,168,o),
(108,168,o),
(107,163,cs),
(106,159,o),
(106,151,o),
(106,144,cs),
(106,118,o),
(108,100,o),
(123,100,cs),
(167,100,o),
(192,127,o),
(207,142,cs),
(229,165,o),
(258,175,o),
(275,162,cs),
(293,149,o),
(302,125,o),
(278,92,cs),
(256,63,o),
(210,9,o),
(111,9,cs)
);
},
{
closed = 1;
nodes = (
(168,256,o),
(222,282,o),
(230,314,cs),
(233,324,o),
(224,329,o),
(201,329,cs),
(162,329,o),
(139,291,o),
(129,258,cs),
(125,245,o),
(127,245,o),
(140,248,cs)
);
},
{
closed = 1;
nodes = (
(156,292,o),
(168,306,o),
(190,315,cs),
(197,318,o),
(218,318,o),
(217,314,cs),
(211,293,o),
(177,274,o),
(143,262,c)
);
}
);
vertWidth = 0;
width = 392;
},
{
layerId = m003;
shapes = (
{
closed = 1;
nodes = (
(216,-5,o),
(266,54,o),
(289,84,cs),
(319,126,o),
(303,160,o),
(283,173,cs),
(257,190,o),
(220,175,o),
(195,150,cs),
(180,135,o),
(160,114,o),
(123,114,cs),
(118,114,o),
(120,151,o),
(121,156,c),
(220,168,o),
(301,216,o),
(332,289,cs),
(358,355,o),
(318,415,o),
(215,416,cs),
(61,417,o),
(2,293,o),
(0,143,cs),
(-1,24,o),
(57,-5,o),
(111,-5,cs)
);
},
{
closed = 1;
nodes = (
(70,29,o),
(38,45,o),
(38,143,cs),
(40,285,o),
(88,387,o),
(215,386,cs),
(293,385,o),
(315,349,o),
(296,302,cs),
(269,237,o),
(201,196,o),
(109,185,cs),
(97,184,o),
(85,181,o),
(83,168,cs),
(82,161,o),
(81,152,o),
(81,144,cs),
(80,105,o),
(91,80,o),
(123,80,cs),
(179,80,o),
(212,115,o),
(225,128,cs),
(244,147,o),
(254,151,o),
(260,146,cs),
(270,139,o),
(274,127,o),
(258,104,cs),
(235,73,o),
(197,29,o),
(111,29,cs)
);
},
{
closed = 1;
nodes = (
(180,241,o),
(243,269,o),
(254,308,cs),
(262,335,o),
(234,349,o),
(201,349,cs),
(146,349,o),
(115,298,o),
(101,249,cs),
(92,219,o),
(93,216,o),
(131,227,cs)
);
},
{
closed = 1;
nodes = (
(156,292,o),
(168,306,o),
(190,315,cs),
(197,318,o),
(218,318,o),
(217,314,cs),
(211,293,o),
(177,274,o),
(143,262,c)
);
}
);
vertWidth = 0;
width = 392;
},
{
layerId = m004;
shapes = (
{
closed = 1;
nodes = (
(216,-5,o),
(266,54,o),
(289,84,cs),
(319,126,o),
(303,160,o),
(283,173,cs),
(257,190,o),
(220,175,o),
(195,150,cs),
(180,135,o),
(160,114,o),
(123,114,cs),
(118,114,o),
(120,151,o),
(121,156,c),
(220,168,o),
(301,216,o),
(332,289,cs),
(358,355,o),
(318,415,o),
(215,416,cs),
(61,417,o),
(2,293,o),
(0,143,cs),
(-1,24,o),
(57,-5,o),
(111,-5,cs)
);
},
{
closed = 1;
nodes = (
(65,19,o),
(23,40,o),
(23,143,cs),
(25,286,o),
(77,396,o),
(215,395,cs),
(303,394,o),
(331,350,o),
(310,298,cs),
(282,232,o),
(207,189,o),
(110,178,cs),
(103,178,o),
(99,174,o),
(98,167,cs),
(97,160,o),
(96,152,o),
(96,144,cs),
(95,117,o),
(99,90,o),
(123,90,cs),
(171,90,o),
(199,120,o),
(214,135,cs),
(234,155,o),
(257,163,o),
(269,154,cs),
(284,143,o),
(290,126,o),
(270,98,cs),
(248,69,o),
(205,19,o),
(111,19,cs)
);
},
{
closed = 1;
nodes = (
(172,247,o),
(230,275,o),
(240,311,cs),
(245,329,o),
(227,339,o),
(201,339,cs),
(157,339,o),
(129,295,o),
(115,246,cs),
(112,237,o),
(118,232,o),
(127,234,cs)
);
},
{
closed = 1;
nodes = (
(156,292,o),
(168,306,o),
(190,315,cs),
(197,318,o),
(218,318,o),
(217,314,cs),
(211,293,o),
(177,274,o),
(143,262,c)
);
}
);
vertWidth = 0;
width = 392;
}
);
unicode = 101;
},
{
glyphname = f;
layers = (
{
layerId = m002;
shapes = (
{
closed = 1;
nodes = (
(125,0,o),
(157,26,o),
(160,59,cs),
(185,299,l),
(237,299,ls),
(277,299,o),
(302,322,o),
(301,359,cs),
(300,392,o),
(274,418,o),
(231,418,cs),
(198,418,l),
(214,575,ls),
(218,616,o),
(231,630,o),
(249,630,cs),
(266,630,o),
(280,626,o),
(288,623,cs),
(308,615,o),
(338,618,o),
(357,657,cs),
(375,692,o),
(369,721,o),
(339,736,cs),
(307,753,o),
(280,755,o),
(233,755,cs),
(171,755,o),
(98,710,o),
(86,598,cs),
(66,418,l),
(26,418,ls),
(-16,418,o),
(-40,391,o),
(-38,358,cs),
(-37,324,o),
(-10,299,o),
(32,299,cs),
(54,299,l),
(29,69,ls),
(26,39,o),
(43,0,o),
(89,0,cs)
);
},
{
closed = 1;
nodes = (
(51,13,o),
(40,43,o),
(43,68,cs),
(68,306,ls),
(69,312,o),
(68,313,o),
(63,313,cs),
(32,313,ls),
(-4,313,o),
(-24,330,o),
(-24,359,cs),
(-26,386,o),
(-10,405,o),
(26,405,cs),
(72,405,ls),
(78,405,o),
(79,406,o),
(80,412,cs),
(99,596,ls),
(110,702,o),
(175,741,o),
(233,741,cs),
(279,741,o),
(303,740,o),
(334,724,cs),
(356,712,o),
(360,694,o),
(345,664,cs),
(329,631,o),
(309,631,o),
(293,636,cs),
(285,639,o),
(267,644,o),
(249,644,cs),
(224,644,o),
(206,624,o),
(201,577,cs),
(184,411,ls),
(183,406,o),
(184,405,o),
(189,405,cs),
(231,405,ls),
(268,405,o),
(287,385,o),
(288,359,cs),
(289,329,o),
(272,313,o),
(237,313,cs),
(180,313,ls),
(173,313,o),
(172,312,o),
(171,306,cs),
(146,61,ls),
(143,33,o),
(120,13,o),
(89,13,cs)
);
}
);
vertWidth = 0;
width = 323;
},
{
layerId = m003;
shapes = (
{
closed = 1;
nodes = (
(125,0,o),
(156,26,o),
(160,59,cs),
(185,299,l),
(237,299,ls),
(277,299,o),
(303,322,o),
(301,359,cs),
(298,392,o),
(274,418,o),
(231,418,cs),
(198,418,l),
(214,575,ls),
(219,616,o),
(231,630,o),
(249,630,cs),
(266,630,o),
(280,626,o),
(288,623,cs),
(308,615,o),
(338,618,o),
(357,657,cs),
(375,692,o),
(369,721,o),
(339,736,cs),
(307,753,o),
(280,755,o),
(233,755,cs),
(171,755,o),
(98,710,o),
(86,598,cs),
(66,418,l),
(26,418,ls),
(-16,418,o),
(-40,391,o),
(-38,358,cs),
(-37,324,o),
(-10,299,o),
(32,299,cs),
(54,299,l),
(29,69,ls),
(27,39,o),
(43,0,o),
(89,0,cs)
);
},
{
closed = 1;
nodes = (
(71,33,o),
(66,46,o),
(68,66,cs),
(94,310,ls),
(96,326,o),
(82,333,o),
(68,333,cs),
(32,333,ls),
(8,333,o),
(1,339,o),
(1,359,cs),
(-1,379,o),
(4,385,o),
(26,385,cs),
(77,385,ls),
(89,385,o),
(102,391,o),
(104,405,cs),
(124,594,ls),
(135,691,o),
(184,721,o),
(233,721,cs),
(279,721,o),
(295,720,o),
(322,706,cs),
(332,701,o),
(334,695,o),
(323,672,cs),
(313,653,o),
(312,651,o),
(304,654,cs),
(295,658,o),
(271,664,o),
(249,664,cs),
(209,664,o),
(181,633,o),
(176,579,cs),
(158,408,ls),
(156,392,o),
(170,385,o),
(184,385,cs),
(231,385,ls),
(254,385,o),
(260,377,o),
(263,357,cs),
(264,337,o),
(259,333,o),
(237,333,cs),
(175,333,ls),
(162,333,o),
(149,327,o),
(147,313,cs),
(121,63,ls),
(119,42,o),
(108,33,o),
(89,33,cs)
);
}
);
vertWidth = 0;
width = 323;
},
{
layerId = m004;
shapes = (
{
closed = 1;
nodes = (
(125,0,o),
(156,26,o),
(160,59,cs),
(185,299,l),
(237,299,ls),
(277,299,o),
(303,322,o),
(301,359,cs),
(298,392,o),
(274,418,o),
(231,418,cs),
(198,418,l),
(214,575,ls),
(219,616,o),
(231,630,o),
(249,630,cs),
(266,630,o),
(280,626,o),
(288,623,cs),
(308,615,o),
(338,618,o),
(357,657,cs),
(375,692,o),
(369,721,o),
(339,736,cs),
(307,753,o),
(280,755,o),
(233,755,cs),
(171,755,o),
(98,710,o),
(86,598,cs),
(66,418,l),
(26,418,ls),
(-16,418,o),
(-40,391,o),
(-38,358,cs),
(-37,324,o),
(-10,299,o),
(32,299,cs),
(54,299,l),
(29,69,ls),
(27,39,o),
(43,0,o),
(89,0,cs)
);
},
{
closed = 1;
nodes = (
(59,23,o),
(51,45,o),
(53,67,cs),
(79,311,ls),
(80,319,o),
(76,323,o),
(68,323,cs),
(32,323,ls),
(1,323,o),
(-14,336,o),
(-14,359,cs),
(-16,381,o),
(-4,395,o),
(26,395,cs),
(77,395,ls),
(84,395,o),
(88,399,o),
(89,406,cs),
(109,595,ls),
(120,695,o),
(179,731,o),
(233,731,cs),
(279,731,o),
(300,730,o),
(329,715,cs),
(346,706,o),
(349,694,o),
(336,668,cs),
(323,642,o),
(310,641,o),
(297,645,cs),
(288,649,o),
(268,654,o),
(249,654,cs),
(219,654,o),
(196,628,o),
(191,578,cs),
(173,407,ls),
(172,399,o),
(176,395,o),
(184,395,cs),
(231,395,ls),
(262,395,o),
(275,380,o),
(278,358,cs),
(279,334,o),
(266,323,o),
(237,323,cs),
(175,323,ls),
(167,323,o),
(163,319,o),
(162,312,cs),
(136,62,ls),
(134,39,o),
(115,23,o),
(89,23,cs)
);
}
);
vertWidth = 0;
width = 323;
}
);
unicode = 102;
},
{
glyphname = g;
kernLeft = o_left;
layers = (
{
layerId = m002;
shapes = (
{
closed = 1;
nodes = (
(168,-337,o),
(215,-308,o),
(258,-263,cs),
(311,-206,o),
(310,-115,o),
(321,-21,cs),
(363,352,ls),
(368,396,o),
(326,416,o),
(292,416,cs),
(229,416,ls),
(45,416,o),
(7,308,o),
(-10,148,cs),
(-23,27,o),
(59,-5,o),
(113,-5,cs),
(143,-5,o),
(172,10,o),
(197,28,c),
(193,-10,ls),
(186,-81,o),
(181,-145,o),
(151,-176,cs),
(133,-195,o),
(113,-204,o),
(92,-204,cs),
(78,-204,o),
(61,-201,o),
(54,-198,cs),
(26,-186,o),
(-15,-178,o),
(-41,-220,cs),
(-66,-263,o),
(-42,-297,o),
(-21,-310,cs),
(-3,-322,o),
(47,-337,o),
(103,-337,cs)
);
},
{
closed = 1;
nodes = (
(49,-323,o),
(3,-309,o),
(-13,-298,cs),
(-32,-287,o),
(-49,-262,o),
(-29,-227,cs),
(-9,-194,o),
(21,-199,o),
(49,-211,cs),
(57,-214,o),
(77,-217,o),
(92,-217,cs),
(117,-217,o),
(140,-207,o),
(161,-185,cs),
(194,-151,o),
(200,-82,o),
(207,-12,cs),
(212,41,ls),
(214,65,o),
(216,61,o),
(197,45,cs),
(185,35,o),
(150,9,o),
(113,9,cs),
(62,9,o),
(-9,35,o),
(3,146,cs),
(20,305,o),
(55,403,o),
(229,403,cs),
(292,403,ls),
(323,403,o),
(353,388,o),
(349,354,cs),
(308,-20,ls),
(298,-115,o),
(298,-200,o),
(248,-254,cs),
(206,-297,o),
(164,-323,o),
(103,-323,cs)
);
},
{
closed = 1;
nodes = (
(154,103,o),
(184,113,o),
(222,163,cs),
(225,167,o),
(225,168,o),
(226,173,cs),
(240,304,ls),
(240,307,o),
(239,308,o),
(237,308,cs),
(234,308,ls),
(104,308,o),
(105,209,o),
(99,157,cs),
(96,122,o),
(110,103,o),
(134,103,cs)
);
},
{
closed = 1;
nodes = (
(119,117,o),
(110,128,o),
(113,156,cs),
(118,206,o),
(118,290,o),
(225,294,c),
(212,173,l),
(177,125,o),
(152,117,o),
(134,117,cs)
);
}
);
vertWidth = 0;
width = 443;
},
{
layerId = m003;
shapes = (
{
closed = 1;
nodes = (
(168,-337,o),
(215,-308,o),
(258,-263,cs),
(311,-206,o),
(310,-115,o),
(321,-21,cs),
(363,352,ls),
(368,396,o),
(326,416,o),
(292,416,cs),
(229,416,ls),
(45,416,o),
(7,308,o),
(-10,148,cs),
(-23,27,o),
(59,-5,o),
(113,-5,cs),
(143,-5,o),
(172,10,o),
(197,28,c),
(193,-10,ls),
(186,-81,o),
(181,-145,o),
(151,-176,cs),
(133,-195,o),
(113,-204,o),
(92,-204,cs),
(78,-204,o),
(61,-200,o),
(54,-198,c),
(26,-185,o),
(-15,-178,o),
(-41,-220,cs),
(-66,-263,o),
(-42,-297,o),
(-21,-310,cs),
(-3,-322,o),
(47,-337,o),
(103,-337,cs)
);
},
{
closed = 1;
nodes = (
(54,-303,o),
(15,-292,o),
(0,-282,cs),
(-12,-274,o),
(-21,-261,o),
(-7,-237,cs),
(5,-217,o),
(14,-217,o),
(38,-229,cs),
(43,-231,o),
(72,-237,o),
(92,-237,cs),
(124,-237,o),
(156,-223,o),
(179,-199,cs),
(220,-156,o),
(226,-83,o),
(232,-14,cs),
(239,62,ls),
(241,86,o),
(213,89,o),
(200,77,cs),
(168,48,o),
(141,29,o),
(113,29,cs),
(69,29,o),
(18,48,o),
(28,144,cs),
(45,301,o),
(75,383,o),
(229,383,cs),
(292,383,ls),
(314,383,o),
(326,377,o),
(324,356,cs),
(283,-18,ls),
(272,-114,o),
(273,-194,o),
(230,-240,cs),
(189,-283,o),
(156,-303,o),
(103,-303,cs)
);
},
{
closed = 1;
nodes = (
(160,83,o),
(200,96,o),
(242,151,cs),
(248,158,o),
(250,162,o),
(251,171,cs),
(265,305,ls),
(267,321,o),
(263,328,o),
(249,328,cs),
(234,328,ls),
(80,328,o),
(80,209,o),
(74,159,cs),
(71,113,o),
(95,83,o),
(134,83,cs)
);
},
{
closed = 1;
nodes = (
(119,117,o),
(110,128,o),
(113,156,cs),
(118,206,o),
(118,290,o),
(225,294,c),
(212,173,l),
(177,125,o),
(152,117,o),
(134,117,cs)
);
}
);
vertWidth = 0;
width = 443;
},
{
layerId = m004;
shapes = (
{
closed = 1;
nodes = (
(168,-337,o),
(215,-308,o),
(258,-263,cs),
(311,-206,o),
(312,-115,o),
(321,-21,cs),
(363,352,ls),
(367,396,o),
(326,416,o),
(292,416,cs),
(229,416,ls),
(45,416,o),
(7,308,o),
(-10,148,cs),
(-23,27,o),
(59,-5,o),
(113,-5,cs),
(143,-5,o),
(172,10,o),
(197,28,c),
(193,-10,ls),
(184,-81,o),
(181,-145,o),
(151,-176,cs),
(133,-195,o),
(113,-204,o),
(92,-204,cs),
(78,-204,o),
(61,-200,o),
(54,-198,cs),
(26,-185,o),
(-15,-178,o),
(-41,-220,cs),
(-66,-263,o),
(-42,-297,o),
(-21,-310,cs),
(-3,-322,o),
(47,-337,o),
(103,-337,cs)
);
},
{
closed = 1;
nodes = (
(51,-313,o),
(7,-300,o),
(-8,-290,cs),
(-24,-280,o),
(-37,-261,o),
(-20,-232,cs),
(-4,-205,o),
(20,-208,o),
(45,-220,cs),
(54,-223,o),
(76,-227,o),
(92,-227,cs),
(119,-227,o),
(146,-215,o),
(168,-192,cs),
(204,-155,o),
(208,-83,o),
(217,-13,cs),
(224,63,ls),
(225,74,o),
(218,77,o),
(210,70,cs),
(179,42,o),
(147,19,o),
(113,19,cs),
(65,19,o),
(2,43,o),
(13,145,cs),
(30,302,o),
(63,393,o),
(229,393,cs),
(292,393,ls),
(319,393,o),
(342,381,o),
(339,355,cs),
(298,-19,ls),
(288,-114,o),
(288,-196,o),
(241,-247,cs),
(200,-289,o),
(161,-313,o),
(103,-313,cs)
);
},
{
closed = 1;
nodes = (
(156,93,o),
(190,104,o),
(230,157,cs),
(234,162,o),
(235,166,o),
(236,172,cs),
(250,306,ls),
(251,314,o),
(247,318,o),
(239,318,cs),
(234,318,ls),
(95,318,o),
(95,209,o),
(89,158,cs),
(86,119,o),
(105,93,o),
(134,93,cs)
);
},
{
closed = 1;
nodes = (
(119,117,o),
(110,128,o),
(113,156,cs),
(118,206,o),
(118,290,o),
(225,294,c),
(212,173,l),
(177,125,o),
(152,117,o),
(134,117,cs)
);
}
);
vertWidth = 0;
width = 443;
}
);
unicode = 103;
},
{
glyphname = h;
kernLeft = h_left;
kernRight = n_right;
layers = (
{
layerId = m002;
shapes = (
{
closed = 1;
nodes = (
(108,-2,o),
(138,15,o),
(142,52,cs),
(161,232,l),
(195,282,o),
(225,298,o),
(252,298,cs),
(272,298,o),
(277,279,o),
(274,253,cs),
(253,65,ls),
(249,31,o),
(271,0,o),
(315,0,cs),
(362,0,o),
(380,25,o),
(383,53,cs),
(404,242,ls),
(417,355,o),
(362,421,o),
(277,421,cs),
(240,421,o),
(205,407,o),
(177,387,c),
(208,685,ls),
(212,728,o),
(185,757,o),
(148,757,cs),
(115,757,o),
(82,735,o),
(78,696,cs),
(12,63,ls),
(8,23,o),
(41,-2,o),
(77,-2,cs)
);
},
{
closed = 1;
nodes = (
(46,11,o),
(22,30,o),
(25,61,cs),
(92,694,ls),
(95,727,o),
(120,743,o),
(148,743,cs),
(179,743,o),
(199,723,o),
(195,686,cs),
(162,369,ls),
(162,366,o),
(161,363,o),
(164,362,cs),
(168,360,o),
(169,363,o),
(171,365,cs),
(199,388,o),
(236,407,o),
(277,407,cs),
(355,407,o),
(403,351,o),
(391,243,cs),
(370,54,ls),
(367,31,o),
(355,13,o),
(315,13,cs),
(278,13,o),
(263,35,o),
(266,63,cs),
(287,251,ls),
(290,281,o),
(284,312,o),
(252,312,cs),
(221,312,o),
(188,293,o),
(150,242,cs),
(147,238,o),
(147,236,o),
(147,232,cs),
(129,53,ls),
(126,24,o),
(104,11,o),
(77,11,cs)
);
}
);
vertWidth = 0;
width = 491;
},
{
layerId = m003;
shapes = (
{
closed = 1;
nodes = (
(108,-2,o),
(138,15,o),
(142,52,cs),
(161,232,l),
(195,282,o),
(225,298,o),
(252,298,cs),
(272,298,o),
(277,279,o),
(274,253,cs),
(253,65,ls),
(249,31,o),
(271,0,o),
(315,0,cs),
(362,0,o),
(380,25,o),
(383,53,cs),
(404,242,ls),
(417,355,o),
(362,421,o),
(277,421,cs),
(240,421,o),
(205,407,o),
(177,387,c),
(208,685,ls),
(212,728,o),
(185,757,o),
(148,757,cs),
(115,757,o),
(82,735,o),
(78,696,cs),
(12,63,ls),
(8,23,o),
(41,-2,o),
(77,-2,cs)
);
},
{
closed = 1;
nodes = (
(58,31,o),
(47,39,o),
(50,59,cs),
(117,692,ls),
(120,716,o),
(130,723,o),
(148,723,cs),
(165,723,o),
(173,716,o),
(170,688,cs),
(137,371,ls),
(135,360,o),
(142,353,o),
(154,347,cs),
(166,342,o),
(183,344,o),
(189,352,c),
(216,373,o),
(244,387,o),
(277,387,cs),
(341,387,o),
(377,344,o),
(366,245,cs),
(345,56,ls),
(343,38,o),
(340,33,o),
(315,33,cs),
(294,33,o),
(288,41,o),
(291,61,cs),
(312,249,ls),
(315,282,o),
(306,332,o),
(252,332,cs),
(212,332,o),
(170,308,o),
(129,252,c),
(125,245,o),
(124,241,o),
(122,234,c),
(104,55,ls),
(102,35,o),
(95,31,o),
(77,31,cs)
);
}
);
vertWidth = 0;
width = 491;
},
{
layerId = m004;
shapes = (
{
closed = 1;
nodes = (
(108,-2,o),
(138,15,o),
(142,52,cs),
(161,232,l),
(195,282,o),
(225,298,o),
(252,298,cs),
(272,298,o),
(277,279,o),
(274,253,cs),
(253,65,ls),
(249,31,o),
(271,0,o),
(315,0,cs),
(362,0,o),
(380,25,o),
(383,53,cs),
(404,242,ls),
(417,355,o),
(362,421,o),
(277,421,cs),
(240,421,o),
(205,407,o),
(177,387,c),
(208,685,ls),
(212,728,o),
(185,757,o),
(148,757,cs),
(115,757,o),
(82,735,o),
(78,696,cs),
(12,63,ls),
(8,23,o),
(41,-2,o),
(77,-2,cs)
);
},
{
closed = 1;
nodes = (
(51,21,o),
(32,36,o),
(35,60,cs),
(102,693,ls),
(105,720,o),
(124,733,o),
(148,733,cs),
(173,733,o),
(188,718,o),
(185,687,cs),
(152,370,ls),
(151,364,o),
(154,359,o),
(160,356,cs),
(167,353,o),
(173,353,o),
(178,358,cs),
(205,380,o),
(239,397,o),
(277,397,cs),
(349,397,o),
(392,346,o),
(381,244,cs),
(360,55,ls),
(358,36,o),
(349,23,o),
(315,23,cs),
(285,23,o),
(273,39,o),
(276,62,cs),
(297,250,ls),
(300,281,o),
(292,322,o),
(252,322,cs),
(218,322,o),
(181,301,o),
(142,247,cs),
(139,242,o),
(138,238,o),
(137,233,cs),
(119,54,ls),
(117,31,o),
(100,21,o),
(77,21,cs)
);
}
);
vertWidth = 0;
width = 491;
}
);
unicode = 104;
},
{
glyphname = i;
layers = (
{
layerId = m002;
shapes = (
{
closed = 1;
nodes = (
(116,0,o),
(154,13,o),
(158,52,cs),
(188,340,ls),
(193,385,o),
(157,416,o),
(122,416,cs),
(90,416,o),
(57,392,o),
(54,355,cs),
(24,68,ls),
(19,26,o),
(53,0,o),
(88,0,cs)
);
},
{
closed = 1;
nodes = (
(58,13,o),
(33,32,o),
(37,66,cs),
(67,353,ls),
(71,383,o),
(95,403,o),
(122,403,cs),
(151,403,o),
(179,378,o),
(174,341,cs),
(144,53,ls),
(141,23,o),
(114,13,o),
(88,13,cs)
);
},
{
closed = 1;
nodes = (
(183,465,o),
(214,495,o),
(214,535,cs),
(214,574,o),
(183,604,o),
(144,604,cs),
(107,604,o),
(71,574,o),
(71,535,cs),
(71,495,o),
(107,465,o),
(144,465,cs)
);
},
{
closed = 1;
nodes = (
(112,478,o),
(84,501,o),
(84,535,cs),
(84,568,o),
(112,591,o),
(144,591,cs),
(176,591,o),
(200,567,o),
(200,535,cs),
(200,502,o),
(176,478,o),
(144,478,cs)
);
}
);
vertWidth = 0;
width = 294;
},
{
layerId = m003;
shapes = (
{
closed = 1;
nodes = (
(116,0,o),
(154,13,o),
(158,52,cs),
(188,340,ls),
(193,385,o),
(157,416,o),
(122,416,cs),
(90,416,o),
(57,392,o),
(54,355,cs),
(24,68,ls),
(19,26,o),
(53,0,o),
(88,0,cs)
);
},
{
closed = 1;
nodes = (
(70,33,o),
(59,41,o),
(62,64,cs),
(92,351,ls),
(95,373,o),
(107,383,o),
(122,383,cs),
(139,383,o),
(153,370,o),
(149,343,cs),
(119,55,ls),
(117,37,o),
(107,33,o),
(88,33,cs)
);
},
{
closed = 1;
nodes = (
(183,465,o),
(214,495,o),
(214,535,cs),
(214,574,o),
(183,604,o),
(144,604,cs),
(107,604,o),
(71,574,o),
(71,535,cs),
(71,495,o),
(107,465,o),
(144,465,cs)
);
},
{
closed = 1;
nodes = (
(124,498,o),
(109,510,o),
(109,535,cs),
(109,559,o),
(124,571,o),
(144,571,cs),
(163,571,o),
(175,559,o),
(175,535,cs),
(175,510,o),
(163,498,o),
(144,498,cs)
);
}
);
vertWidth = 0;
width = 294;
},
{
layerId = m004;
shapes = (
{
closed = 1;
nodes = (
(116,0,o),
(154,13,o),
(158,52,cs),
(188,340,ls),
(193,385,o),
(157,416,o),
(122,416,cs),
(90,416,o),
(57,392,o),
(54,355,cs),
(24,68,ls),
(19,26,o),
(53,0,o),
(88,0,cs)
);
},
{
closed = 1;
nodes = (
(63,23,o),
(44,38,o),
(47,65,cs),
(77,352,ls),
(80,377,o),
(100,393,o),
(122,393,cs),
(146,393,o),
(168,373,o),
(164,342,cs),
(134,54,ls),
(132,31,o),
(111,23,o),
(88,23,cs)
);
},
{
closed = 1;
nodes = (
(183,465,o),
(214,495,o),
(214,535,cs),
(214,574,o),
(183,604,o),
(144,604,cs),
(107,604,o),
(71,574,o),
(71,535,cs),
(71,495,o),
(107,465,o),
(144,465,cs)
);
},
{
closed = 1;
nodes = (
(117,488,o),
(94,507,o),
(94,535,cs),
(94,562,o),
(117,581,o),
(144,581,cs),
(171,581,o),
(190,562,o),
(190,535,cs),
(190,507,o),
(171,488,o),
(144,488,cs)
);
}
);
vertWidth = 0;
width = 294;
}
);
unicode = 105;
},
{
glyphname = j;
layers = (
{
layerId = m002;
shapes = (
{
closed = 1;
nodes = (
(-17,-337,o),
(26,-308,o),
(68,-261,cs),
(119,-206,o),
(130,-78,o),
(136,-21,cs),
(176,352,ls),
(179,395,o),
(146,416,o),
(106,416,cs),
(69,416,o),
(43,395,o),
(40,357,cs),
(0,-10,ls),
(-3,-45,o),
(-13,-151,o),
(-37,-176,cs),
(-56,-195,o),
(-72,-204,o),
(-93,-204,cs),
(-108,-204,o),
(-124,-202,o),
(-131,-198,cs),
(-147,-190,o),
(-198,-178,o),
(-224,-215,cs),
(-254,-262,o),
(-226,-298,o),
(-206,-310,cs),
(-190,-322,o),
(-140,-337,o),
(-84,-337,cs)
);
},
{
closed = 1;
nodes = (
(-138,-323,o),
(-184,-309,o),
(-199,-299,cs),
(-217,-287,o),
(-238,-262,o),
(-212,-223,cs),
(-192,-193,o),
(-152,-202,o),
(-137,-210,cs),
(-129,-215,o),
(-109,-217,o),
(-93,-217,cs),
(-68,-217,o),
(-48,-207,o),
(-27,-185,cs),
(1,-156,o),
(11,-47,o),
(14,-11,cs),
(53,355,ls),
(57,388,o),
(74,403,o),
(106,403,cs),
(143,403,o),
(164,386,o),
(162,354,cs),
(123,-20,ls),
(117,-76,o),
(106,-200,o),
(57,-252,cs),
(17,-298,o),
(-22,-323,o),
(-84,-323,cs)
);
},
{
closed = 1;
nodes = (
(167,466,o),
(196,503,o),
(196,543,cs),
(196,585,o),
(160,609,o),
(125,609,cs),
(86,609,o),
(51,578,o),
(51,538,cs),
(51,495,o),
(90,466,o),
(126,466,cs)
);
},
{
closed = 1;
nodes = (
(95,480,o),
(65,503,o),
(65,538,cs),
(65,572,o),
(92,596,o),
(125,596,cs),
(155,596,o),
(182,577,o),
(182,543,cs),
(182,508,o),
(160,480,o),
(126,480,cs)
);
}
);
vertWidth = 0;
width = 277;
},
{
layerId = m003;
shapes = (
{
closed = 1;
nodes = (
(-17,-337,o),
(26,-308,o),
(68,-261,cs),
(119,-206,o),
(130,-78,o),
(136,-21,cs),
(176,352,ls),
(179,395,o),
(146,416,o),
(106,416,cs),
(69,416,o),
(43,395,o),
(40,357,cs),
(0,-10,ls),
(-3,-45,o),
(-13,-151,o),
(-37,-176,cs),
(-56,-195,o),
(-72,-204,o),
(-93,-204,cs),
(-108,-204,o),
(-124,-202,o),
(-131,-198,cs),
(-147,-190,o),
(-198,-178,o),
(-224,-215,cs),
(-254,-262,o),
(-226,-298,o),
(-206,-310,cs),
(-190,-322,o),
(-140,-337,o),
(-84,-337,cs)
);
},
{
closed = 1;
nodes = (
(-133,-303,o),
(-172,-292,o),
(-185,-283,cs),
(-198,-274,o),
(-209,-261,o),
(-191,-235,cs),
(-180,-217,o),
(-162,-221,o),
(-149,-228,cs),
(-138,-235,o),
(-110,-237,o),
(-93,-237,cs),
(-61,-237,o),
(-32,-222,o),
(-9,-199,cs),
(28,-162,o),
(36,-47,o),
(39,-13,cs),
(78,353,ls),
(81,379,o),
(86,383,o),
(106,383,cs),
(131,383,o),
(139,378,o),
(137,356,cs),
(98,-18,ls),
(92,-75,o),
(81,-193,o),
(39,-238,cs),
(-1,-284,o),
(-31,-303,o),
(-84,-303,cs)
);
},
{
closed = 1;
nodes = (
(167,466,o),
(196,503,o),
(196,543,cs),
(196,585,o),
(160,609,o),
(125,609,cs),
(86,609,o),
(51,578,o),
(51,538,cs),
(51,495,o),
(90,466,o),
(126,466,cs)
);
},
{
closed = 1;
nodes = (
(106,500,o),
(90,512,o),
(90,538,cs),
(90,563,o),
(104,576,o),
(125,576,cs),
(145,576,o),
(157,567,o),
(157,543,cs),
(157,515,o),
(145,500,o),
(126,500,cs)
);
}
);
vertWidth = 0;
width = 277;
},
{
layerId = m004;
shapes = (
{
closed = 1;
nodes = (
(-17,-337,o),
(26,-308,o),
(68,-261,cs),
(119,-206,o),
(130,-78,o),
(136,-21,cs),
(176,352,ls),
(179,395,o),
(146,416,o),
(106,416,cs),
(69,416,o),
(43,395,o),
(40,357,cs),
(0,-10,ls),
(-3,-45,o),
(-13,-151,o),
(-37,-176,cs),
(-56,-195,o),
(-72,-204,o),
(-93,-204,cs),
(-108,-204,o),
(-124,-202,o),
(-131,-198,cs),
(-147,-190,o),
(-198,-178,o),
(-224,-215,cs),
(-254,-262,o),
(-226,-298,o),
(-206,-310,cs),
(-190,-322,o),
(-140,-337,o),
(-84,-337,cs)
);
},
{
closed = 1;
nodes = (
(-136,-313,o),
(-180,-300,o),
(-193,-291,cs),
(-210,-280,o),
(-225,-261,o),
(-204,-229,cs),
(-188,-205,o),
(-155,-212,o),
(-142,-219,cs),
(-132,-225,o),
(-109,-227,o),
(-93,-227,cs),
(-66,-227,o),
(-42,-215,o),
(-20,-192,cs),
(11,-161,o),
(21,-48,o),
(24,-12,cs),
(63,354,ls),
(66,382,o),
(79,393,o),
(106,393,cs),
(137,393,o),
(154,381,o),
(152,355,cs),
(113,-19,ls),
(107,-75,o),
(96,-196,o),
(50,-245,cs),
(11,-290,o),
(-25,-313,o),
(-84,-313,cs)
);
},
{
closed = 1;
nodes = (
(167,466,o),
(196,503,o),
(196,543,cs),
(196,585,o),
(160,609,o),
(125,609,cs),
(86,609,o),
(51,578,o),
(51,538,cs),
(51,495,o),
(90,466,o),
(126,466,cs)
);
},
{
closed = 1;
nodes = (
(100,490,o),
(75,509,o),
(75,538,cs),
(75,566,o),
(97,586,o),
(125,586,cs),
(151,586,o),
(172,571,o),
(172,543,cs),
(172,513,o),
(154,490,o),
(126,490,cs)
);
}
);
vertWidth = 0;
width = 277;
}
);
unicode = 106;
},
{
glyphname = k;
kernLeft = h_left;
layers = (
{
layerId = m002;
shapes = (
{
closed = 1;
nodes = (
(107,-2,o),
(140,15,o),
(144,56,cs),
(151,121,l),
(233,34,ls),
(251,14,o),
(272,0,o),
(297,0,cs),
(323,0,o),
(353,17,o),
(359,46,cs),
(361,60,o),
(363,79,o),
(343,99,cs),
(279,165,l),
(345,192,o),
(389,247,o),
(393,281,cs),
(400,345,o),
(352,419,o),
(287,419,cs),
(254,419,o),
(214,402,o),
(178,381,c),
(210,683,ls),
(215,729,o),
(185,757,o),
(146,757,cs),
(113,757,o),
(82,736,o),
(78,695,cs),
(13,66,ls),
(9,27,o),
(35,-2,o),
(72,-2,cs)
);
},
{
closed = 1;
nodes = (
(215,232,o),
(295,273,o),
(295,304,cs),
(295,314,o),
(288,322,o),
(276,322,cs),
(249,322,o),
(190,284,o),
(154,253,cs),
(151,250,o),
(150,249,o),
(150,245,cs),
(148,228,ls),
(147,218,o),
(148,217,o),
(163,220,cs)
);
},
{
closed = 1;
nodes = (
(164,243,l),
(198,273,o),
(253,309,o),
(272,309,cs),
(279,309,o),
(282,307,o),
(282,304,cs),
(282,286,o),
(223,252,o),
(163,236,c)
);
},
{
closed = 1;
nodes = (
(42,11,o),
(24,32,o),
(27,65,cs),
(92,693,ls),
(96,728,o),
(118,743,o),
(146,743,cs),
(178,743,o),
(200,724,o),
(196,685,cs),
(164,374,ls),
(162,357,o),
(165,357,o),
(177,365,cs),
(200,382,o),
(250,405,o),
(287,406,cs),
(344,406,o),
(387,341,o),
(380,283,cs),
(375,249,o),
(334,197,o),
(272,174,cs),
(258,169,o),
(257,168,o),
(264,160,cs),
(334,89,ls),
(349,73,o),
(348,61,o),
(346,49,cs),
(342,26,o),
(320,13,o),
(297,13,cs),
(276,13,o),
(260,25,o),
(243,43,cs),
(154,140,ls),
(141,154,o),
(140,152,o),
(138,132,cs),
(131,57,ls),
(128,24,o),
(103,11,o),
(72,11,cs)
);
}
);
vertWidth = 0;
width = 465;
},
{
layerId = m003;
shapes = (
{
closed = 1;
nodes = (
(107,-2,o),
(141,15,o),
(144,56,cs),
(151,121,l),
(233,34,ls),
(251,14,o),
(272,0,o),
(297,0,cs),
(323,0,o),
(353,17,o),
(359,46,cs),
(361,60,o),
(363,79,o),
(343,99,cs),
(279,165,l),
(345,192,o),
(389,247,o),
(393,281,cs),
(400,345,o),
(352,419,o),
(287,419,cs),
(254,419,o),
(214,402,o),
(178,381,c),
(210,683,ls),
(215,729,o),
(185,757,o),
(146,757,cs),
(113,757,o),
(83,736,o),
(78,695,cs),
(13,66,ls),
(10,27,o),
(35,-2,o),
(72,-2,cs)
);
},
{
closed = 1;
nodes = (
(226,213,o),
(320,261,o),
(320,304,cs),
(320,325,o),
(298,342,o),
(276,342,cs),
(239,342,o),
(174,299,o),
(137,267,cs),
(131,261,o),
(126,256,o),
(125,247,cs),
(123,220,ls),
(121,202,o),
(140,195,o),
(153,198,cs)
);
},
{
closed = 1;
nodes = (
(164,243,l),
(198,273,o),
(253,309,o),
(276,309,cs),
(281,309,o),
(282,307,o),
(282,304,cs),
(282,286,o),
(223,252,o),
(163,236,c)
);
},
{
closed = 1;
nodes = (
(56,31,o),
(49,39,o),
(52,63,cs),
(117,691,ls),
(120,717,o),
(128,723,o),
(146,723,cs),
(166,723,o),
(175,715,o),
(171,687,cs),
(137,354,ls),
(135,330,o),
(162,328,o),
(174,337,cs),
(214,365,o),
(257,385,o),
(287,386,cs),
(327,386,o),
(361,336,o),
(355,285,cs),
(351,256,o),
(310,208,o),
(246,188,cs),
(229,184,o),
(221,172,o),
(236,157,cs),
(317,75,ls),
(323,69,o),
(322,64,o),
(321,51,c),
(317,37,o),
(310,33,o),
(297,33,cs),
(286,33,o),
(278,39,o),
(261,57,cs),
(157,168,ls),
(146,181,o),
(118,179,o),
(116,157,cs),
(106,59,ls),
(104,36,o),
(95,31,o),
(72,31,cs)
);
}
);
vertWidth = 0;
width = 465;
},
{
layerId = m004;
shapes = (
{
closed = 1;
nodes = (
(107,-2,o),
(141,15,o),
(144,56,cs),
(151,121,l),
(233,34,ls),
(251,14,o),
(272,0,o),
(297,0,cs),
(323,0,o),
(353,17,o),
(359,46,cs),
(361,60,o),
(364,80,o),
(343,99,cs),
(279,165,l),
(345,192,o),
(389,247,o),
(393,281,cs),
(400,345,o),
(352,419,o),
(287,419,cs),
(254,419,o),
(214,402,o),
(178,381,c),
(210,683,ls),
(215,729,o),
(185,757,o),
(146,757,cs),
(113,757,o),
(83,736,o),
(78,695,cs),
(13,66,ls),
(10,27,o),
(35,-2,o),
(72,-2,cs)
);
},
{
closed = 1;
nodes = (
(218,222,o),
(305,267,o),
(305,304,cs),
(305,318,o),
(292,332,o),
(276,332,cs),
(246,332,o),
(184,292,o),
(147,260,cs),
(143,256,o),
(141,252,o),
(140,246,cs),
(138,219,ls),
(137,211,o),
(142,206,o),
(150,208,cs)
);
},
{
closed = 1;
nodes = (
(164,243,l),
(198,273,o),
(253,309,o),
(276,309,cs),
(281,309,o),
(282,307,o),
(282,304,cs),
(282,286,o),
(223,252,o),
(163,236,c)
);
},
{
closed = 1;
nodes = (
(48,21,o),
(34,37,o),
(37,64,cs),
(102,692,ls),
(105,721,o),
(122,733,o),
(146,733,cs),
(173,733,o),
(190,718,o),
(186,686,cs),
(152,353,ls),
(150,342,o),
(157,339,o),
(165,345,cs),
(205,373,o),
(252,395,o),
(287,396,cs),
(337,396,o),
(376,337,o),
(370,284,cs),
(366,254,o),
(321,201,o),
(252,179,cs),
(243,177,o),
(241,170,o),
(247,164,cs),
(327,82,ls),
(339,71,o),
(337,63,o),
(336,50,cs),
(332,33,o),
(316,23,o),
(297,23,cs),
(280,23,o),
(266,33,o),
(250,50,cs),
(146,161,ls),
(139,169,o),
(132,167,o),
(131,156,cs),
(121,58,ls),
(119,31,o),
(100,21,o),
(72,21,cs)
);
}
);
vertWidth = 0;
width = 465;
}
);
unicode = 107;
},
{
glyphname = l;
kernLeft = h_left;
layers = (
{
layerId = m002;
shapes = (
{
closed = 1;
nodes = (
(105,0,o),
(137,21,o),
(142,59,cs),
(207,683,ls),
(210,726,o),
(186,757,o),
(147,757,cs),
(117,757,o),
(82,738,o),
(78,700,cs),
(11,69,ls),
(6,21,o),
(44,0,o),
(75,0,cs)
);
},
{
closed = 1;
nodes = (
(48,13,o),
(20,28,o),
(25,67,cs),
(91,698,ls),
(95,729,o),
(120,743,o),
(147,743,cs),
(178,743,o),
(197,721,o),
(193,684,cs),
(128,61,ls),
(124,28,o),
(100,13,o),
(75,13,cs)
);
}
);
vertWidth = 0;
width = 260;
},
{
layerId = m003;
shapes = (
{
closed = 1;
nodes = (
(105,0,o),
(137,21,o),
(142,59,cs),
(207,683,ls),
(210,726,o),
(186,757,o),
(147,757,cs),
(117,757,o),
(82,738,o),
(78,700,cs),
(11,69,ls),
(6,21,o),
(44,0,o),
(75,0,cs)
);
},
{
closed = 1;
nodes = (
(57,33,o),
(47,39,o),
(50,65,cs),
(116,696,ls),
(118,717,o),
(129,723,o),
(147,723,cs),
(163,723,o),
(171,714,o),
(168,686,cs),
(103,63,ls),
(100,39,o),
(90,33,o),
(75,33,cs)
);
}
);
vertWidth = 0;
width = 260;
},
{
layerId = m004;
shapes = (
{
closed = 1;
nodes = (
(105,0,o),
(137,21,o),
(142,59,cs),
(207,683,ls),
(210,726,o),
(186,757,o),
(147,757,cs),
(117,757,o),
(82,738,o),
(78,700,cs),
(11,69,ls),
(6,21,o),
(44,0,o),
(75,0,cs)
);
},
{
closed = 1;
nodes = (
(52,23,o),
(31,35,o),
(35,66,cs),
(101,697,ls),
(104,722,o),
(124,733,o),
(147,733,cs),
(172,733,o),
(186,716,o),
(183,685,cs),
(118,62,ls),
(115,35,o),
(96,23,o),
(75,23,cs)
);
}
);
vertWidth = 0;
width = 260;
}
);
unicode = 108;
},
{
glyphname = m;
kernLeft = n_left;
kernRight = n_right;
layers = (
{
layerId = m002;
shapes = (
{
closed = 1;
nodes = (
(110,0,o),
(127,32,o),
(129,51,cs),
(150,248,l),
(178,283,o),
(203,298,o),
(232,298,cs),
(242,298,o),
(249,278,o),
(246,253,cs),
(226,65,ls),
(222,31,o),
(243,0,o),
(287,0,cs),
(336,0,o),
(355,32,o),
(357,52,cs),
(378,249,l),
(409,285,o),
(434,298,o),
(460,298,cs),
(470,298,o),
(478,278,o),
(475,253,cs),
(454,65,ls),
(450,31,o),
(471,0,o),
(515,0,cs),
(564,0,o),
(582,32,o),
(584,53,cs),
(604,242,ls),
(616,355,o),
(577,421,o),
(482,421,cs),
(439,421,o),
(390,392,o),
(361,364,c),
(342,401,o),
(306,421,o),
(254,421,cs),
(221,421,o),
(186,403,o),
(158,383,c),
(151,403,o),
(133,416,o),
(106,416,cs),
(68,416,o),
(34,399,o),
(30,360,cs),
(-1,61,ls),
(-5,22,o),
(23,0,o),
(60,0,cs)
);
},
{
closed = 1;
nodes = (
(27,13,o),
(9,28,o),
(12,59,cs),
(43,357,ls),
(47,391,o),
(73,403,o),
(106,403,cs),
(142,403,o),
(150,382,o),
(149,366,cs),
(149,360,o),
(149,358,o),
(153,362,cs),
(167,377,o),
(214,407,o),
(254,407,cs),
(306,407,o),
(337,389,o),
(352,350,cs),
(353,347,o),
(354,343,o),
(357,343,cs),
(361,343,o),
(363,347,o),
(363,347,cs),
(389,373,o),
(439,407,o),
(482,407,cs),
(569,407,o),
(602,351,o),
(591,243,cs),
(571,54,ls),
(569,37,o),
(556,13,o),
(515,13,cs),
(479,13,o),
(465,35,o),
(468,63,cs),
(488,251,ls),
(492,285,o),
(480,312,o),
(460,312,cs),
(431,312,o),
(400,298,o),
(369,261,cs),
(365,256,o),
(364,250,o),
(363,243,cs),
(343,55,ls),
(341,37,o),
(328,13,o),
(287,13,cs),
(252,13,o),
(237,34,o),
(240,63,cs),
(260,251,ls),
(264,285,o),
(252,312,o),
(232,312,cs),
(198,312,o),
(170,295,o),
(150,269,cs),
(138,254,o),
(136,246,o),
(135,236,cs),
(115,54,ls),
(113,37,o),
(102,13,o),
(60,13,cs)
);
}
);
vertWidth = 0;
width = 692;
},
{
layerId = m003;
shapes = (
{
closed = 1;
nodes = (
(110,0,o),
(127,32,o),
(129,51,cs),
(150,248,l),
(178,283,o),
(203,298,o),
(232,298,cs),
(242,298,o),
(249,278,o),
(246,253,cs),
(226,65,ls),
(222,31,o),
(243,0,o),
(287,0,cs),
(336,0,o),
(355,32,o),
(357,52,cs),
(378,249,l),
(409,285,o),
(434,298,o),
(460,298,cs),
(470,298,o),
(478,278,o),
(475,253,cs),
(454,65,ls),
(450,31,o),
(471,0,o),
(515,0,cs),
(564,0,o),
(582,32,o),
(584,53,cs),
(604,242,ls),
(616,355,o),
(577,421,o),
(482,421,cs),
(439,421,o),
(390,392,o),
(361,364,c),
(342,401,o),
(306,421,o),
(254,421,cs),
(221,421,o),
(186,403,o),
(158,383,c),
(151,403,o),
(133,416,o),
(106,416,cs),
(68,416,o),
(34,399,o),
(30,360,cs),
(-1,61,ls),
(-5,22,o),
(23,0,o),
(60,0,cs)
);
},
{
closed = 1;
nodes = (
(39,33,o),
(34,37,o),
(37,57,cs),
(68,355,ls),
(70,378,o),
(81,383,o),
(106,383,cs),
(123,383,o),
(125,378,o),
(123,347,cs),
(120,321,o),
(148,324,o),
(158,334,cs),
(185,363,o),
(223,387,o),
(254,387,cs),
(297,387,o),
(315,376,o),
(329,342,cs),
(333,332,o),
(345,327,o),
(359,327,cs),
(368,327,o),
(378,330,o),
(381,333,cs),
(406,359,o),
(448,387,o),
(482,387,cs),
(552,387,o),
(577,346,o),
(566,245,cs),
(546,56,ls),
(545,43,o),
(539,33,o),
(515,33,cs),
(495,33,o),
(491,40,o),
(493,61,cs),
(513,249,ls),
(518,296,o),
(495,332,o),
(460,332,cs),
(424,332,o),
(383,313,o),
(350,273,cs),
(341,263,o),
(339,254,o),
(338,245,cs),
(318,57,ls),
(316,43,o),
(311,33,o),
(287,33,cs),
(268,33,o),
(263,40,o),
(265,61,cs),
(285,249,ls),
(290,296,o),
(267,332,o),
(232,332,cs),
(188,332,o),
(150,308,o),
(118,267,cs),
(114,262,o),
(113,257,o),
(112,250,cs),
(90,56,ls),
(88,43,o),
(84,33,o),
(60,33,cs)
);
}
);
vertWidth = 0;
width = 692;
},
{
layerId = m004;
shapes = (
{
closed = 1;
nodes = (
(110,0,o),
(127,32,o),
(129,51,cs),
(150,248,l),
(178,283,o),
(203,298,o),
(232,298,cs),
(242,298,o),
(249,278,o),
(246,253,cs),
(226,65,ls),
(222,31,o),
(243,0,o),
(287,0,cs),
(336,0,o),
(355,32,o),
(357,52,cs),
(378,249,l),
(409,285,o),
(434,298,o),
(460,298,cs),
(470,298,o),
(478,278,o),
(475,253,cs),
(454,65,ls),
(450,31,o),
(471,0,o),
(515,0,cs),
(564,0,o),
(582,32,o),
(584,53,cs),
(604,242,ls),
(616,355,o),
(577,421,o),
(482,421,cs),
(439,421,o),
(390,392,o),
(361,364,c),
(342,401,o),
(306,421,o),
(254,421,cs),
(221,421,o),
(186,403,o),
(158,383,c),
(151,403,o),
(133,416,o),
(106,416,cs),
(68,416,o),
(34,399,o),
(30,360,cs),
(-1,61,ls),
(-5,22,o),
(23,0,o),
(60,0,cs)
);
},
{
closed = 1;
nodes = (
(32,23,o),
(19,34,o),
(22,58,cs),
(53,356,ls),
(56,383,o),
(76,393,o),
(106,393,cs),
(134,393,o),
(140,379,o),
(138,346,cs),
(137,336,o),
(140,334,o),
(147,341,cs),
(173,369,o),
(217,397,o),
(254,397,cs),
(302,397,o),
(329,381,o),
(343,346,cs),
(346,340,o),
(350,337,o),
(359,337,cs),
(366,337,o),
(369,339,o),
(370,340,cs),
(395,365,o),
(442,397,o),
(482,397,cs),
(562,397,o),
(592,347,o),
(581,244,cs),
(561,55,ls),
(560,41,o),
(549,23,o),
(515,23,cs),
(485,23,o),
(476,39,o),
(478,62,cs),
(498,250,ls),
(502,287,o),
(486,322,o),
(460,322,cs),
(429,322,o),
(394,306,o),
(361,267,cs),
(356,261,o),
(354,252,o),
(353,244,cs),
(333,56,ls),
(331,41,o),
(321,23,o),
(287,23,cs),
(258,23,o),
(248,39,o),
(250,62,cs),
(270,250,ls),
(274,287,o),
(258,322,o),
(232,322,cs),
(195,322,o),
(163,302,o),
(132,263,cs),
(129,258,o),
(128,255,o),
(127,249,cs),
(105,55,ls),
(103,41,o),
(95,23,o),
(60,23,cs)
);
}
);
vertWidth = 0;
width = 692;
}
);
unicode = 109;
},
{
glyphname = n;
kernLeft = n_left;
kernRight = n_right;
layers = (
{
layerId = m002;
shapes = (
{
closed = 1;
nodes = (
(110,0,o),
(128,31,o),
(130,51,cs),
(149,231,l),
(181,278,o),
(213,298,o),
(241,298,cs),
(259,298,o),
(264,283,o),
(261,253,cs),
(240,65,ls),
(236,32,o),
(255,0,o),
(299,0,cs),
(347,0,o),
(368,24,o),
(371,53,cs),
(390,242,ls),
(401,355,o),
(349,420,o),
(255,420,cs),
(215,420,o),
(183,406,o),
(159,384,c),
(151,404,o),
(132,416,o),
(100,416,cs),
(57,416,o),
(34,386,o),
(30,349,cs),
(-1,62,ls),
(-5,29,o),
(14,0,o),
(60,0,cs)
);
},
{
closed = 1;
nodes = (
(23,13,o),
(10,33,o),
(13,60,cs),
(43,348,ls),
(46,380,o),
(64,403,o),
(100,403,cs),
(130,403,o),
(145,393,o),
(148,370,cs),
(149,366,o),
(148,363,o),
(151,362,cs),
(156,360,o),
(157,363,o),
(160,366,cs),
(182,390,o),
(214,407,o),
(255,407,cs),
(342,407,o),
(388,351,o),
(377,243,cs),
(357,54,ls),
(354,30,o),
(341,13,o),
(299,13,cs),
(263,13,o),
(251,35,o),
(254,63,cs),
(275,251,ls),
(279,287,o),
(271,312,o),
(241,312,cs),
(208,312,o),
(173,290,o),
(139,240,cs),
(136,236,o),
(136,235,o),
(135,230,cs),
(116,54,ls),
(114,36,o),
(102,13,o),
(60,13,cs)
);
}
);
vertWidth = 0;
width = 476;
},
{
layerId = m003;
shapes = (
{
closed = 1;
nodes = (
(110,0,o),
(128,31,o),
(130,51,cs),
(149,231,l),
(181,278,o),
(213,298,o),
(241,298,cs),
(259,298,o),
(264,283,o),
(261,253,cs),
(240,65,ls),
(236,32,o),
(255,0,o),
(299,0,cs),
(347,0,o),
(368,24,o),
(371,53,cs),
(390,242,ls),
(401,355,o),
(349,420,o),
(255,420,cs),
(215,420,o),
(183,406,o),
(159,384,c),
(151,404,o),
(132,416,o),
(100,416,cs),
(57,416,o),
(34,386,o),
(30,349,cs),
(-1,62,ls),
(-5,29,o),
(14,0,o),
(60,0,cs)
);
},
{
closed = 1;
nodes = (
(39,33,o),
(36,38,o),
(38,58,cs),
(68,346,ls),
(71,373,o),
(79,383,o),
(100,383,cs),
(115,383,o),
(121,382,o),
(123,368,cs),
(125,356,o),
(132,350,o),
(143,346,cs),
(154,341,o),
(170,343,o),
(178,352,cs),
(200,374,o),
(222,387,o),
(255,387,cs),
(327,387,o),
(362,344,o),
(352,245,cs),
(332,56,ls),
(330,37,o),
(326,33,o),
(299,33,cs),
(280,33,o),
(277,40,o),
(279,61,cs),
(300,249,ls),
(305,291,o),
(290,332,o),
(241,332,cs),
(198,332,o),
(154,304,o),
(119,252,cs),
(114,244,o),
(111,241,o),
(110,234,cs),
(91,56,ls),
(89,42,o),
(85,33,o),
(60,33,cs)
);
}
);
vertWidth = 0;
width = 476;
},
{
layerId = m004;
shapes = (
{
closed = 1;
nodes = (
(110,0,o),
(128,31,o),
(130,51,cs),
(149,231,l),
(181,278,o),
(213,298,o),
(241,298,cs),
(259,298,o),
(264,283,o),
(261,253,cs),
(240,65,ls),
(236,32,o),
(255,0,o),
(299,0,cs),
(347,0,o),
(368,24,o),
(371,53,cs),
(390,242,ls),
(401,355,o),
(349,420,o),
(255,420,cs),
(215,420,o),
(183,406,o),
(159,384,c),
(151,404,o),
(132,416,o),
(100,416,cs),
(57,416,o),
(34,386,o),
(30,349,cs),
(-1,62,ls),
(-5,29,o),
(14,0,o),
(60,0,cs)
);
},
{
closed = 1;
nodes = (
(29,23,o),
(21,37,o),
(23,59,cs),
(53,347,ls),
(56,375,o),
(70,393,o),
(100,393,cs),
(126,393,o),
(136,386,o),
(138,369,cs),
(139,362,o),
(142,357,o),
(149,355,cs),
(157,352,o),
(162,354,o),
(167,359,cs),
(188,382,o),
(217,397,o),
(255,397,cs),
(336,397,o),
(378,346,o),
(367,244,cs),
(347,55,ls),
(345,35,o),
(335,23,o),
(299,23,cs),
(270,23,o),
(261,39,o),
(264,62,cs),
(285,250,ls),
(289,288,o),
(278,322,o),
(241,322,cs),
(205,322,o),
(166,297,o),
(131,246,cs),
(127,241,o),
(126,237,o),
(125,232,cs),
(106,55,ls),
(104,40,o),
(95,23,o),
(60,23,cs)
);
}
);
vertWidth = 0;
width = 476;
}
);
unicode = 110;
},
{
glyphname = o;
kernLeft = o_left;
kernRight = o_right;
layers = (
{
layerId = m002;
shapes = (
{
closed = 1;
nodes = (
(253,-5,o),
(346,177,o),
(357,275,cs),
(368,370,o),
(291,416,o),
(200,416,cs),
(57,416,o),
(-8,287,o),
(-15,147,cs),
(-20,57,o),
(53,-5,o),
(121,-5,cs)
);
},
{
closed = 1;
nodes = (
(57,9,o),
(-5,64,o),
(-1,147,cs),
(6,284,o),
(66,403,o),
(200,403,cs),
(287,403,o),
(354,363,o),
(343,276,cs),
(333,180,o),
(244,9,o),
(121,9,cs)
);
},
{
closed = 1;
nodes = (
(177,103,o),
(242,218,o),
(248,268,cs),
(252,295,o),
(232,310,o),
(192,310,cs),
(127,310,o),
(105,220,o),
(99,143,cs),
(98,121,o),
(106,103,o),
(132,103,cs)
);
},
{
closed = 1;
nodes = (
(116,117,o),
(112,125,o),
(113,143,cs),
(119,217,o),
(139,296,o),
(192,296,cs),
(225,296,o),
(237,288,o),
(234,270,cs),
(229,222,o),
(166,117,o),
(132,117,cs)
);
}
);
vertWidth = 0;
width = 421;
},
{
layerId = m003;
shapes = (
{
closed = 1;
nodes = (
(253,-5,o),
(346,177,o),
(357,275,cs),
(368,370,o),
(291,416,o),
(200,416,cs),
(57,416,o),
(-8,287,o),
(-15,147,cs),
(-20,57,o),
(53,-5,o),
(121,-5,cs)
);
},
{
closed = 1;
nodes = (
(70,29,o),
(20,72,o),
(24,145,cs),
(31,279,o),
(84,383,o),
(200,383,cs),
(277,383,o),
(327,353,o),
(318,278,cs),
(308,186,o),
(227,29,o),
(121,29,cs)
);
},
{
closed = 1;
nodes = (
(197,83,o),
(267,213,o),
(273,266,cs),
(279,304,o),
(243,330,o),
(192,330,cs),
(104,330,o),
(80,223,o),
(74,145,cs),
(73,115,o),
(90,83,o),
(132,83,cs)
);
},
{
closed = 1;
nodes = (
(116,117,o),
(112,125,o),
(113,143,cs),
(119,217,o),
(139,296,o),
(192,296,cs),
(225,296,o),
(237,288,o),
(234,270,cs),
(229,222,o),
(166,117,o),
(132,117,cs)
);
}
);
vertWidth = 0;
width = 421;
},
{
layerId = m004;
shapes = (
{
closed = 1;
nodes = (
(253,-5,o),
(346,177,o),
(357,275,cs),
(368,370,o),
(291,416,o),
(200,416,cs),
(57,416,o),
(-8,287,o),
(-15,147,cs),
(-20,57,o),
(53,-5,o),
(121,-5,cs)
);
},
{
closed = 1;
nodes = (
(63,19,o),
(5,69,o),
(9,146,cs),
(16,280,o),
(73,393,o),
(200,393,cs),
(282,393,o),
(343,357,o),
(333,277,cs),
(323,184,o),
(237,19,o),
(121,19,cs)
);
},
{
closed = 1;
nodes = (
(183,93,o),
(252,215,o),
(258,267,cs),
(263,299,o),
(235,320,o),
(192,320,cs),
(119,320,o),
(95,222,o),
(89,144,cs),
(88,119,o),
(100,93,o),
(132,93,cs)
);
},
{
closed = 1;
nodes = (
(116,117,o),
(112,125,o),
(113,143,cs),
(119,217,o),
(139,296,o),
(192,296,cs),
(225,296,o),
(237,288,o),
(234,270,cs),
(229,222,o),
(166,117,o),
(132,117,cs)
);
}
);
vertWidth = 0;
width = 421;
}
);
unicode = 111;
},
{
glyphname = p;
kernLeft = n_left;
kernRight = o_right;
layers = (
{
layerId = m002;
shapes = (
{
closed = 1;
nodes = (
(55,-341,o),
(88,-320,o),
(92,-285,cs),
(122,0,l),
(133,0,ls),
(274,0,o),
(374,91,o),
(374,282,cs),
(374,364,o),
(321,421,o),
(249,421,cs),
(215,421,o),
(180,401,o),
(153,378,c),
(143,400,o),
(120,416,o),
(93,416,cs),
(63,416,o),
(32,396,o),
(28,361,cs),
(-38,-273,ls),
(-42,-312,o),
(-13,-341,o),
(23,-341,cs)
);
},
{
closed = 1;
nodes = (
(-8,-327,o),
(-28,-307,o),
(-25,-274,cs),
(41,359,ls),
(44,388,o),
(67,403,o),
(93,403,cs),
(117,403,o),
(137,389,o),
(143,368,cs),
(145,361,o),
(143,358,o),
(146,357,cs),
(151,356,o),
(152,359,o),
(154,361,cs),
(182,385,o),
(216,407,o),
(249,407,cs),
(315,407,o),
(360,358,o),
(360,282,cs),
(360,97,o),
(264,13,o),
(124,13,cs),
(115,13,ls),
(109,13,o),
(109,10,o),
(108,0,cs),
(78,-283,ls),
(75,-312,o),
(50,-327,o),
(23,-327,cs)
);
},
{
closed = 1;
nodes = (
(246,108,o),
(263,190,o),
(263,263,cs),
(263,296,o),
(254,313,o),
(231,313,cs),
(214,313,o),
(177,294,o),
(136,243,cs),
(134,241,o),
(134,239,o),
(133,234,cs),
(120,115,ls),
(119,102,o),
(120,100,o),
(133,101,cs)
);
},
{
closed = 1;
nodes = (
(146,234,l),
(185,282,o),
(218,299,o),
(231,299,cs),
(245,299,o),
(250,290,o),
(250,263,cs),
(250,195,o),
(232,122,o),
(134,115,c)
);
}
);
vertWidth = 0;
width = 445;
},
{
layerId = m003;
shapes = (
{
closed = 1;
nodes = (
(55,-341,o),
(88,-320,o),
(92,-285,cs),
(122,0,l),
(124,0,ls),
(274,0,o),
(374,91,o),
(374,282,cs),
(374,364,o),
(321,421,o),
(249,421,cs),
(215,421,o),
(180,401,o),
(153,378,c),
(143,400,o),
(120,416,o),
(93,416,cs),
(63,416,o),
(32,396,o),
(28,361,cs),
(-38,-273,ls),
(-42,-312,o),
(-13,-341,o),
(23,-341,cs)
);
},
{
closed = 1;
nodes = (
(5,-307,o),
(-3,-299,o),
(0,-276,cs),
(66,357,ls),
(68,377,o),
(77,383,o),
(93,383,cs),
(107,383,o),
(114,378,o),
(119,362,cs),
(122,352,o),
(127,346,o),
(138,342,cs),
(149,337,o),
(166,340,o),
(172,348,c),
(200,371,o),
(225,387,o),
(249,387,cs),
(301,387,o),
(335,351,o),
(335,282,cs),
(335,106,o),
(257,33,o),
(124,33,cs),
(112,33,ls),
(99,33,o),
(86,27,o),
(84,13,cs),
(53,-281,ls),
(51,-301,o),
(41,-307,o),
(23,-307,cs)
);
},
{
closed = 1;
nodes = (
(264,82,o),
(288,188,o),
(288,263,cs),
(288,303,o),
(271,333,o),
(231,333,cs),
(206,333,o),
(161,310,o),
(116,255,cs),
(111,249,o),
(110,245,o),
(108,236,c),
(94,105,ls),
(92,88,o),
(106,81,o),
(120,81,cs)
);
},
{
closed = 1;
nodes = (
(146,234,l),
(185,282,o),
(218,299,o),
(231,299,cs),
(245,299,o),
(250,290,o),
(250,263,cs),
(250,195,o),
(232,122,o),
(134,115,c)
);
}
);
vertWidth = 0;
width = 445;
},
{
layerId = m004;
shapes = (
{
closed = 1;
nodes = (
(55,-341,o),
(88,-320,o),
(92,-285,cs),
(122,0,l),
(136,0,ls),
(270,0,o),
(374,91,o),
(374,282,cs),
(374,364,o),
(321,421,o),
(249,421,cs),
(215,421,o),
(180,401,o),
(153,378,c),
(143,400,o),
(120,416,o),
(93,416,cs),
(63,416,o),
(32,396,o),
(28,361,cs),
(-38,-273,ls),
(-42,-312,o),
(-13,-341,o),
(23,-341,cs)
);
},
{
closed = 1;
nodes = (
(-2,-317,o),
(-18,-302,o),
(-15,-275,cs),
(51,358,ls),
(53,381,o),
(71,393,o),
(93,393,cs),
(113,393,o),
(128,382,o),
(133,365,cs),
(135,358,o),
(137,353,o),
(144,351,cs),
(152,348,o),
(157,350,o),
(161,354,cs),
(188,377,o),
(219,397,o),
(249,397,cs),
(309,397,o),
(350,353,o),
(350,282,cs),
(350,103,o),
(266,23,o),
(124,23,cs),
(112,23,ls),
(104,23,o),
(100,19,o),
(99,12,cs),
(68,-282,ls),
(66,-305,o),
(46,-317,o),
(23,-317,cs)
);
},
{
closed = 1;
nodes = (
(250,92,o),
(273,189,o),
(273,263,cs),
(273,298,o),
(260,323,o),
(231,323,cs),
(212,323,o),
(171,302,o),
(128,249,cs),
(125,245,o),
(124,241,o),
(123,235,cs),
(109,104,ls),
(108,96,o),
(112,91,o),
(120,91,cs)
);
},
{
closed = 1;
nodes = (
(146,234,l),
(185,282,o),
(218,299,o),
(231,299,cs),
(245,299,o),
(250,290,o),
(250,263,cs),
(250,195,o),
(232,118,o),
(134,115,c)
);
}
);
vertWidth = 0;
width = 445;
}
);
unicode = 112;
},
{
glyphname = q;
kernLeft = o_left;
layers = (
{
layerId = m002;
shapes = (
{
closed = 1;
nodes = (
(353,-337,o),
(411,-290,o),
(430,-236,cs),
(441,-208,o),
(423,-182,o),
(403,-166,cs),
(378,-149,o),
(345,-146,o),
(330,-176,cs),
(313,-215,o),
(307,-223,o),
(301,-222,cs),
(297,-221,o),
(295,-216,o),
(299,-182,cs),
(358,343,ls),
(363,386,o),
(337,416,o),
(293,416,cs),
(225,416,ls),
(40,416,o),
(-11,261,o),
(-11,147,cs),
(-11,41,o),
(53,-5,o),
(111,-5,cs),
(139,-5,o),
(167,7,o),
(192,24,c),
(173,-144,ls),
(159,-268,o),
(188,-337,o),
(290,-337,cs)
);
},
{
closed = 1;
nodes = (
(198,-323,o),
(173,-265,o),
(187,-146,cs),
(207,28,ls),
(210,57,o),
(206,53,o),
(197,45,cs),
(179,30,o),
(147,9,o),
(111,9,cs),
(57,9,o),
(3,48,o),
(3,147,cs),
(3,258,o),
(50,403,o),
(225,403,cs),
(293,403,ls),
(330,403,o),
(348,381,o),
(344,345,cs),
(285,-180,ls),
(280,-223,o),
(286,-233,o),
(300,-235,cs),
(312,-237,o),
(323,-228,o),
(343,-182,cs),
(352,-163,o),
(371,-160,o),
(395,-177,cs),
(413,-192,o),
(425,-209,o),
(416,-232,cs),
(398,-280,o),
(348,-323,o),
(290,-323,cs)
);
},
{
closed = 1;
nodes = (
(150,103,o),
(180,115,o),
(217,160,cs),
(221,165,o),
(221,168,o),
(222,174,cs),
(236,302,ls),
(237,310,o),
(236,312,o),
(233,312,cs),
(228,312,ls),
(124,312,o),
(100,217,o),
(100,157,cs),
(100,124,o),
(106,103,o),
(129,103,cs)
);
},
{
closed = 1;
nodes = (
(117,117,o),
(114,127,o),
(114,157,cs),
(114,212,o),
(134,293,o),
(222,298,c),
(208,170,l),
(173,128,o),
(147,117,o),
(129,117,cs)
);
}
);
vertWidth = 0;
width = 445;
},
{
layerId = m003;
shapes = (
{
closed = 1;
nodes = (
(353,-337,o),
(411,-290,o),
(430,-236,cs),
(441,-208,o),
(423,-182,o),
(403,-166,cs),
(378,-149,o),
(345,-146,o),
(330,-176,cs),
(313,-215,o),
(307,-223,o),
(301,-222,cs),
(297,-221,o),
(295,-216,o),
(299,-182,cs),
(358,343,ls),
(363,386,o),
(337,416,o),
(293,416,cs),
(225,416,ls),
(40,416,o),
(-11,261,o),
(-11,147,cs),
(-11,41,o),
(53,-5,o),
(111,-5,cs),
(139,-5,o),
(167,7,o),
(192,24,c),
(173,-144,ls),
(159,-268,o),
(188,-337,o),
(290,-337,cs)
);
},
{
closed = 1;
nodes = (
(217,-303,o),
(200,-260,o),
(212,-148,cs),
(232,41,ls),
(235,65,o),
(234,96,o),
(191,61,cs),
(158,34,o),
(129,29,o),
(111,29,cs),
(68,29,o),
(28,58,o),
(28,147,cs),
(28,255,o),
(70,383,o),
(225,383,cs),
(293,383,ls),
(315,383,o),
(322,374,o),
(319,347,cs),
(260,-178,ls),
(253,-236,o),
(271,-251,o),
(295,-255,cs),
(319,-259,o),
(338,-241,o),
(356,-200,cs),
(361,-188,o),
(373,-187,o),
(380,-193,cs),
(392,-203,o),
(397,-213,o),
(393,-224,cs),
(376,-270,o),
(337,-303,o),
(290,-303,cs)
);
},
{
closed = 1;
nodes = (
(157,83,o),
(196,99,o),
(237,148,cs),
(242,154,o),
(245,161,o),
(246,169,cs),
(262,308,ls),
(264,325,o),
(262,332,o),
(248,332,cs),
(231,332,ls),
(103,332,o),
(75,219,o),
(75,157,cs),
(75,120,o),
(86,83,o),
(129,83,cs)
);
},
{
closed = 1;
nodes = (
(117,117,o),
(114,127,o),
(114,157,cs),
(114,212,o),
(134,293,o),
(222,298,c),
(208,170,l),
(173,128,o),
(147,117,o),
(129,117,cs)
);
}
);
vertWidth = 0;
width = 445;
},
{
layerId = m004;
shapes = (
{
closed = 1;
nodes = (
(353,-337,o),
(411,-290,o),
(430,-236,cs),
(441,-208,o),
(423,-182,o),
(403,-166,cs),
(378,-149,o),
(345,-146,o),
(330,-176,cs),
(313,-215,o),
(307,-223,o),
(301,-222,cs),
(297,-221,o),
(295,-216,o),
(299,-182,cs),
(358,343,ls),
(363,386,o),
(337,416,o),
(293,416,cs),
(225,416,ls),
(40,416,o),
(-11,261,o),
(-11,147,cs),
(-11,41,o),
(53,-5,o),
(111,-5,cs),
(139,-5,o),
(167,7,o),
(192,24,c),
(173,-144,ls),
(160,-268,o),
(188,-337,o),
(290,-337,cs)
);
},
{
closed = 1;
nodes = (
(205,-313,o),
(185,-261,o),
(197,-147,cs),
(220,61,ls),
(221,72,o),
(214,75,o),
(206,67,cs),
(177,38,o),
(144,19,o),
(111,19,cs),
(62,19,o),
(13,54,o),
(13,147,cs),
(13,256,o),
(58,393,o),
(225,393,cs),
(293,393,ls),
(324,393,o),
(338,376,o),
(334,346,cs),
(275,-179,ls),
(270,-225,o),
(280,-242,o),
(298,-245,cs),
(315,-248,o),
(331,-234,o),
(352,-186,cs),
(359,-172,o),
(372,-173,o),
(389,-185,cs),
(405,-198,o),
(414,-212,o),
(407,-228,cs),
(391,-274,o),
(344,-313,o),
(290,-313,cs)
);
},
{
closed = 1;
nodes = (
(152,93,o),
(186,107,o),
(225,154,cs),
(229,159,o),
(231,163,o),
(231,169,cs),
(247,309,ls),
(248,317,o),
(244,322,o),
(236,322,cs),
(231,322,ls),
(116,322,o),
(90,218,o),
(90,157,cs),
(90,122,o),
(99,93,o),
(129,93,cs)
);
},
{
closed = 1;
nodes = (
(117,117,o),
(114,127,o),
(114,157,cs),
(114,212,o),
(134,293,o),
(222,298,c),
(208,170,l),
(173,128,o),
(147,117,o),
(129,117,cs)
);
}
);
vertWidth = 0;
width = 445;
}
);
unicode = 113;
},
{
glyphname = r;
kernLeft = n_left;
layers = (
{
layerId = m002;
shapes = (
{
closed = 1;
nodes = (
(93,0,o),
(125,21,o),
(129,57,cs),
(147,231,l),
(179,280,o),
(210,299,o),
(224,299,cs),
(229,299,o),
(231,293,o),
(232,290,cs),
(246,253,o),
(284,243,o),
(321,260,cs),
(355,275,o),
(371,308,o),
(361,342,cs),
(346,395,o),
(304,421,o),
(252,421,cs),
(211,421,o),
(179,401,o),
(154,380,c),
(151,403,o),
(123,416,o),
(98,416,cs),
(69,416,o),
(33,398,o),
(29,360,cs),
(-1,68,ls),
(-5,25,o),
(25,0,o),
(61,0,cs)
);
},
{
closed = 1;
nodes = (
(31,13,o),
(9,31,o),
(13,66,cs),
(43,359,ls),
(46,389,o),
(72,403,o),
(98,403,cs),
(129,403,o),
(142,382,o),
(141,364,cs),
(140,350,o),
(141,350,o),
(156,364,cs),
(166,374,o),
(201,408,o),
(252,408,cs),
(300,408,o),
(334,386,o),
(349,338,cs),
(356,310,o),
(344,286,o),
(315,272,cs),
(283,258,o),
(257,266,o),
(245,295,cs),
(240,310,o),
(238,313,o),
(228,313,cs),
(206,313,o),
(172,292,o),
(137,242,cs),
(134,238,o),
(134,236,o),
(133,231,cs),
(116,59,ls),
(113,28,o),
(88,13,o),
(61,13,cs)
);
}
);
vertWidth = 0;
width = 396;
},
{
layerId = m003;
shapes = (
{
closed = 1;
nodes = (
(93,-1,o),
(125,20,o),
(129,56,cs),
(147,230,l),
(179,279,o),
(210,298,o),
(220,298,cs),
(229,298,o),
(235,292,o),
(236,289,cs),
(245,252,o),
(284,242,o),
(321,259,cs),
(355,274,o),
(371,307,o),
(361,341,cs),
(346,394,o),
(304,421,o),
(252,421,cs),
(211,421,o),
(179,400,o),
(154,379,c),
(145,402,o),
(123,416,o),
(98,416,cs),
(69,416,o),
(33,397,o),
(29,359,cs),
(-1,67,ls),
(-5,24,o),
(25,-1,o),
(61,-1,cs)
);
},
{
closed = 1;
nodes = (
(43,32,o),
(36,39,o),
(38,63,cs),
(68,356,ls),
(70,377,o),
(81,384,o),
(98,384,cs),
(114,384,o),
(122,374,o),
(120,345,cs),
(118,315,o),
(123,315,o),
(146,338,cs),
(170,363,o),
(213,387,o),
(252,387,cs),
(290,387,o),
(312,373,o),
(325,331,cs),
(330,312,o),
(323,298,o),
(305,289,cs),
(283,280,o),
(276,281,o),
(269,299,cs),
(261,321,o),
(249,332,o),
(228,332,cs),
(196,332,o),
(152,304,o),
(115,250,cs),
(111,244,o),
(109,240,o),
(108,232,cs),
(91,60,ls),
(89,38,o),
(79,32,o),
(61,32,cs)
);
}
);
vertWidth = 0;
width = 396;
},
{
layerId = m004;
shapes = (
{
closed = 1;
nodes = (
(93,-1,o),
(125,20,o),
(129,56,cs),
(147,230,l),
(179,279,o),
(210,298,o),
(224,298,cs),
(229,298,o),
(231,292,o),
(232,289,cs),
(246,252,o),
(284,242,o),
(321,259,cs),
(355,274,o),
(371,307,o),
(361,341,cs),
(346,394,o),
(304,421,o),
(252,421,cs),
(211,421,o),
(179,400,o),
(154,379,c),
(145,402,o),
(123,416,o),
(98,416,cs),
(69,416,o),
(33,397,o),
(29,359,cs),
(-1,67,ls),
(-5,24,o),
(25,-1,o),
(61,-1,cs)
);
},
{
closed = 1;
nodes = (
(36,22,o),
(20,36,o),
(23,64,cs),
(53,357,ls),
(55,381,o),
(76,394,o),
(98,394,cs),
(123,394,o),
(138,376,o),
(135,344,cs),
(134,334,o),
(138,331,o),
(145,338,cs),
(172,365,o),
(205,397,o),
(252,397,cs),
(296,397,o),
(326,378,o),
(339,334,cs),
(345,311,o),
(336,292,o),
(311,280,cs),
(284,268,o),
(264,274,o),
(254,297,cs),
(249,313,o),
(243,322,o),
(228,322,cs),
(203,322,o),
(164,297,o),
(128,245,cs),
(125,240,o),
(124,237,o),
(123,231,cs),
(106,59,ls),
(104,34,o),
(84,22,o),
(61,22,cs)
);
}
);
vertWidth = 0;
width = 396;
}
);
unicode = 114;
},
{
glyphname = s;
layers = (
{
layerId = m002;
shapes = (
{
closed = 1;
nodes = (
(205,-5,o),
(279,26,o),
(287,110,cs),
(292,160,o),
(264,200,o),
(240,220,cs),
(225,233,o),
(196,252,o),
(172,266,cs),
(167,269,o),
(126,287,o),
(127,295,cs),
(128,299,o),
(137,301,o),
(155,301,cs),
(174,301,o),
(198,288,o),
(210,282,cs),
(241,268,o),
(287,265,o),
(303,298,cs),
(323,340,o),
(297,377,o),
(249,399,cs),
(218,413,o),
(180,419,o),
(148,419,cs),
(71,419,o),
(8,381,o),
(0,306,cs),
(-6,247,o),
(53,201,o),
(87,178,cs),
(136,145,ls),
(156,132,o),
(160,128,o),
(160,124,cs),
(160,118,o),
(156,117,o),
(139,117,cs),
(117,117,o),
(92,135,o),
(76,147,cs),
(47,166,o),
(-1,157,o),
(-16,123,cs),
(-31,85,o),
(-8,55,o),
(23,33,cs),
(51,14,o),
(106,-5,o),
(144,-5,cs)
);
},
{
closed = 1;
nodes = (
(109,9,o),
(58,26,o),
(31,44,cs),
(1,65,o),
(-16,88,o),
(-3,118,cs),
(9,144,o),
(45,152,o),
(68,135,cs),
(84,124,o),
(112,103,o),
(139,103,cs),
(166,103,o),
(173,111,o),
(174,123,cs),
(174,133,o),
(168,140,o),
(143,157,cs),
(94,190,ls),
(61,212,o),
(8,252,o),
(14,304,cs),
(21,373,o),
(76,406,o),
(148,406,cs),
(178,406,o),
(214,399,o),
(244,387,c),
(287,365,o),
(307,338,o),
(291,305,cs),
(279,280,o),
(245,282,o),
(216,295,cs),
(204,301,o),
(177,312,o),
(155,312,cs),
(129,312,o),
(115,309,o),
(113,296,cs),
(110,282,o),
(160,258,o),
(165,255,cs),
(189,241,o),
(217,223,o),
(232,209,cs),
(254,190,o),
(277,156,o),
(273,111,cs),
(266,35,o),
(202,9,o),
(144,9,cs)
);
}
);
vertWidth = 0;
width = 377;
},
{
layerId = m003;
shapes = (
{
closed = 1;
nodes = (
(205,-5,o),
(279,26,o),
(287,110,cs),
(292,160,o),
(264,200,o),
(240,220,cs),
(225,233,o),
(196,252,o),
(172,266,cs),
(167,269,o),
(126,287,o),
(127,295,cs),
(128,299,o),
(137,301,o),
(155,301,cs),
(174,301,o),
(198,288,o),
(210,282,cs),
(241,268,o),
(287,265,o),
(303,298,cs),
(323,340,o),
(297,377,o),
(249,399,cs),
(218,413,o),
(180,419,o),
(148,419,cs),
(71,419,o),
(8,381,o),
(0,306,cs),
(-6,247,o),
(53,201,o),
(87,178,cs),
(136,145,ls),
(156,132,o),
(160,128,o),
(160,124,cs),
(160,118,o),
(156,117,o),
(139,117,cs),
(117,117,o),
(92,135,o),
(76,147,cs),
(47,166,o),
(-1,157,o),
(-16,123,cs),
(-31,85,o),
(-8,55,o),
(23,33,cs),
(51,14,o),
(106,-5,o),
(144,-5,cs)
);
},
{
closed = 1;
nodes = (
(114,29,o),
(70,43,o),
(46,60,cs),
(21,77,o),
(12,91,o),
(20,110,cs),
(27,126,o),
(40,129,o),
(53,119,cs),
(67,109,o),
(103,83,o),
(139,83,cs),
(178,83,o),
(198,102,o),
(199,123,cs),
(199,140,o),
(188,152,o),
(157,173,cs),
(108,206,ls),
(78,226,o),
(29,260,o),
(34,302,cs),
(40,362,o),
(85,386,o),
(148,386,cs),
(174,386,o),
(204,380,o),
(232,370,c),
(267,352,o),
(279,336,o),
(269,313,cs),
(263,301,o),
(251,302,o),
(226,313,cs),
(216,318,o),
(183,332,o),
(155,332,cs),
(125,332,o),
(94,327,o),
(88,300,cs),
(83,271,o),
(145,242,o),
(152,237,c),
(174,225,o),
(200,208,o),
(215,195,cs),
(233,179,o),
(257,151,o),
(253,113,cs),
(247,49,o),
(195,29,o),
(144,29,cs)
);
}
);
vertWidth = 0;
width = 377;
},
{
layerId = m004;
shapes = (
{
closed = 1;
nodes = (
(205,-5,o),
(279,26,o),
(287,110,cs),
(292,160,o),
(264,200,o),
(240,220,cs),
(225,233,o),
(196,252,o),
(172,266,cs),
(167,269,o),
(126,287,o),
(127,295,cs),
(128,299,o),
(137,301,o),
(155,301,cs),
(174,301,o),
(198,288,o),
(210,282,cs),
(241,268,o),
(287,265,o),
(303,298,cs),
(323,340,o),
(297,377,o),
(249,399,cs),
(218,413,o),
(180,419,o),
(148,419,cs),
(71,419,o),
(8,381,o),
(0,306,cs),
(-6,247,o),
(53,201,o),
(87,178,cs),
(136,145,ls),
(156,132,o),
(160,128,o),
(160,124,cs),
(160,118,o),
(156,117,o),
(139,117,cs),
(117,117,o),
(92,135,o),
(76,147,cs),
(47,166,o),
(-1,157,o),
(-16,123,cs),
(-31,85,o),
(-8,55,o),
(23,33,cs),
(51,14,o),
(106,-5,o),
(144,-5,cs)
);
},
{
closed = 1;
nodes = (
(111,19,o),
(62,35,o),
(37,52,cs),
(9,72,o),
(-4,90,o),
(6,114,cs),
(15,134,o),
(44,140,o),
(62,127,cs),
(78,116,o),
(109,93,o),
(139,93,cs),
(170,93,o),
(183,107,o),
(184,123,cs),
(184,137,o),
(175,148,o),
(149,165,cs),
(100,198,ls),
(67,220,o),
(19,257,o),
(24,303,cs),
(30,366,o),
(80,396,o),
(148,396,cs),
(177,396,o),
(211,389,o),
(240,378,cs),
(279,358,o),
(295,336,o),
(282,309,cs),
(273,291,o),
(246,292,o),
(220,304,cs),
(208,310,o),
(179,322,o),
(155,322,cs),
(128,322,o),
(107,318,o),
(103,298,cs),
(99,276,o),
(155,249,o),
(160,246,cs),
(184,232,o),
(211,215,o),
(225,202,cs),
(246,184,o),
(267,153,o),
(263,112,cs),
(257,43,o),
(199,19,o),
(144,19,cs)
);
}
);
vertWidth = 0;
width = 377;
}
);
unicode = 115;
},
{
glyphname = t;
layers = (
{
layerId = m002;
shapes = (
{
closed = 1;
nodes = (
(148,0,o),
(180,13,o),
(184,50,cs),
(209,297,l),
(267,297,ls),
(309,297,o),
(332,323,o),
(332,356,cs),
(332,391,o),
(303,416,o),
(261,416,cs),
(221,416,l),
(249,686,ls),
(253,727,o),
(220,753,o),
(183,753,cs),
(146,753,o),
(116,728,o),
(113,699,cs),
(84,416,l),
(26,416,ls),
(-18,416,o),
(-39,390,o),
(-39,356,cs),
(-39,322,o),
(-11,297,o),
(31,297,cs),
(72,297,l),
(48,62,ls),
(43,17,o),
(82,0,o),
(116,0,cs)
);
},
{
closed = 1;
nodes = (
(86,13,o),
(57,25,o),
(61,61,cs),
(87,305,ls),
(88,310,o),
(87,311,o),
(81,311,cs),
(31,311,ls),
(-5,311,o),
(-26,328,o),
(-26,356,cs),
(-26,385,o),
(-11,403,o),
(26,403,cs),
(90,403,ls),
(95,403,o),
(97,404,o),
(97,408,cs),
(127,697,ls),
(129,720,o),
(152,739,o),
(183,739,cs),
(215,739,o),
(238,721,o),
(235,687,cs),
(207,408,ls),
(207,404,o),
(207,403,o),
(212,403,cs),
(261,403,ls),
(296,403,o),
(319,385,o),
(319,356,cs),
(319,329,o),
(303,311,o),
(267,311,cs),
(203,311,ls),
(198,311,o),
(197,310,o),
(196,305,cs),
(170,51,ls),
(167,22,o),
(145,13,o),
(116,13,cs)
);
}
);
vertWidth = 0;
width = 348;
},
{
layerId = m003;
shapes = (
{
closed = 1;
nodes = (
(148,0,o),
(180,13,o),
(184,50,cs),
(209,297,l),
(267,297,ls),
(309,297,o),
(332,323,o),
(332,356,cs),
(332,391,o),
(303,416,o),
(261,416,cs),
(221,416,l),
(249,686,ls),
(253,727,o),
(220,753,o),
(183,753,cs),
(146,753,o),
(116,728,o),
(113,699,cs),
(84,416,l),
(26,416,ls),
(-18,416,o),
(-39,390,o),
(-39,356,cs),
(-39,322,o),
(-11,297,o),
(31,297,cs),
(72,297,l),
(48,62,ls),
(43,17,o),
(82,0,o),
(116,0,cs)
);
},
{
closed = 1;
nodes = (
(93,33,o),
(84,37,o),
(86,59,cs),
(112,308,ls),
(114,329,o),
(111,331,o),
(86,331,cs),
(31,331,ls),
(7,331,o),
(-1,337,o),
(-1,356,cs),
(-1,378,o),
(3,383,o),
(26,383,cs),
(94,383,ls),
(116,383,o),
(119,386,o),
(121,404,cs),
(152,695,ls),
(154,711,o),
(164,719,o),
(183,719,cs),
(204,719,o),
(212,712,o),
(210,689,cs),
(181,406,ls),
(179,385,o),
(181,383,o),
(207,383,cs),
(261,383,ls),
(285,383,o),
(294,375,o),
(294,356,cs),
(294,336,o),
(289,331,o),
(267,331,cs),
(199,331,ls),
(177,331,o),
(174,328,o),
(172,311,cs),
(145,53,ls),
(143,35,o),
(138,33,o),
(116,33,cs)
);
}
);
vertWidth = 0;
width = 348;
},
{
layerId = m004;
shapes = (
{
closed = 1;
nodes = (
(148,0,o),
(180,13,o),
(184,50,cs),
(209,297,l),
(267,297,ls),
(309,297,o),
(332,323,o),
(332,356,cs),
(332,391,o),
(303,416,o),
(261,416,cs),
(221,416,l),
(249,686,ls),
(254,727,o),
(220,753,o),
(183,753,cs),
(146,753,o),
(117,728,o),
(113,699,cs),
(84,416,l),
(26,416,ls),
(-18,416,o),
(-39,390,o),
(-39,356,cs),
(-39,322,o),
(-11,297,o),
(31,297,cs),
(72,297,l),
(48,62,ls),
(44,17,o),
(82,0,o),
(116,0,cs)
);
},
{
closed = 1;
nodes = (
(89,23,o),
(69,32,o),
(71,60,cs),
(97,309,ls),
(98,317,o),
(94,321,o),
(86,321,cs),
(31,321,ls),
(0,321,o),
(-16,334,o),
(-16,356,cs),
(-16,380,o),
(-5,393,o),
(26,393,cs),
(94,393,ls),
(101,393,o),
(106,397,o),
(106,404,cs),
(137,696,ls),
(139,714,o),
(157,729,o),
(183,729,cs),
(210,729,o),
(229,715,o),
(225,688,cs),
(196,405,ls),
(195,397,o),
(199,393,o),
(207,393,cs),
(261,393,ls),
(292,393,o),
(309,378,o),
(309,356,cs),
(309,334,o),
(297,321,o),
(267,321,cs),
(199,321,ls),
(192,321,o),
(188,317,o),
(187,310,cs),
(160,52,ls),
(158,30,o),
(142,23,o),
(116,23,cs)
);
}
);
vertWidth = 0;
width = 348;
}
);
unicode = 116;
},
{
glyphname = u;
kernLeft = n_left;
kernRight = n_right;
layers = (
{
layerId = m002;
shapes = (
{
closed = 1;
nodes = (
(169,-5,o),
(210,15,o),
(243,40,c),
(248,15,o),
(266,0,o),
(300,0,cs),
(345,0,o),
(369,22,o),
(373,57,cs),
(405,354,ls),
(409,387,o),
(390,416,o),
(343,416,cs),
(294,416,o),
(277,385,o),
(275,364,cs),
(254,181,l),
(216,134,o),
(177,118,o),
(157,118,cs),
(145,118,o),
(137,130,o),
(141,163,cs),
(161,351,ls),
(165,385,o),
(140,416,o),
(96,416,cs),
(47,416,o),
(33,382,o),
(31,363,cs),
(11,174,ls),
(-1,61,o),
(40,-5,o),
(136,-5,cs)
);
},
{
closed = 1;
nodes = (
(48,9,o),
(13,65,o),
(24,173,cs),
(44,362,ls),
(46,379,o),
(57,403,o),
(96,403,cs),
(133,403,o),
(151,381,o),
(148,353,cs),
(128,165,ls),
(124,124,o),
(136,104,o),
(157,104,cs),
(180,104,o),
(224,121,o),
(257,162,cs),
(267,175,o),
(267,176,o),
(269,191,cs),
(288,363,ls),
(290,380,o),
(302,403,o),
(343,403,cs),
(382,403,o),
(394,383,o),
(391,356,cs),
(359,59,ls),
(356,29,o),
(339,13,o),
(300,13,cs),
(268,13,o),
(255,26,o),
(255,53,cs),
(255,57,o),
(255,62,o),
(252,63,cs),
(249,64,o),
(247,61,o),
(244,59,cs),
(211,32,o),
(169,9,o),
(136,9,cs)
);
}
);
vertWidth = 0;
width = 486;
},
{
layerId = m003;
shapes = (
{
closed = 1;
nodes = (
(169,-5,o),
(210,15,o),
(243,40,c),
(248,15,o),
(266,0,o),
(300,0,cs),
(345,0,o),
(369,22,o),
(373,57,cs),
(405,354,ls),
(409,387,o),
(390,416,o),
(343,416,cs),
(294,416,o),
(277,385,o),
(275,364,cs),
(254,181,l),
(216,134,o),
(177,118,o),
(157,118,cs),
(145,118,o),
(137,130,o),
(141,163,cs),
(161,351,ls),
(165,385,o),
(140,416,o),
(96,416,cs),
(47,416,o),
(33,382,o),
(31,363,cs),
(11,174,ls),
(-1,61,o),
(40,-5,o),
(136,-5,cs)
);
},
{
closed = 1;
nodes = (
(65,29,o),
(38,70,o),
(49,171,cs),
(69,360,ls),
(70,373,o),
(75,383,o),
(96,383,cs),
(118,383,o),
(125,374,o),
(123,355,cs),
(103,167,ls),
(98,118,o),
(120,84,o),
(157,84,cs),
(187,84,o),
(235,112,o),
(285,162,cs),
(290,167,o),
(292,171,o),
(293,179,cs),
(313,361,ls),
(314,374,o),
(319,383,o),
(343,383,cs),
(365,383,o),
(368,378,o),
(366,358,cs),
(334,61,ls),
(332,38,o),
(327,33,o),
(300,33,cs),
(282,33,o),
(278,37,o),
(275,55,cs),
(273,67,o),
(269,75,o),
(262,79,cs),
(256,82,o),
(249,83,o),
(240,75,cs),
(207,48,o),
(161,29,o),
(136,29,cs)
);
}
);
vertWidth = 0;
width = 486;
},
{
layerId = m004;
shapes = (
{
closed = 1;
nodes = (
(169,-5,o),
(210,15,o),
(243,40,c),
(248,15,o),
(266,0,o),
(300,0,cs),
(345,0,o),
(369,22,o),
(373,57,cs),
(405,354,ls),
(408,387,o),
(390,416,o),
(343,416,cs),
(294,416,o),
(277,385,o),
(275,364,cs),
(254,181,l),
(216,134,o),
(177,118,o),
(157,118,cs),
(145,118,o),
(138,130,o),
(141,163,cs),
(161,351,ls),
(166,385,o),
(140,416,o),
(96,416,cs),
(47,416,o),
(33,382,o),
(31,363,cs),
(11,174,ls),
(-1,61,o),
(40,-5,o),
(136,-5,cs)
);
},
{
closed = 1;
nodes = (
(55,19,o),
(24,69,o),
(34,172,cs),
(54,361,ls),
(56,375,o),
(64,393,o),
(96,393,cs),
(127,393,o),
(141,376,o),
(138,354,cs),
(118,166,ls),
(113,122,o),
(131,94,o),
(157,94,cs),
(182,94,o),
(230,113,o),
(272,166,cs),
(276,170,o),
(277,174,o),
(278,180,cs),
(298,362,ls),
(300,376,o),
(309,393,o),
(343,393,cs),
(375,393,o),
(384,379,o),
(381,357,cs),
(349,60,ls),
(347,35,o),
(334,23,o),
(300,23,cs),
(274,23,o),
(265,32,o),
(265,53,cs),
(265,60,o),
(262,65,o),
(255,69,cs),
(248,72,o),
(243,71,o),
(238,67,cs),
(206,40,o),
(166,19,o),
(136,19,cs)
);
}
);
vertWidth = 0;
width = 486;
}
);
unicode = 117;
},
{
glyphname = v;
kernLeft = v_left;
kernRight = v_right;
layers = (
{
layerId = m002;
shapes = (
{
closed = 1;
nodes = (
(246,-5,o),
(319,108,o),
(394,332,cs),
(411,386,o),
(381,416,o),
(334,416,cs),
(298,416,o),
(278,397,o),
(266,361,cs),
(197,159,o),
(148,112,o),
(146,112,cs),
(143,112,o),
(146,130,o),
(153,187,cs),
(171,345,ls),
(176,390,o),
(143,416,o),
(107,416,cs),
(78,416,o),
(39,396,o),
(35,358,cs),
(13,142,ls),
(5,60,o),
(38,-5,o),
(112,-5,cs)
);
},
{
closed = 1;
nodes = (
(47,9,o),
(18,63,o),
(26,141,cs),
(49,357,ls),
(53,387,o),
(81,403,o),
(107,403,cs),
(138,403,o),
(163,384,o),
(158,346,cs),
(140,189,ls),
(130,102,o),
(131,98,o),
(143,98,cs),
(157,98,o),
(207,147,o),
(279,356,cs),
(290,390,o),
(304,403,o),
(334,403,cs),
(375,403,o),
(395,382,o),
(381,336,cs),
(307,115,o),
(238,9,o),
(112,9,cs)
);
}
);
vertWidth = 0;
width = 443;
},
{
layerId = m003;
shapes = (
{
closed = 1;
nodes = (
(246,-5,o),
(319,108,o),
(394,332,cs),
(411,386,o),
(381,416,o),
(334,416,cs),
(298,416,o),
(278,397,o),
(266,361,cs),
(197,159,o),
(148,112,o),
(146,112,cs),
(143,112,o),
(146,130,o),
(153,187,cs),
(171,345,ls),
(176,390,o),
(143,416,o),
(107,416,cs),
(78,416,o),
(39,396,o),
(35,358,cs),
(13,142,ls),
(5,60,o),
(38,-5,o),
(112,-5,cs)
);
},
{
closed = 1;
nodes = (
(64,29,o),
(43,68,o),
(51,139,cs),
(74,355,ls),
(76,375,o),
(90,383,o),
(107,383,cs),
(126,383,o),
(137,375,o),
(133,348,cs),
(115,191,ls),
(104,88,o),
(112,78,o),
(143,78,cs),
(173,78,o),
(228,131,o),
(302,350,cs),
(312,379,o),
(316,383,o),
(334,383,cs),
(361,383,o),
(367,376,o),
(357,342,cs),
(284,123,o),
(222,29,o),
(112,29,cs)
);
}
);
vertWidth = 0;
width = 443;
},
{
layerId = m004;
shapes = (
{
closed = 1;
nodes = (
(246,-5,o),
(319,108,o),
(394,332,cs),
(411,386,o),
(381,416,o),
(334,416,cs),
(298,416,o),
(278,397,o),
(266,361,cs),
(197,159,o),
(148,112,o),
(146,112,cs),
(143,112,o),
(146,130,o),
(153,187,cs),
(171,345,ls),
(176,390,o),
(143,416,o),
(107,416,cs),
(78,416,o),
(39,396,o),
(35,358,cs),
(13,142,ls),
(5,60,o),
(38,-5,o),
(112,-5,cs)
);
},
{
closed = 1;
nodes = (
(54,19,o),
(28,67,o),
(36,140,cs),
(59,356,ls),
(62,380,o),
(85,393,o),
(107,393,cs),
(133,393,o),
(152,378,o),
(148,347,cs),
(130,190,ls),
(120,101,o),
(123,88,o),
(143,88,cs),
(161,88,o),
(216,141,o),
(288,353,cs),
(298,383,o),
(309,393,o),
(334,393,cs),
(369,393,o),
(383,378,o),
(371,339,cs),
(298,120,o),
(232,19,o),
(112,19,cs)
);
}
);
vertWidth = 0;
width = 443;
}
);
unicode = 118;
},
{
glyphname = w;
kernLeft = v_left;
kernRight = v_right;
layers = (
{
layerId = m002;
shapes = (
{
closed = 1;
nodes = (
(169,-5,o),
(215,23,o),
(254,71,c),
(262,21,o),
(289,-5,o),
(333,-5,cs),
(442,-5,o),
(543,84,o),
(615,332,cs),
(631,386,o),
(598,416,o),
(556,416,cs),
(521,416,o),
(499,401,o),
(487,361,cs),
(426,148,o),
(375,112,o),
(367,112,cs),
(363,112,o),
(364,140,o),
(370,187,cs),
(389,345,ls),
(394,388,o),
(373,416,o),
(336,416,cs),
(335,416,ls),
(301,416,o),
(274,401,o),
(264,360,cs),
(209,150,o),
(156,112,o),
(147,112,cs),
(144,112,o),
(146,137,o),
(151,187,cs),
(168,345,ls),
(173,390,o),
(139,416,o),
(103,416,cs),
(74,416,o),
(40,396,o),
(36,358,cs),
(13,142,ls),
(5,71,o),
(31,-5,o),
(110,-5,cs)
);
},
{
closed = 1;
nodes = (
(41,9,o),
(20,74,o),
(27,141,cs),
(49,357,ls),
(52,387,o),
(78,403,o),
(103,403,cs),
(134,403,o),
(158,384,o),
(154,346,cs),
(137,188,ls),
(131,132,o),
(127,98,o),
(144,98,cs),
(164,98,o),
(220,140,o),
(277,356,cs),
(285,393,o),
(306,403,o),
(335,403,cs),
(365,403,o),
(380,383,o),
(376,346,cs),
(357,189,ls),
(351,137,o),
(348,98,o),
(367,98,cs),
(384,98,o),
(437,138,o),
(500,357,cs),
(511,392,o),
(524,403,o),
(556,403,cs),
(593,403,o),
(616,382,o),
(603,336,cs),
(530,90,o),
(436,9,o),
(333,9,cs),
(290,9,o),
(267,35,o),
(265,93,cs),
(265,97,o),
(266,100,o),
(262,101,cs),
(258,102,o),
(257,99,o),
(255,96,cs),
(216,40,o),
(171,9,o),
(110,9,cs)
);
}
);
vertWidth = 0;
width = 663;
},
{
layerId = m003;
shapes = (
{
closed = 1;
nodes = (
(169,-5,o),
(215,23,o),
(254,71,c),
(262,21,o),
(289,-5,o),
(333,-5,cs),
(442,-5,o),
(543,84,o),
(615,332,cs),
(631,386,o),
(598,416,o),
(556,416,cs),
(521,416,o),
(499,401,o),
(487,361,cs),
(426,148,o),
(375,112,o),
(367,112,cs),
(363,112,o),
(364,140,o),
(370,187,cs),
(389,345,ls),
(394,388,o),
(373,416,o),
(336,416,cs),
(335,416,ls),
(301,416,o),
(274,401,o),
(264,360,cs),
(209,150,o),
(156,112,o),
(147,112,cs),
(144,112,o),
(146,137,o),
(151,187,cs),
(168,345,ls),
(173,390,o),
(139,416,o),
(103,416,cs),
(74,416,o),
(40,396,o),
(36,358,cs),
(13,142,ls),
(5,71,o),
(31,-5,o),
(110,-5,cs)
);
},
{
closed = 1;
nodes = (
(61,29,o),
(45,77,o),
(52,139,cs),
(74,355,ls),
(76,376,o),
(87,383,o),
(103,383,cs),
(122,383,o),
(132,375,o),
(129,348,cs),
(112,190,ls),
(105,126,o),
(100,78,o),
(144,78,cs),
(178,78,o),
(243,128,o),
(302,352,cs),
(308,380,o),
(314,383,o),
(335,383,cs),
(350,383,o),
(355,377,o),
(351,348,cs),
(332,191,ls),
(325,132,o),
(321,78,o),
(367,78,cs),
(399,78,o),
(460,126,o),
(524,351,cs),
(533,381,o),
(536,383,o),
(556,383,cs),
(580,383,o),
(588,375,o),
(579,342,cs),
(508,101,o),
(424,29,o),
(333,29,cs),
(304,29,o),
(292,43,o),
(290,93,cs),
(290,107,o),
(281,113,o),
(267,118,cs),
(256,121,o),
(241,117,o),
(235,108,cs),
(197,54,o),
(161,29,o),
(110,29,cs)
);
}
);
vertWidth = 0;
width = 663;
},
{
layerId = m004;
shapes = (
{
closed = 1;
nodes = (
(169,-5,o),
(215,23,o),
(254,71,c),
(262,21,o),
(289,-5,o),
(333,-5,cs),
(442,-5,o),
(543,84,o),
(615,332,cs),
(631,386,o),
(598,416,o),
(556,416,cs),
(521,416,o),
(499,401,o),
(487,361,cs),
(426,148,o),
(375,112,o),
(367,112,cs),
(363,112,o),
(364,140,o),
(370,187,cs),
(389,345,ls),
(394,388,o),
(373,416,o),
(336,416,cs),
(335,416,ls),
(301,416,o),
(274,401,o),
(264,360,cs),
(209,150,o),
(156,112,o),
(147,112,cs),
(144,112,o),
(146,137,o),
(151,187,cs),
(168,345,ls),
(173,390,o),
(139,416,o),
(103,416,cs),
(74,416,o),
(40,396,o),
(36,358,cs),
(13,142,ls),
(5,71,o),
(31,-5,o),
(110,-5,cs)
);
},
{
closed = 1;
nodes = (
(49,19,o),
(30,76,o),
(37,140,cs),
(59,356,ls),
(61,380,o),
(82,393,o),
(103,393,cs),
(129,393,o),
(147,378,o),
(144,347,cs),
(127,189,ls),
(121,133,o),
(116,88,o),
(144,88,cs),
(167,88,o),
(229,134,o),
(287,354,cs),
(294,385,o),
(309,393,o),
(335,393,cs),
(359,393,o),
(370,379,o),
(366,347,cs),
(347,190,ls),
(341,138,o),
(337,88,o),
(367,88,cs),
(387,88,o),
(446,132,o),
(510,354,cs),
(519,385,o),
(529,393,o),
(556,393,cs),
(587,393,o),
(604,377,o),
(593,339,cs),
(522,97,o),
(431,19,o),
(333,19,cs),
(296,19,o),
(277,40,o),
(275,93,cs),
(275,101,o),
(272,105,o),
(263,108,cs),
(256,110,o),
(251,108,o),
(247,102,cs),
(209,48,o),
(167,19,o),
(110,19,cs)
);
}
);
vertWidth = 0;
width = 663;
}
);
unicode = 119;
},
{
glyphname = x;
layers = (
{
layerId = m002;
shapes = (
{
closed = 1;
nodes = (
(55,0,o),
(77,12,o),
(90,30,cs),
(141,99,l),
(179,34,ls),
(198,2,o),
(222,0,o),
(232,0,cs),
(261,0,o),
(298,26,o),
(298,57,cs),
(298,69,o),
(291,86,o),
(281,105,cs),
(227,205,l),
(309,307,ls),
(324,325,o),
(330,341,o),
(330,358,cs),
(330,390,o),
(303,418,o),
(261,418,cs),
(246,418,o),
(221,409,o),
(207,389,cs),
(160,322,l),
(122,389,ls),
(109,411,o),
(88,418,o),
(69,418,cs),
(39,418,o),
(3,396,o),
(3,362,cs),
(3,343,o),
(13,328,o),
(17,321,cs),
(76,215,l),
(-5,113,ls),
(-21,92,o),
(-32,73,o),
(-32,61,cs),
(-32,26,o),
(0,0,o),
(35,0,cs)
);
},
{
closed = 1;
nodes = (
(5,13,o),
(-19,33,o),
(-19,61,cs),
(-19,70,o),
(-11,85,o),
(5,104,cs),
(87,206,ls),
(92,212,o),
(92,214,o),
(87,222,cs),
(29,328,ls),
(25,335,o),
(16,348,o),
(16,362,cs),
(16,388,o),
(44,405,o),
(69,405,cs),
(86,405,o),
(100,400,o),
(110,382,cs),
(158,298,l),
(160,294,o),
(162,298,o),
(162,298,c),
(218,381,ls),
(230,398,o),
(248,405,o),
(261,405,cs),
(296,405,o),
(317,385,o),
(317,358,cs),
(317,345,o),
(312,333,o),
(298,316,cs),
(217,214,ls),
(212,207,o),
(211,204,o),
(216,196,cs),
(269,99,ls),
(279,81,o),
(285,66,o),
(285,57,cs),
(285,33,o),
(254,13,o),
(232,13,cs),
(223,13,o),
(205,14,o),
(190,41,cs),
(145,122,l),
(143,126,o),
(143,125,o),
(141,122,c),
(79,38,ls),
(68,23,o),
(51,13,o),
(35,13,cs)
);
}
);
vertWidth = 0;
width = 388;
},
{
layerId = m003;
shapes = (
{
closed = 1;
nodes = (
(55,0,o),
(77,12,o),
(90,30,cs),
(141,99,l),
(179,34,ls),
(198,2,o),
(222,0,o),
(232,0,cs),
(261,0,o),
(298,26,o),
(298,57,cs),
(298,69,o),
(291,86,o),
(281,105,cs),
(227,205,l),
(309,307,ls),
(324,325,o),
(330,341,o),
(330,358,cs),
(330,390,o),
(303,418,o),
(261,418,cs),
(246,418,o),
(221,409,o),
(207,389,cs),
(160,322,l),
(122,389,ls),
(109,411,o),
(88,418,o),
(69,418,cs),
(39,418,o),
(3,396,o),
(3,362,cs),
(3,343,o),
(13,328,o),
(17,321,cs),
(76,215,l),
(-5,113,ls),
(-21,92,o),
(-32,73,o),
(-32,61,cs),
(-32,26,o),
(0,0,o),
(35,0,cs)
);
},
{
closed = 1;
nodes = (
(17,33,o),
(6,42,o),
(6,61,cs),
(6,66,o),
(12,76,o),
(25,92,cs),
(110,199,ls),
(118,209,o),
(118,214,o),
(113,224,cs),
(51,338,ls),
(47,345,o),
(41,353,o),
(41,362,cs),
(41,377,o),
(49,385,o),
(64,385,cs),
(74,385,o),
(81,384,o),
(88,372,cs),
(137,287,ls),
(145,273,o),
(169,271,o),
(180,287,cs),
(238,369,ls),
(247,382,o),
(255,385,o),
(261,385,cs),
(283,385,o),
(292,376,o),
(292,358,cs),
(292,348,o),
(289,341,o),
(278,328,cs),
(193,221,ls),
(185,211,o),
(184,206,o),
(190,194,cs),
(247,89,ls),
(256,72,o),
(260,63,o),
(260,57,cs),
(260,44,o),
(249,33,o),
(236,33,cs),
(229,33,o),
(222,33,o),
(212,51,cs),
(165,133,ls),
(156,148,o),
(131,147,o),
(122,135,cs),
(59,50,ls),
(49,37,o),
(43,33,o),
(35,33,cs)
);
}
);
vertWidth = 0;
width = 388;
},
{
layerId = m004;
shapes = (
{
closed = 1;
nodes = (
(55,0,o),
(77,12,o),
(90,30,cs),
(141,99,l),
(179,34,ls),
(197,2,o),
(222,0,o),
(232,0,cs),
(261,0,o),
(298,26,o),
(298,57,cs),
(298,69,o),
(291,86,o),
(281,105,cs),
(227,205,l),
(309,307,ls),
(323,326,o),
(330,341,o),
(330,358,cs),
(330,390,o),
(303,418,o),
(261,418,cs),
(246,418,o),
(222,409,o),
(207,389,cs),
(160,322,l),
(122,389,ls),
(109,411,o),
(88,418,o),
(69,418,cs),
(39,418,o),
(3,396,o),
(3,362,cs),
(3,343,o),
(13,328,o),
(17,321,cs),
(76,215,l),
(-5,113,ls),
(-22,93,o),
(-32,73,o),
(-32,61,cs),
(-32,26,o),
(0,0,o),
(35,0,cs)
);
},
{
closed = 1;
nodes = (
(10,23,o),
(-9,39,o),
(-9,56,cs),
(-9,67,o),
(-2,80,o),
(13,98,cs),
(98,205,ls),
(102,210,o),
(103,215,o),
(99,221,cs),
(38,333,ls),
(33,341,o),
(26,351,o),
(26,362,cs),
(26,381,o),
(48,395,o),
(69,395,cs),
(83,395,o),
(93,391,o),
(101,377,cs),
(150,292,ls),
(155,284,o),
(161,284,o),
(167,291,cs),
(226,375,ls),
(236,389,o),
(251,395,o),
(261,395,cs),
(291,395,o),
(307,379,o),
(307,358,cs),
(307,347,o),
(303,338,o),
(290,322,cs),
(205,215,ls),
(201,210,o),
(200,205,o),
(203,199,cs),
(260,94,ls),
(269,76,o),
(275,64,o),
(275,54,cs),
(275,40,o),
(251,23,o),
(232,23,cs),
(224,23,o),
(211,24,o),
(199,46,cs),
(151,129,ls),
(146,136,o),
(139,137,o),
(134,129,cs),
(71,44,ls),
(61,31,o),
(48,23,o),
(35,23,cs)
);
}
);
vertWidth = 0;
width = 388;
}
);
unicode = 120;
},
{
glyphname = y;
kernLeft = n_left;
kernRight = n_right;
layers = (
{
layerId = m002;
shapes = (
{
closed = 1;
nodes = (
(254,-337,o),
(331,-228,o),
(348,-63,cs),
(391,352,ls),
(395,395,o),
(361,416,o),
(322,416,cs),
(285,416,o),
(265,395,o),
(261,357,cs),
(240,158,l),
(204,119,o),
(169,118,o),
(154,118,cs),
(140,118,o),
(137,136,o),
(140,163,cs),
(160,351,ls),
(164,384,o),
(145,416,o),
(101,416,cs),
(52,416,o),
(31,383,o),
(29,364,cs),
(10,174,ls),
(-1,61,o),
(39,-5,o),
(135,-5,cs),
(165,-5,o),
(198,6,o),
(225,20,c),
(218,-46,ls),
(206,-156,o),
(176,-208,o),
(116,-208,cs),
(100,-208,o),
(86,-203,o),
(70,-197,cs),
(26,-181,o),
(-13,-186,o),
(-30,-229,cs),
(-50,-274,o),
(-23,-298,o),
(-4,-310,cs),
(13,-322,o),
(63,-337,o),
(119,-337,cs)
);
},
{
closed = 1;
nodes = (
(65,-323,o),
(19,-309,o),
(4,-299,cs),
(-15,-287,o),
(-33,-270,o),
(-17,-234,cs),
(-1,-195,o),
(31,-198,o),
(65,-210,cs),
(81,-216,o),
(98,-222,o),
(116,-222,cs),
(185,-222,o),
(220,-163,o),
(232,-47,cs),
(240,26,ls),
(243,50,o),
(239,44,o),
(225,36,cs),
(214,29,o),
(172,9,o),
(135,9,cs),
(46,9,o),
(12,65,o),
(23,173,cs),
(43,361,ls),
(45,379,o),
(60,403,o),
(101,403,cs),
(137,403,o),
(149,381,o),
(146,353,cs),
(126,165,ls),
(122,129,o),
(129,104,o),
(154,104,cs),
(170,104,o),
(210,106,o),
(249,148,cs),
(253,153,o),
(253,155,o),
(254,163,cs),
(274,355,ls),
(277,388,o),
(290,403,o),
(322,403,cs),
(357,403,o),
(381,387,o),
(378,354,cs),
(334,-61,ls),
(317,-222,o),
(247,-323,o),
(119,-323,cs)
);
}
);
vertWidth = 0;
width = 472;
},
{
layerId = m003;
shapes = (
{
closed = 1;
nodes = (
(254,-337,o),
(331,-228,o),
(348,-63,cs),
(391,352,ls),
(395,395,o),
(361,416,o),
(322,416,cs),
(285,416,o),
(265,395,o),
(261,357,cs),
(240,158,l),
(204,119,o),
(169,118,o),
(148,118,cs),
(140,118,o),
(137,136,o),
(140,163,cs),
(160,351,ls),
(164,384,o),
(145,416,o),
(101,416,cs),
(52,416,o),
(31,383,o),
(29,364,cs),
(10,174,ls),
(-1,61,o),
(39,-5,o),
(135,-5,cs),
(165,-5,o),
(198,6,o),
(225,20,c),
(218,-46,ls),
(206,-156,o),
(176,-208,o),
(116,-208,cs),
(100,-208,o),
(86,-203,o),
(70,-197,cs),
(26,-181,o),
(-13,-186,o),
(-30,-229,cs),
(-50,-274,o),
(-23,-298,o),
(-4,-310,cs),
(13,-322,o),
(63,-337,o),
(119,-337,cs)
);
},
{
closed = 1;
nodes = (
(70,-303,o),
(31,-292,o),
(17,-283,cs),
(3,-274,o),
(-5,-266,o),
(6,-242,cs),
(16,-217,o),
(26,-218,o),
(57,-228,c),
(70,-234,o),
(92,-242,o),
(116,-242,cs),
(203,-242,o),
(248,-170,o),
(257,-49,cs),
(263,34,ls),
(266,81,o),
(244,70,o),
(217,54,cs),
(187,36,o),
(166,29,o),
(135,29,cs),
(63,29,o),
(37,70,o),
(48,171,cs),
(68,359,ls),
(69,372,o),
(77,383,o),
(100,383,cs),
(120,383,o),
(123,376,o),
(121,355,cs),
(101,167,ls),
(96,119,o),
(112,84,o),
(148,84,cs),
(170,84,o),
(223,86,o),
(268,136,cs),
(274,142,o),
(277,148,o),
(278,156,cs),
(299,353,ls),
(302,380,o),
(309,383,o),
(327,383,cs),
(346,383,o),
(355,377,o),
(353,356,cs),
(309,-59,ls),
(292,-215,o),
(232,-303,o),
(119,-303,cs)
);
}
);
vertWidth = 0;
width = 472;
},
{
layerId = m004;
shapes = (
{
closed = 1;
nodes = (
(254,-337,o),
(330,-228,o),
(348,-63,cs),
(391,352,ls),
(395,395,o),
(361,416,o),
(322,416,cs),
(285,416,o),
(265,395,o),
(261,357,cs),
(240,158,l),
(204,119,o),
(169,118,o),
(152,118,cs),
(140,118,o),
(136,136,o),
(140,163,cs),
(160,351,ls),
(164,384,o),
(145,416,o),
(101,416,cs),
(52,416,o),
(31,383,o),
(29,364,cs),
(10,174,ls),
(-2,61,o),
(39,-5,o),
(135,-5,cs),
(165,-5,o),
(198,6,o),
(225,20,c),
(218,-46,ls),
(206,-156,o),
(176,-208,o),
(116,-208,cs),
(100,-208,o),
(86,-203,o),
(70,-197,cs),
(26,-181,o),
(-13,-186,o),
(-30,-229,cs),
(-50,-274,o),
(-23,-298,o),
(-4,-310,cs),
(13,-322,o),
(63,-337,o),
(119,-337,cs)
);
},
{
closed = 1;
nodes = (
(67,-313,o),
(23,-300,o),
(9,-291,cs),
(-8,-280,o),
(-21,-267,o),
(-8,-238,cs),
(5,-206,o),
(30,-208,o),
(62,-219,cs),
(77,-225,o),
(96,-232,o),
(116,-232,cs),
(191,-232,o),
(229,-166,o),
(242,-48,cs),
(252,45,ls),
(253,55,o),
(247,59,o),
(238,54,cs),
(209,36,o),
(170,19,o),
(135,19,cs),
(53,19,o),
(22,69,o),
(33,172,cs),
(53,360,ls),
(54,374,o),
(67,393,o),
(101,393,cs),
(130,393,o),
(139,377,o),
(136,354,cs),
(116,166,ls),
(111,128,o),
(122,94,o),
(152,94,cs),
(170,94,o),
(215,96,o),
(257,142,cs),
(261,147,o),
(263,151,o),
(263,156,cs),
(284,354,ls),
(288,383,o),
(296,393,o),
(322,393,cs),
(352,393,o),
(370,381,o),
(368,355,cs),
(324,-60,ls),
(308,-217,o),
(241,-313,o),
(119,-313,cs)
);
}
);
vertWidth = 0;
width = 472;
}
);
unicode = 121;
},
{
glyphname = z;
layers = (
{
layerId = m002;
shapes = (
{
closed = 1;
nodes = (
(250,0,ls),
(291,0,o),
(315,27,o),
(312,61,cs),
(309,94,o),
(283,119,o),
(243,119,cs),
(169,119,l),
(320,308,ls),
(359,357,o),
(320,416,o),
(273,416,cs),
(69,416,ls),
(27,416,o),
(4,387,o),
(6,353,cs),
(9,320,o),
(35,292,o),
(76,292,cs),
(143,292,l),
(-9,103,ls),
(-41,63,o),
(-12,0,o),
(41,0,cs)
);
},
{
closed = 1;
nodes = (
(-2,13,o),
(-25,62,o),
(1,94,cs),
(160,292,ls),
(170,304,o),
(172,305,o),
(152,305,cs),
(76,305,ls),
(41,305,o),
(21,327,o),
(20,353,cs),
(18,382,o),
(35,403,o),
(69,403,cs),
(273,403,ls),
(312,403,o),
(343,358,o),
(310,317,cs),
(152,119,ls),
(141,106,o),
(141,105,o),
(160,105,cs),
(243,105,ls),
(277,105,o),
(295,87,o),
(299,60,c),
(300,32,o),
(284,13,o),
(250,13,cs),
(41,13,ls)
);
}
);
vertWidth = 0;
width = 385;
},
{
layerId = m003;
shapes = (
{
closed = 1;
nodes = (
(250,0,ls),
(291,0,o),
(315,27,o),
(312,61,cs),
(309,94,o),
(283,119,o),
(243,119,cs),
(169,119,l),
(320,308,ls),
(360,357,o),
(320,416,o),
(273,416,cs),
(69,416,ls),
(27,416,o),
(4,387,o),
(6,353,cs),
(9,320,o),
(35,292,o),
(76,292,cs),
(143,292,l),
(-9,103,ls),
(-42,63,o),
(-12,0,o),
(41,0,cs)
);
},
{
closed = 1;
nodes = (
(17,33,o),
(4,61,o),
(21,82,cs),
(191,295,ls),
(209,317,o),
(188,325,o),
(173,325,cs),
(76,325,ls),
(55,325,o),
(46,335,o),
(45,355,cs),
(43,375,o),
(50,383,o),
(69,383,cs),
(273,383,ls),
(295,383,o),
(313,357,o),
(290,329,cs),
(119,114,ls),
(103,94,o),
(124,85,o),
(139,85,cs),
(243,85,ls),
(264,85,o),
(271,78,o),
(274,58,cs),
(275,39,o),
(270,33,o),
(250,33,cs),
(41,33,ls)
);
}
);
vertWidth = 0;
width = 385;
},
{
layerId = m004;
shapes = (
{
closed = 1;
nodes = (
(250,0,ls),
(291,0,o),
(315,27,o),
(312,61,cs),
(309,94,o),
(283,119,o),
(243,119,cs),
(169,119,l),
(320,308,ls),
(360,357,o),
(320,416,o),
(273,416,cs),
(69,416,ls),
(27,416,o),
(4,387,o),
(6,353,cs),
(9,320,o),
(35,292,o),
(76,292,cs),
(143,292,l),
(-9,103,ls),
(-42,63,o),
(-12,0,o),
(41,0,cs)
);
},
{
closed = 1;
nodes = (
(6,23,o),
(-12,62,o),
(9,88,cs),
(180,301,ls),
(187,309,o),
(183,315,o),
(173,315,cs),
(76,315,ls),
(47,315,o),
(31,332,o),
(30,354,cs),
(28,377,o),
(41,393,o),
(69,393,cs),
(273,393,ls),
(305,393,o),
(329,357,o),
(302,323,cs),
(132,109,ls),
(125,102,o),
(129,95,o),
(139,95,cs),
(243,95,ls),
(272,95,o),
(286,81,o),
(289,59,cs),
(290,37,o),
(278,23,o),
(250,23,cs),
(41,23,ls)
);
}
);
vertWidth = 0;
width = 385;
}
);
unicode = 122;
},
{
glyphname = zero;
layers = (
{
layerId = m002;
shapes = (
{
closed = 1;
nodes = (
(369,-4,o),
(544,263,o),
(529,467,cs),
(523,558,o),
(476,678,o),
(329,678,cs),
(87,678,o),
(23,348,o),
(32,209,cs),
(39,112,o),
(91,-5,o),
(204,-5,cs)
);
},
{
closed = 1;
nodes = (
(101,9,o),
(53,115,o),
(46,209,cs),
(37,346,o),
(99,664,o),
(329,664,cs),
(467,664,o),
(510,555,o),
(515,467,cs),
(530,268,o),
(361,10,o),
(204,9,cs)
);
},
{
closed = 1;
nodes = (
(259,111,o),
(420,269,o),
(406,470,cs),
(402,530,o),
(390,562,o),
(339,562,cs),
(210,562,o),
(146,337,o),
(156,206,cs),
(163,131,o),
(176,111,o),
(197,111,cs)
);
},
{
closed = 1;
nodes = (
(185,125,o),
(176,139,o),
(171,206,cs),
(161,334,o),
(222,547,o),
(339,547,cs),
(379,547,o),
(388,526,o),
(392,469,cs),
(405,275,o),
(250,125,o),
(197,125,cs)
);
}
);
vertWidth = 0;
width = 574;
},
{
layerId = m003;
shapes = (
{
closed = 1;
nodes = (
(369,-4,o),
(544,263,o),
(529,467,cs),
(523,558,o),
(476,678,o),
(329,678,cs),
(87,678,o),
(23,348,o),
(32,209,cs),
(39,112,o),
(91,-5,o),
(204,-5,cs)
);
},
{
closed = 1;
nodes = (
(119,29,o),
(78,120,o),
(71,211,cs),
(62,345,o),
(121,644,o),
(329,644,cs),
(448,644,o),
(485,551,o),
(490,465,cs),
(505,274,o),
(344,30,o),
(204,29,cs)
);
},
{
closed = 1;
nodes = (
(275,91,o),
(445,260,o),
(431,472,cs),
(427,534,o),
(409,582,o),
(339,582,cs),
(187,582,o),
(121,340,o),
(131,204,cs),
(138,123,o),
(159,91,o),
(197,91,cs)
);
},
{
closed = 1;
nodes = (
(185,125,o),
(176,139,o),
(171,206,cs),
(161,334,o),
(222,547,o),
(339,547,cs),
(379,547,o),
(388,526,o),
(392,469,cs),
(405,275,o),
(250,125,o),
(197,125,cs)
);
}
);
vertWidth = 0;
width = 574;
},
{
layerId = m004;
shapes = (
{
closed = 1;
nodes = (
(369,-4,o),
(544,263,o),
(529,467,cs),
(523,558,o),
(476,678,o),
(329,678,cs),
(87,678,o),
(23,348,o),
(32,209,cs),
(39,112,o),
(91,-5,o),
(204,-5,cs)
);
},
{
closed = 1;
nodes = (
(108,19,o),
(63,119,o),
(56,210,cs),
(47,345,o),
(108,654,o),
(329,654,cs),
(459,654,o),
(500,552,o),
(505,466,cs),
(520,272,o),
(354,20,o),
(204,19,cs)
);
},
{
closed = 1;
nodes = (
(263,101,o),
(430,265,o),
(416,471,cs),
(412,532,o),
(397,572,o),
(339,572,cs),
(202,572,o),
(136,338,o),
(146,205,cs),
(153,128,o),
(171,101,o),
(197,101,cs)
);
},
{
closed = 1;
nodes = (
(185,125,o),
(176,139,o),
(171,206,cs),
(161,334,o),
(222,547,o),
(339,547,cs),
(379,547,o),
(388,526,o),
(392,469,cs),
(405,275,o),
(250,125,o),
(197,125,cs)
);
}
);
vertWidth = 0;
width = 574;
}
);
unicode = 48;
},
{
glyphname = one;
layers = (
{
layerId = m002;
shapes = (
{
closed = 1;
nodes = (
(158,0,o),
(192,17,o),
(197,56,cs),
(257,608,ls),
(261,651,o),
(224,679,o),
(187,679,cs),
(155,679,o),
(120,659,o),
(116,620,cs),
(57,73,ls),
(52,25,o),
(92,0,o),
(128,0,cs)
);
},
{
closed = 1;
nodes = (
(97,15,o),
(67,33,o),
(71,71,cs),
(131,619,ls),
(134,650,o),
(160,665,o),
(187,665,cs),
(219,665,o),
(245,644,o),
(243,609,c),
(183,58,ls),
(179,26,o),
(154,15,o),
(128,15,cs)
);
}
);
vertWidth = 0;
width = 308;
},
{
layerId = m003;
shapes = (
{
closed = 1;
nodes = (
(158,0,o),
(192,17,o),
(197,56,cs),
(257,608,ls),
(261,651,o),
(224,679,o),
(187,679,cs),
(155,679,o),
(120,659,o),
(116,620,cs),
(57,73,ls),
(52,25,o),
(92,0,o),
(128,0,cs)
);
},
{
closed = 1;
nodes = (
(106,35,o),
(93,43,o),
(96,69,cs),
(156,617,ls),
(158,638,o),
(169,645,o),
(187,645,cs),
(207,645,o),
(220,635,o),
(218,611,cs),
(158,60,ls),
(156,39,o),
(147,35,o),
(128,35,cs)
);
}
);
vertWidth = 0;
width = 308;
},
{
layerId = m004;
shapes = (
{
closed = 1;
nodes = (
(158,0,o),
(192,17,o),
(197,56,cs),
(257,608,ls),
(261,651,o),
(224,679,o),
(187,679,cs),
(155,679,o),
(120,659,o),
(116,620,cs),
(57,73,ls),
(52,25,o),
(92,0,o),
(128,0,cs)
);
},
{
closed = 1;
nodes = (
(101,25,o),
(78,39,o),
(81,70,cs),
(141,618,ls),
(143,643,o),
(164,655,o),
(187,655,cs),
(214,655,o),
(235,638,o),
(233,610,cs),
(173,59,ls),
(170,34,o),
(151,25,o),
(128,25,cs)
);
}
);
vertWidth = 0;
width = 308;
}
);
unicode = 49;
},
{
glyphname = two;
layers = (
{
layerId = m002;
shapes = (
{
closed = 1;
nodes = (
(351,0,ls),
(392,0,o),
(422,22,o),
(418,61,cs),
(416,94,o),
(389,124,o),
(345,124,cs),
(205,124,l),
(359,311,ls),
(435,404,o),
(471,475,o),
(471,532,cs),
(471,583,o),
(447,624,o),
(393,655,cs),
(363,674,o),
(319,680,o),
(281,680,cs),
(201,680,o),
(117,647,o),
(70,602,cs),
(33,568,o),
(38,535,o),
(58,510,cs),
(76,485,o),
(124,474,o),
(163,510,cs),
(198,539,o),
(247,556,o),
(287,556,cs),
(304,556,o),
(332,555,o),
(332,534,cs),
(332,508,o),
(305,461,o),
(267,415,cs),
(20,112,ls),
(-21,61,o),
(0,0,o),
(56,0,cs)
);
},
{
closed = 1;
nodes = (
(11,15,o),
(-5,59,o),
(31,103,cs),
(278,406,ls),
(317,453,o),
(346,504,o),
(346,534,cs),
(346,565,o),
(316,570,o),
(287,570,cs),
(244,570,o),
(191,552,o),
(154,520,cs),
(120,490,o),
(84,498,o),
(69,518,cs),
(52,541,o),
(49,563,o),
(79,592,cs),
(125,635,o),
(204,666,o),
(281,666,cs),
(317,666,o),
(357,661,o),
(385,644,cs),
(438,613,o),
(457,577,o),
(457,532,cs),
(457,478,o),
(423,411,o),
(348,320,cs),
(187,123,ls),
(176,110,o),
(177,109,o),
(193,109,cs),
(345,109,ls),
(382,109,o),
(402,88,o),
(404,60,cs),
(406,30,o),
(388,15,o),
(351,15,cs),
(57,15,ls)
);
}
);
vertWidth = 0;
width = 516;
},
{
layerId = m003;
shapes = (
{
closed = 1;
nodes = (
(351,1,ls),
(392,1,o),
(422,23,o),
(418,62,cs),
(416,95,o),
(389,125,o),
(345,125,cs),
(205,125,l),
(359,312,ls),
(435,405,o),
(471,476,o),
(471,533,cs),
(471,584,o),
(447,625,o),
(393,656,cs),
(363,675,o),
(319,681,o),
(281,681,cs),
(201,681,o),
(117,648,o),
(70,603,cs),
(33,569,o),
(38,536,o),
(58,511,cs),
(76,486,o),
(124,475,o),
(163,511,cs),
(198,540,o),
(247,557,o),
(287,557,cs),
(304,557,o),
(332,556,o),
(332,535,cs),
(332,509,o),
(305,462,o),
(267,416,cs),
(20,113,ls),
(-21,62,o),
(0,1,o),
(56,1,cs)
);
},
{
closed = 1;
nodes = (
(32,36,o),
(24,59,o),
(51,92,cs),
(298,395,ls),
(338,445,o),
(371,500,o),
(371,535,cs),
(371,582,o),
(319,591,o),
(287,591,cs),
(238,591,o),
(177,570,o),
(137,537,cs),
(113,515,o),
(99,517,o),
(89,531,cs),
(77,547,o),
(75,559,o),
(96,579,cs),
(140,619,o),
(210,647,o),
(281,647,cs),
(315,647,o),
(347,643,o),
(372,627,cs),
(417,601,o),
(432,574,o),
(432,533,cs),
(432,483,o),
(400,421,o),
(328,333,cs),
(153,121,ls),
(135,99,o),
(158,90,o),
(172,90,cs),
(345,90,ls),
(368,90,o),
(377,80,o),
(379,59,cs),
(381,39,o),
(371,36,o),
(351,36,cs),
(57,36,ls)
);
}
);
vertWidth = 0;
width = 516;
},
{
layerId = m004;
shapes = (
{
closed = 1;
nodes = (
(351,1,ls),
(392,1,o),
(422,23,o),
(418,62,cs),
(416,95,o),
(389,125,o),
(345,125,cs),
(205,125,l),
(359,312,ls),
(435,405,o),
(471,476,o),
(471,533,cs),
(471,584,o),
(447,625,o),
(393,656,cs),
(363,675,o),
(319,681,o),
(281,681,cs),
(201,681,o),
(117,648,o),
(70,603,cs),
(33,569,o),
(38,536,o),
(58,511,cs),
(76,486,o),
(124,475,o),
(163,511,cs),
(198,540,o),
(247,557,o),
(287,557,cs),
(304,557,o),
(332,556,o),
(332,535,cs),
(332,509,o),
(305,462,o),
(267,416,cs),
(20,113,ls),
(-21,62,o),
(0,1,o),
(56,1,cs)
);
},
{
closed = 1;
nodes = (
(20,26,o),
(8,60,o),
(39,98,cs),
(286,401,ls),
(325,448,o),
(356,502,o),
(356,535,cs),
(356,574,o),
(317,581,o),
(287,581,cs),
(242,581,o),
(186,562,o),
(147,529,cs),
(118,503,o),
(89,509,o),
(77,525,cs),
(62,545,o),
(60,561,o),
(86,586,cs),
(130,627,o),
(206,657,o),
(281,657,cs),
(316,657,o),
(354,652,o),
(380,636,cs),
(430,607,o),
(447,575,o),
(447,533,cs),
(447,482,o),
(414,417,o),
(340,327,cs),
(165,115,ls),
(159,107,o),
(162,100,o),
(172,100,cs),
(345,100,ls),
(376,100,o),
(392,83,o),
(394,60,cs),
(396,36,o),
(382,26,o),
(351,26,cs),
(57,26,ls)
);
}
);
vertWidth = 0;
width = 516;
}
);
unicode = 50;
},
{
glyphname = three;
layers = (
{
layerId = m002;
shapes = (
{
closed = 1;
nodes = (
(288,-5,o),
(457,116,o),
(457,282,cs),
(457,350,o),
(419,408,o),
(353,435,c),
(400,482,o),
(433,529,o),
(431,570,cs),
(428,637,o),
(360,678,o),
(287,678,cs),
(212,678,o),
(141,656,o),
(72,609,cs),
(37,584,o),
(31,548,o),
(51,518,cs),
(72,488,o),
(118,480,o),
(149,500,cs),
(209,542,o),
(248,559,o),
(271,559,cs),
(281,559,o),
(296,559,o),
(296,553,cs),
(296,540,o),
(176,452,o),
(89,394,cs),
(53,368,o),
(55,332,o),
(69,305,cs),
(89,268,o),
(135,259,o),
(171,285,cs),
(217,317,o),
(241,320,o),
(270,320,cs),
(301,320,o),
(319,304,o),
(319,270,cs),
(319,182,o),
(219,123,o),
(153,123,cs),
(117,123,o),
(106,127,o),
(81,144,cs),
(44,167,o),
(-1,153,o),
(-16,124,cs),
(-29,101,o),
(-31,69,o),
(16,34,cs),
(50,8,o),
(96,-5,o),
(141,-5,cs)
);
},
{
closed = 1;
nodes = (
(98,9,o),
(57,21,o),
(25,45,cs),
(-16,76,o),
(-14,97,o),
(-4,118,cs),
(9,141,o),
(42,152,o),
(73,132,cs),
(100,114,o),
(114,108,o),
(153,108,cs),
(225,108,o),
(333,173,o),
(333,270,cs),
(333,312,o),
(308,335,o),
(270,335,cs),
(240,335,o),
(212,330,o),
(163,297,cs),
(132,274,o),
(98,281,o),
(82,312,cs),
(69,336,o),
(68,362,o),
(97,382,cs),
(184,440,o),
(308,529,o),
(308,553,cs),
(308,567,o),
(294,573,o),
(271,573,cs),
(245,573,o),
(203,555,o),
(141,512,cs),
(115,495,o),
(80,501,o),
(63,526,cs),
(47,551,o),
(51,576,o),
(80,597,cs),
(147,643,o),
(214,664,o),
(287,664,cs),
(355,664,o),
(415,628,o),
(416,569,cs),
(418,528,o),
(380,479,o),
(339,440,cs),
(327,430,o),
(326,429,o),
(343,424,cs),
(393,408,o),
(443,353,o),
(442,282,cs),
(442,124,o),
(283,9,o),
(141,9,cs)
);
}
);
vertWidth = 0;
width = 514;
},
{
layerId = m003;
shapes = (
{
closed = 1;
nodes = (
(288,-5,o),
(457,116,o),
(457,282,cs),
(457,350,o),
(419,408,o),
(353,435,c),
(400,482,o),
(433,529,o),
(431,570,cs),
(428,637,o),
(360,678,o),
(287,678,cs),
(212,678,o),
(141,656,o),
(72,609,cs),
(37,584,o),
(31,548,o),
(51,518,cs),
(72,488,o),
(118,480,o),
(149,500,cs),
(209,542,o),
(255,559,o),
(278,559,cs),
(288,559,o),
(296,559,o),
(296,553,cs),
(296,540,o),
(176,452,o),
(89,394,cs),
(53,368,o),
(55,332,o),
(69,305,cs),
(89,268,o),
(135,259,o),
(171,285,cs),
(217,317,o),
(241,320,o),
(270,320,cs),
(301,320,o),
(319,304,o),
(319,270,cs),
(319,182,o),
(219,123,o),
(135,123,cs),
(117,123,o),
(106,127,o),
(81,144,cs),
(44,167,o),
(-1,153,o),
(-16,124,cs),
(-29,101,o),
(-31,69,o),
(16,34,cs),
(50,8,o),
(96,-5,o),
(141,-5,cs)
);
},
{
closed = 1;
nodes = (
(103,29,o),
(70,38,o),
(40,61,cs),
(10,83,o),
(11,94,o),
(18,108,cs),
(27,124,o),
(39,128,o),
(59,116,cs),
(86,97,o),
(108,88,o),
(135,88,cs),
(235,88,o),
(358,161,o),
(358,270,cs),
(358,321,o),
(321,355,o),
(270,355,cs),
(237,355,o),
(201,349,o),
(148,313,cs),
(126,297,o),
(116,299,o),
(104,322,cs),
(94,340,o),
(94,353,o),
(111,366,c),
(200,425,o),
(333,519,o),
(333,553,cs),
(333,576,o),
(313,593,o),
(278,593,cs),
(246,593,o),
(190,572,o),
(127,528,cs),
(110,517,o),
(95,520,o),
(84,536,cs),
(73,553,o),
(75,567,o),
(95,581,cs),
(159,626,o),
(219,644,o),
(287,644,cs),
(346,644,o),
(390,617,o),
(391,569,cs),
(393,534,o),
(360,490,o),
(306,440,cs),
(288,425,o),
(301,414,o),
(318,409,cs),
(383,393,o),
(418,347,o),
(417,282,cs),
(417,134,o),
(273,29,o),
(141,29,cs)
);
}
);
vertWidth = 0;
width = 514;
},
{
layerId = m004;
shapes = (
{
closed = 1;
nodes = (
(288,-5,o),
(457,116,o),
(457,282,cs),
(457,350,o),
(419,408,o),
(353,435,c),
(400,482,o),
(433,529,o),
(431,570,cs),
(428,637,o),
(360,678,o),
(287,678,cs),
(212,678,o),
(141,656,o),
(72,609,cs),
(37,584,o),
(31,548,o),
(51,518,cs),
(72,488,o),
(118,480,o),
(149,500,cs),
(209,542,o),
(251,559,o),
(274,559,cs),
(284,559,o),
(296,559,o),
(296,553,cs),
(296,540,o),
(176,452,o),
(89,394,cs),
(53,368,o),
(55,332,o),
(69,305,cs),
(89,268,o),
(135,259,o),
(171,285,cs),
(217,317,o),
(241,320,o),
(270,320,cs),
(301,320,o),
(319,304,o),
(319,270,cs),
(319,182,o),
(219,123,o),
(135,123,cs),
(117,123,o),
(106,127,o),
(81,144,cs),
(44,167,o),
(-1,153,o),
(-16,124,cs),
(-29,101,o),
(-31,69,o),
(16,34,cs),
(50,8,o),
(96,-5,o),
(141,-5,cs)
);
},
{
closed = 1;
nodes = (
(100,19,o),
(61,30,o),
(31,53,cs),
(-5,80,o),
(-4,95,o),
(5,113,cs),
(15,131,o),
(42,140,o),
(67,124,cs),
(95,105,o),
(112,98,o),
(135,98,cs),
(228,98,o),
(343,167,o),
(343,270,cs),
(343,316,o),
(312,345,o),
(270,345,cs),
(239,345,o),
(208,340,o),
(157,305,cs),
(131,286,o),
(104,291,o),
(91,317,cs),
(79,338,o),
(79,357,o),
(103,374,cs),
(190,432,o),
(318,524,o),
(318,553,cs),
(318,571,o),
(301,583,o),
(274,583,cs),
(246,583,o),
(198,564,o),
(135,520,cs),
(114,506,o),
(85,511,o),
(71,531,cs),
(58,552,o),
(61,571,o),
(86,589,cs),
(151,634,o),
(216,654,o),
(287,654,cs),
(351,654,o),
(405,621,o),
(406,569,cs),
(408,532,o),
(373,486,o),
(318,434,cs),
(310,428,o),
(312,422,o),
(322,419,cs),
(394,401,o),
(433,349,o),
(432,282,cs),
(432,130,o),
(279,19,o),
(141,19,cs)
);
}
);
vertWidth = 0;
width = 514;
}
);
unicode = 51;
},
{
glyphname = four;
layers = (
{
layerId = m002;
shapes = (
{
closed = 1;
nodes = (
(335,1,o),
(361,24,o),
(364,63,cs),
(370,142,l),
(439,142,ls),
(479,142,o),
(503,171,o),
(504,207,cs),
(506,241,o),
(480,270,o),
(441,270,cs),
(382,270,l),
(388,333,ls),
(392,374,o),
(371,406,o),
(332,407,cs),
(294,408,o),
(262,391,o),
(258,351,cs),
(249,270,l),
(176,270,l),
(212,611,ls),
(217,657,o),
(180,680,o),
(147,680,cs),
(114,680,o),
(79,662,o),
(75,622,cs),
(31,211,ls),
(27,174,o),
(57,142,o),
(101,142,cs),
(237,142,l),
(231,83,ls),
(227,39,o),
(247,1,o),
(291,1,cs)
);
},
{
closed = 1;
nodes = (
(256,16,o),
(241,42,o),
(245,81,cs),
(252,142,ls),
(253,155,o),
(253,156,o),
(238,156,cs),
(101,156,ls),
(64,156,o),
(42,180,o),
(45,209,cs),
(89,621,ls),
(92,652,o),
(119,666,o),
(147,666,cs),
(176,666,o),
(202,648,o),
(198,612,cs),
(161,270,ls),
(159,256,o),
(161,256,o),
(175,256,cs),
(248,256,ls),
(261,256,o),
(262,257,o),
(263,270,cs),
(272,350,ls),
(276,383,o),
(298,393,o),
(331,393,cs),
(363,392,o),
(377,369,o),
(374,335,cs),
(368,270,ls),
(367,257,o),
(368,256,o),
(381,256,cs),
(441,256,ls),
(472,256,o),
(491,236,o),
(490,208,cs),
(489,177,o),
(472,156,o),
(439,156,cs),
(371,156,ls),
(358,156,o),
(357,155,o),
(356,142,cs),
(349,64,ls),
(346,32,o),
(329,16,o),
(291,16,cs)
);
}
);
vertWidth = 0;
width = 524;
},
{
layerId = m003;
shapes = (
{
closed = 1;
nodes = (
(335,1,o),
(361,24,o),
(364,63,cs),
(370,142,l),
(439,142,ls),
(479,142,o),
(503,171,o),
(504,207,cs),
(506,241,o),
(480,270,o),
(441,270,cs),
(382,270,l),
(388,333,ls),
(392,374,o),
(371,406,o),
(332,407,cs),
(294,408,o),
(262,391,o),
(258,351,cs),
(249,270,l),
(176,270,l),
(212,611,ls),
(217,657,o),
(180,680,o),
(147,680,cs),
(114,680,o),
(78,662,o),
(75,622,cs),
(31,211,ls),
(26,174,o),
(57,142,o),
(101,142,cs),
(237,142,l),
(231,83,ls),
(226,39,o),
(247,1,o),
(291,1,cs)
);
},
{
closed = 1;
nodes = (
(273,36,o),
(266,47,o),
(270,79,cs),
(278,153,ls),
(280,169,o),
(266,176,o),
(251,176,cs),
(101,176,ls),
(78,176,o),
(67,187,o),
(70,207,cs),
(114,619,ls),
(116,640,o),
(127,646,o),
(147,646,cs),
(165,646,o),
(176,639,o),
(173,614,cs),
(135,260,ls),
(133,244,o),
(148,236,o),
(162,236,cs),
(260,236,ls),
(273,236,o),
(287,243,o),
(287,257,c),
(297,348,ls),
(299,370,o),
(305,373,o),
(331,373,cs),
(346,372,o),
(352,364,o),
(349,337,cs),
(342,260,ls),
(340,241,o),
(356,236,o),
(368,236,cs),
(441,236,ls),
(459,236,o),
(466,228,o),
(465,208,cs),
(464,184,o),
(457,176,o),
(439,176,cs),
(360,176,ls),
(347,176,o),
(334,170,o),
(332,156,cs),
(324,66,ls),
(323,41,o),
(317,36,o),
(291,36,cs)
);
}
);
vertWidth = 0;
width = 524;
},
{
layerId = m004;
shapes = (
{
closed = 1;
nodes = (
(335,1,o),
(361,24,o),
(364,63,cs),
(370,142,l),
(439,142,ls),
(479,142,o),
(503,171,o),
(504,207,cs),
(506,241,o),
(480,270,o),
(441,270,cs),
(382,270,l),
(388,333,ls),
(392,374,o),
(371,406,o),
(332,407,cs),
(294,408,o),
(262,391,o),
(258,351,cs),
(249,270,l),
(176,270,l),
(212,611,ls),
(217,657,o),
(180,680,o),
(147,680,cs),
(114,680,o),
(78,662,o),
(75,622,cs),
(31,211,ls),
(26,174,o),
(57,142,o),
(101,142,cs),
(237,142,l),
(231,83,ls),
(226,39,o),
(247,1,o),
(291,1,cs)
);
},
{
closed = 1;
nodes = (
(263,26,o),
(251,46,o),
(255,80,cs),
(263,154,ls),
(264,162,o),
(260,166,o),
(251,166,cs),
(101,166,ls),
(70,166,o),
(52,185,o),
(55,208,cs),
(99,620,ls),
(101,645,o),
(122,656,o),
(147,656,cs),
(171,656,o),
(191,643,o),
(188,613,cs),
(150,259,ls),
(149,251,o),
(154,246,o),
(162,246,cs),
(260,246,ls),
(267,246,o),
(272,250,o),
(272,257,cs),
(282,349,ls),
(284,375,o),
(301,383,o),
(331,383,cs),
(356,382,o),
(367,365,o),
(364,336,cs),
(357,259,ls),
(356,250,o),
(360,246,o),
(368,246,cs),
(441,246,ls),
(467,246,o),
(481,230,o),
(480,208,cs),
(479,182,o),
(466,166,o),
(439,166,cs),
(360,166,ls),
(352,166,o),
(348,162,o),
(347,155,cs),
(339,65,ls),
(338,38,o),
(324,26,o),
(291,26,cs)
);
}
);
vertWidth = 0;
width = 524;
}
);
unicode = 52;
},
